<?xml version="1.0" encoding="UTF-8" standalone="no"?>
<!-- Created with Inkscape (http://www.inkscape.org/) -->

<svg
   xmlns:dc="http://purl.org/dc/elements/1.1/"
   xmlns:cc="http://creativecommons.org/ns#"
   xmlns:rdf="http://www.w3.org/1999/02/22-rdf-syntax-ns#"
   xmlns:svg="http://www.w3.org/2000/svg"
   xmlns="http://www.w3.org/2000/svg"
   xmlns:sodipodi="http://sodipodi.sourceforge.net/DTD/sodipodi-0.dtd"
   xmlns:inkscape="http://www.inkscape.org/namespaces/inkscape"
   width="61.297001"
   height="61.297001"
   viewBox="0 0 16.218164 16.218165"
   version="1.1"
   id="svg8"
   inkscape:version="0.92.4 (5da689c313, 2019-01-14)"
   sodipodi:docname="Simbolo-Preto2.svg">
  <defs
     id="defs2">
        
    
            
            
            
            
        </defs>
  <sodipodi:namedview
     id="base"
     pagecolor="#ffffff"
     bordercolor="#666666"
     borderopacity="1.0"
     inkscape:pageopacity="0.0"
     inkscape:pageshadow="2"
     inkscape:zoom="1.979899"
     inkscape:cx="39.516753"
     inkscape:cy="43.347367"
     inkscape:document-units="mm"
     inkscape:current-layer="layer1"
     showgrid="false"
     units="px"
     inkscape:window-width="1366"
     inkscape:window-height="715"
     inkscape:window-x="-8"
     inkscape:window-y="-8"
     inkscape:window-maximized="1" />
  <metadata
     id="metadata5">
    <rdf:RDF>
      <cc:Work
         rdf:about="">
        <dc:format>image/svg+xml</dc:format>
        <dc:type
           rdf:resource="http://purl.org/dc/dcmitype/StillImage" />
        <dc:title></dc:title>
      </cc:Work>
    </rdf:RDF>
  </metadata>
  <g
     inkscape:label="Camada 1"
     inkscape:groupmode="layer"
     id="layer1"
     transform="translate(0,-280.78182)">
    <g
       id="g97"
       transform="matrix(0.26447898,0,0,0.26447983,-20.883171,247.72993)">
      <g
         id="g14"
         transform="matrix(-0.8812244,0,0,0.88122555,845.59053,-188.31612)"
         style="clip-rule:evenodd;fill-rule:evenodd;stroke-linejoin:round;stroke-miterlimit:2">
                <path
   id="path12"
   d="m 869.956,364.227 c -8.815,29.107 -31.775,52.063 -60.89,60.865 H 865.8 c 1.102,0 2.159,-0.438 2.939,-1.217 0.779,-0.78 1.217,-1.836 1.217,-2.939 z"
   inkscape:connector-curvature="0" />

            </g>
      <g
         id="g18"
         transform="matrix(-2.3135893,0,0,2.3135869,2088.2248,-793.75)"
         style="clip-rule:evenodd;fill-rule:evenodd;stroke-linejoin:round;stroke-miterlimit:2">
                <path
   id="path16"
   d="m 843.548,397.106 c -0.419,0 -0.822,0.166 -1.119,0.463 -0.297,0.297 -0.463,0.7 -0.463,1.119 v 23.329 c 0,0.42 0.166,0.822 0.463,1.119 0.297,0.297 0.7,0.464 1.119,0.464 h 1.719 c 11.089,-3.352 19.836,-12.095 23.193,-23.183 v -1.729 c 0,-0.419 -0.167,-0.822 -0.464,-1.119 -0.297,-0.297 -0.699,-0.463 -1.119,-0.463 z m 0,0.808 h 23.329 c 0.429,0.011 0.763,0.345 0.774,0.774 v 1.608 c -3.292,10.738 -11.766,19.208 -22.505,22.495 h -1.598 c -0.205,0 -0.402,-0.082 -0.547,-0.227 -0.145,-0.145 -0.226,-0.342 -0.226,-0.547 v -23.329 c 0,-0.205 0.081,-0.402 0.226,-0.547 0.145,-0.145 0.342,-0.227 0.547,-0.227 z"
   inkscape:connector-curvature="0" />

            </g>
      <g
         id="g28"
         transform="matrix(0,0.36619221,0.36619252,0,-257.14356,-789.02378)"
         style="clip-rule:evenodd;fill-rule:evenodd;stroke-linejoin:round;stroke-miterlimit:2">
                <g
   id="g22"
   transform="matrix(-0.132879,-0.132879,-0.63739,0.63739,2906.74,888.074)">
                    <path
   id="path20"
   d="m 869.956,355.534 -69.559,8.685 v 60.873 z"
   inkscape:connector-curvature="0" />

                </g>

                <g
   id="g26"
   transform="matrix(0.132879,0.132879,0.63739,-0.63739,2224.15,1145.23)">
                    <path
   id="path24"
   d="m 869.956,355.534 -69.559,8.685 v 60.873 z"
   inkscape:connector-curvature="0" />

                </g>

            </g>
    </g>
  </g>
</svg>
