<?xml version="1.0" encoding="UTF-8" standalone="no"?>
<!DOCTYPE svg PUBLIC "-//W3C//DTD SVG 1.1//EN" "http://www.w3.org/Graphics/SVG/1.1/DTD/svg11.dtd">
<svg width="100%" height="100%" viewBox="0 0 919 898" version="1.1" xmlns="http://www.w3.org/2000/svg" xmlns:xlink="http://www.w3.org/1999/xlink" xml:space="preserve" xmlns:serif="http://www.serif.com/" style="fill-rule:evenodd;clip-rule:evenodd;stroke-miterlimit:2;">
    <g transform="matrix(1,0,0,1,-7791.5,-713.393)">
        <g id="Design-Icon" serif:id="Design Icon" transform="matrix(2.12547,0,0,1.92003,-4758.97,-204.061)">
            <rect x="5904.81" y="477.833" width="431.916" height="467.462" style="fill:none;"/>
            <g>
                <g transform="matrix(-0.342406,-0.379042,0.332683,-0.368279,8569.79,4239.44)">
                    <path d="M7864.78,1162.16C7864.78,1126.7 7864.78,1091.24 7864.78,1055.77L8205.32,1055.77C8205.81,1089.62 8206.49,1125.78 8207.48,1162.16L7864.78,1162.16ZM8197.5,1152.16C8196.74,1122.72 8196.18,1093.56 8195.75,1065.77L7874.49,1065.77L7874.49,1152.16L8197.5,1152.16Z" style="fill:rgb(66,162,103);"/>
                </g>
                <g transform="matrix(-0.341962,-0.37855,0.332683,-0.368279,8573.26,4243.29)">
                    <path d="M8269.74,1162.16C8270.57,1125.78 8271.18,1089.63 8271.62,1055.77L8616.31,1055.77L8616.31,1162.16L8269.74,1162.16ZM8279.69,1152.16L8606.58,1152.16L8606.58,1065.77L8281.21,1065.77C8280.83,1093.56 8280.34,1122.72 8279.69,1152.16Z" style="fill:rgb(66,162,103);"/>
                </g>
                <g transform="matrix(-0.332683,-0.368279,0.332683,-0.368279,8498.68,4160.73)">
                    <path d="M7940.07,1055.77L7940.07,1135.41" style="fill:none;stroke:rgb(66,162,103);stroke-width:10px;"/>
                </g>
                <g transform="matrix(-0.332683,-0.368279,0.332683,-0.368279,8446.02,4102.43)">
                    <path d="M7940.07,1055.77L7940.07,1135.41" style="fill:none;stroke:rgb(66,162,103);stroke-width:10px;"/>
                </g>
                <g transform="matrix(-0.332683,-0.368279,0.332683,-0.368279,8340.7,3985.84)">
                    <path d="M7940.07,1055.77L7940.07,1135.41" style="fill:none;stroke:rgb(66,162,103);stroke-width:10px;"/>
                </g>
                <g transform="matrix(-0.332683,-0.368279,0.332683,-0.368279,8288.03,3927.54)">
                    <path d="M7940.07,1055.77L7940.07,1135.41" style="fill:none;stroke:rgb(66,162,103);stroke-width:10px;"/>
                </g>
                <g transform="matrix(-0.707107,-0.782764,0.638762,-0.707107,10014.8,5989.35)">
                    <g transform="matrix(0.470485,0,0,0.520825,2238.26,106.28)">
                        <path d="M7984.64,1055.77L7984.64,1095.59" style="fill:none;stroke:rgb(66,162,103);stroke-width:10px;"/>
                    </g>
                    <g transform="matrix(0.470485,0,0,0.520825,2256.37,106.28)">
                        <path d="M7984.64,1055.77L7984.64,1095.59" style="fill:none;stroke:rgb(66,162,103);stroke-width:10px;"/>
                    </g>
                    <g transform="matrix(0.470485,0,0,0.520825,2274.47,106.28)">
                        <path d="M7984.64,1055.77L7984.64,1095.59" style="fill:none;stroke:rgb(66,162,103);stroke-width:10px;"/>
                    </g>
                </g>
                <g transform="matrix(-0.707107,-0.782764,0.638762,-0.707107,9962.29,5931.24)">
                    <g transform="matrix(0.470485,0,0,0.520825,2238.26,106.28)">
                        <path d="M7984.64,1055.77L7984.64,1095.59" style="fill:none;stroke:rgb(66,162,103);stroke-width:10px;"/>
                    </g>
                    <g transform="matrix(0.470485,0,0,0.520825,2256.37,106.28)">
                        <path d="M7984.64,1055.77L7984.64,1095.59" style="fill:none;stroke:rgb(66,162,103);stroke-width:10px;"/>
                    </g>
                    <g transform="matrix(0.470485,0,0,0.520825,2274.47,106.28)">
                        <path d="M7984.64,1055.77L7984.64,1095.59" style="fill:none;stroke:rgb(66,162,103);stroke-width:10px;"/>
                    </g>
                </g>
                <g transform="matrix(-0.707107,-0.782764,0.638762,-0.707107,9909.79,5873.12)">
                    <g transform="matrix(0.470485,0,0,0.520825,2238.26,106.28)">
                        <path d="M7984.64,1055.77L7984.64,1095.59" style="fill:none;stroke:rgb(66,162,103);stroke-width:10px;"/>
                    </g>
                    <g transform="matrix(0.470485,0,0,0.520825,2256.37,106.28)">
                        <path d="M7984.64,1055.77L7984.64,1095.59" style="fill:none;stroke:rgb(66,162,103);stroke-width:10px;"/>
                    </g>
                    <g transform="matrix(0.470485,0,0,0.520825,2274.47,106.28)">
                        <path d="M7984.64,1055.77L7984.64,1095.59" style="fill:none;stroke:rgb(66,162,103);stroke-width:10px;"/>
                    </g>
                </g>
                <g transform="matrix(-0.707107,-0.782764,0.638762,-0.707107,9857.29,5815)">
                    <g transform="matrix(0.470485,0,0,0.520825,2238.26,106.28)">
                        <path d="M7984.64,1055.77L7984.64,1095.59" style="fill:none;stroke:rgb(66,162,103);stroke-width:10px;"/>
                    </g>
                    <g transform="matrix(0.470485,0,0,0.520825,2256.37,106.28)">
                        <path d="M7984.64,1055.77L7984.64,1095.59" style="fill:none;stroke:rgb(66,162,103);stroke-width:10px;"/>
                    </g>
                    <g transform="matrix(0.470485,0,0,0.520825,2274.47,106.28)">
                        <path d="M7984.64,1055.77L7984.64,1095.59" style="fill:none;stroke:rgb(66,162,103);stroke-width:10px;"/>
                    </g>
                </g>
            </g>
            <g transform="matrix(0.707107,-0.782764,-0.638762,-0.707107,2316.62,6091.14)">
                <g transform="matrix(0.383626,0,0,0.335732,2996.09,452.779)">
                    <path d="M8616.31,1113.5C8616.31,1051.62 7864.78,1055.77 7864.78,1055.77L7864.78,1162.16C7864.78,1162.16 8616.31,1164.87 8616.31,1113.5ZM8592.83,1112.1C8592.17,1112.33 8591.52,1112.53 8590.87,1112.72C8577.78,1116.53 8559.34,1119.87 8536.87,1122.86C8363.02,1146 7953.06,1146.74 7877.04,1146.67L7877.04,1071.25C7952.95,1071.07 8362.82,1071.47 8536.62,1099.13C8560.55,1102.94 8579.84,1107.17 8592.83,1112.1Z" style="fill:rgb(66,162,103);"/>
                </g>
                <g transform="matrix(0.470485,0,0,0.520825,2239.02,106.28)">
                    <path d="M8066.19,1345.82L8066.19,1414.45" style="fill:none;stroke:rgb(66,162,103);stroke-width:10px;"/>
                </g>
                <g transform="matrix(0.470485,0,0,0.520825,2239.02,106.28)">
                    <path d="M7974.61,1345.82C8000.73,1345.82 8021.94,1361.19 8021.94,1380.13C8021.94,1399.08 8000.73,1414.45 7974.61,1414.45C7948.48,1414.45 7911.63,1410.53 7893.64,1380.13C7950.4,1364.35 7948.48,1345.82 7974.61,1345.82ZM7910.35,1385.45C7931.1,1378.4 7942.52,1371.15 7951.17,1365.37C7959.21,1359.99 7963.98,1355.82 7974.61,1355.82C7987.36,1355.82 7998.76,1360.05 8005.77,1366.98C8009.52,1370.7 8011.94,1375.18 8011.94,1380.13C8011.94,1385.09 8009.52,1389.58 8005.77,1393.29C7998.76,1400.22 7987.36,1404.45 7974.61,1404.45C7954.83,1404.45 7927.8,1402.7 7910.35,1385.45Z" style="fill:rgb(66,162,103);"/>
                </g>
            </g>
        </g>
    </g>
</svg>
