<?xml version="1.0" encoding="UTF-8" standalone="no"?>
<svg
   xmlns:dc="http://purl.org/dc/elements/1.1/"
   xmlns:cc="http://creativecommons.org/ns#"
   xmlns:rdf="http://www.w3.org/1999/02/22-rdf-syntax-ns#"
   xmlns:svg="http://www.w3.org/2000/svg"
   xmlns="http://www.w3.org/2000/svg"
   xmlns:sodipodi="http://sodipodi.sourceforge.net/DTD/sodipodi-0.dtd"
   xmlns:inkscape="http://www.inkscape.org/namespaces/inkscape"
   width="961.13501"
   height="231.739"
   viewBox="0 0 2048 108453.85"
   version="1.1"
   xml:space="preserve"
   style="clip-rule:evenodd;fill-rule:evenodd;stroke-linejoin:round;stroke-miterlimit:2"
   id="svg3911"
   sodipodi:docname="Logo-Branca2.svg"
   inkscape:version="0.92.4 (5da689c313, 2019-01-14)"><metadata
   id="metadata3917"><rdf:RDF><cc:Work
       rdf:about=""><dc:format>image/svg+xml</dc:format><dc:type
         rdf:resource="http://purl.org/dc/dcmitype/StillImage" /><dc:title></dc:title></cc:Work></rdf:RDF></metadata><defs
   id="defs3915">
        
    
            
            
        </defs><sodipodi:namedview
   pagecolor="#ffffff"
   bordercolor="#666666"
   borderopacity="1"
   objecttolerance="10"
   gridtolerance="10"
   guidetolerance="10"
   inkscape:pageopacity="0"
   inkscape:pageshadow="2"
   inkscape:window-width="1366"
   inkscape:window-height="715"
   id="namedview3913"
   showgrid="false"
   inkscape:zoom="0.72920387"
   inkscape:cx="472.10866"
   inkscape:cy="113.15419"
   inkscape:window-x="-8"
   inkscape:window-y="-8"
   inkscape:window-maximized="1"
   inkscape:current-layer="g3906"
   units="px" />
    <g
   transform="matrix(1,0,0,1.0000029,-4280.4801,107075.93)"
   id="g3906">
                
                
                
                <g
   id="g4056"
   transform="matrix(467.99342,0,0,467.99342,-2484417.4,-583368.06)"><g
     id="g3820"
     transform="matrix(-3.33061,0,0,3.33061,7736.91,-166.378)">
                    <path
   inkscape:connector-curvature="0"
   id="path3818"
   style="fill:#e2e2e2"
   d="m 869.956,364.227 c -8.815,29.107 -31.775,52.063 -60.89,60.865 H 865.8 c 1.102,0 2.159,-0.438 2.939,-1.217 0.779,-0.78 1.217,-1.836 1.217,-2.939 z" />
                </g><g
     id="g3824"
     transform="matrix(-8.74426,0,0,8.74426,12433.5,-2454.63)">
                    <path
   inkscape:connector-curvature="0"
   id="path3822"
   style="fill:#e2e2e2"
   d="m 843.548,397.106 c -0.419,0 -0.822,0.166 -1.119,0.463 -0.297,0.297 -0.463,0.7 -0.463,1.119 v 23.329 c 0,0.42 0.166,0.822 0.463,1.119 0.297,0.297 0.7,0.464 1.119,0.464 h 1.719 c 11.089,-3.352 19.836,-12.095 23.193,-23.183 v -1.729 c 0,-0.419 -0.167,-0.822 -0.464,-1.119 -0.297,-0.297 -0.699,-0.463 -1.119,-0.463 z m 0,0.808 h 23.329 c 0.429,0.011 0.763,0.345 0.774,0.774 v 1.608 c -3.292,10.738 -11.766,19.208 -22.505,22.495 h -1.598 c -0.205,0 -0.402,-0.082 -0.547,-0.227 -0.145,-0.145 -0.226,-0.342 -0.226,-0.547 v -23.329 c 0,-0.205 0.081,-0.402 0.226,-0.547 0.145,-0.145 0.342,-0.227 0.547,-0.227 z" />
                </g><g
     id="g3834"
     transform="matrix(0,1.38403,1.38403,0,3569.1,-2436.76)">
                    <g
   id="g3828"
   transform="matrix(-0.132879,-0.132879,-0.63739,0.63739,2906.74,888.074)">
                        <path
   inkscape:connector-curvature="0"
   id="path3826"
   style="fill:#e2e2e2"
   d="m 869.956,355.534 -69.559,8.685 v 60.873 z" />
                    </g>
                    <g
   id="g3832"
   transform="matrix(0.132879,0.132879,0.63739,-0.63739,2224.15,1145.23)">
                        <path
   inkscape:connector-curvature="0"
   id="path3830"
   style="fill:#e2e2e2"
   d="m 869.956,355.534 -69.559,8.685 v 60.873 z" />
                    </g>
                </g><g
     id="g3904"
     transform="matrix(0.889879,0,0,0.889879,801.917,60.6982)">
                    <g
   id="g3838"
   transform="matrix(93.54,0,0,93.54,4841.79,1147.12)">
                        <path
   inkscape:connector-curvature="0"
   id="path3836"
   style="fill:#e2e2e2;fill-rule:nonzero"
   d="m 0.907,-0.516 c 0,-0.039 -0.004,-0.07 -0.013,-0.092 C 0.886,-0.631 0.872,-0.648 0.852,-0.66 0.833,-0.672 0.807,-0.679 0.775,-0.683 0.743,-0.686 0.704,-0.688 0.657,-0.688 H 0.406 c -0.042,0 -0.077,0.002 -0.105,0.004 -0.029,0.003 -0.052,0.008 -0.071,0.015 -0.019,0.008 -0.033,0.018 -0.043,0.032 -0.01,0.014 -0.017,0.033 -0.022,0.056 -0.005,0.023 -0.007,0.051 -0.008,0.085 0,0.034 -0.001,0.074 -0.001,0.121 0,0.047 0.001,0.087 0.001,0.121 0.001,0.034 0.004,0.062 0.009,0.085 0.004,0.023 0.011,0.042 0.021,0.056 0.01,0.014 0.024,0.024 0.043,0.032 0.019,0.007 0.042,0.012 0.071,0.015 0.028,0.002 0.063,0.003 0.105,0.003 h 0.251 c 0.037,0 0.068,0 0.094,-0.002 0.027,-0.002 0.049,-0.006 0.068,-0.011 0.018,-0.005 0.033,-0.013 0.045,-0.022 0.011,-0.009 0.02,-0.02 0.026,-0.034 0.007,-0.014 0.011,-0.031 0.013,-0.05 0.003,-0.019 0.004,-0.042 0.004,-0.068 V -0.297 H 0.531 V -0.375 H 1 v 0.125 c 0,0.031 -0.001,0.059 -0.005,0.085 -0.004,0.025 -0.011,0.047 -0.021,0.067 -0.01,0.02 -0.023,0.037 -0.04,0.051 C 0.917,-0.033 0.896,-0.021 0.871,-0.011 0.846,-0.002 0.815,0.005 0.78,0.009 0.745,0.013 0.704,0.016 0.657,0.016 H 0.406 C 0.348,0.016 0.3,0.012 0.261,0.005 0.222,-0.002 0.189,-0.012 0.164,-0.027 0.139,-0.041 0.119,-0.059 0.105,-0.08 0.091,-0.102 0.081,-0.127 0.075,-0.156 0.069,-0.185 0.065,-0.217 0.064,-0.254 0.063,-0.29 0.063,-0.331 0.063,-0.375 c 0,-0.044 0,-0.085 0.001,-0.121 0.001,-0.037 0.005,-0.069 0.011,-0.098 0.006,-0.029 0.016,-0.054 0.03,-0.076 0.014,-0.021 0.034,-0.039 0.059,-0.053 0.025,-0.015 0.058,-0.025 0.097,-0.032 0.039,-0.007 0.087,-0.011 0.145,-0.011 h 0.251 c 0.047,0 0.088,0.003 0.123,0.007 0.035,0.004 0.065,0.011 0.091,0.02 0.025,0.009 0.046,0.02 0.063,0.034 0.017,0.014 0.03,0.03 0.04,0.048 0.01,0.019 0.017,0.04 0.021,0.063 C 0.999,-0.57 1,-0.544 1,-0.516 Z" />
                    </g>
                    <g
   id="g3842"
   transform="matrix(93.54,0,0,93.54,4941.22,1147.12)">
                        <path
   inkscape:connector-curvature="0"
   id="path3840"
   style="fill:#e2e2e2;fill-rule:nonzero"
   d="m 0.094,0 v -0.75 h 0.625 c 0.047,0 0.085,0.004 0.114,0.011 0.028,0.008 0.05,0.019 0.066,0.034 0.015,0.015 0.025,0.033 0.031,0.056 0.005,0.022 0.008,0.047 0.008,0.076 0,0.021 -0.002,0.039 -0.006,0.055 -0.003,0.016 -0.008,0.03 -0.014,0.041 -0.006,0.012 -0.013,0.022 -0.02,0.03 -0.008,0.008 -0.015,0.015 -0.023,0.02 -0.018,0.012 -0.039,0.019 -0.062,0.021 0.029,0.001 0.055,0.009 0.078,0.021 0.009,0.006 0.019,0.013 0.028,0.021 0.009,0.008 0.018,0.019 0.025,0.031 0.007,0.012 0.013,0.026 0.018,0.043 0.004,0.016 0.007,0.035 0.007,0.057 0,0.026 -0.001,0.049 -0.004,0.071 C 0.963,-0.14 0.958,-0.121 0.95,-0.104 0.943,-0.086 0.932,-0.071 0.918,-0.058 0.904,-0.045 0.885,-0.034 0.862,-0.026 0.839,-0.017 0.81,-0.011 0.777,-0.006 0.743,-0.002 0.703,0 0.656,0 Z m 0.531,-0.078 c 0.036,0 0.068,-0.001 0.094,-0.002 0.027,-0.001 0.05,-0.003 0.068,-0.007 0.019,-0.004 0.034,-0.009 0.045,-0.016 0.011,-0.007 0.02,-0.017 0.027,-0.028 0.006,-0.012 0.01,-0.026 0.013,-0.042 0.002,-0.017 0.003,-0.037 0.003,-0.06 0,-0.019 -0.001,-0.034 -0.003,-0.048 C 0.869,-0.295 0.865,-0.306 0.859,-0.315 0.852,-0.324 0.843,-0.332 0.832,-0.338 0.821,-0.343 0.806,-0.348 0.787,-0.351 0.769,-0.354 0.746,-0.357 0.719,-0.358 0.693,-0.359 0.661,-0.359 0.625,-0.359 H 0.188 v 0.281 z m 0,-0.36 c 0.031,0 0.059,0 0.082,-0.001 0.023,-0.002 0.043,-0.004 0.059,-0.008 0.016,-0.003 0.03,-0.008 0.04,-0.015 0.01,-0.006 0.018,-0.014 0.023,-0.024 0.006,-0.01 0.01,-0.023 0.012,-0.037 0.002,-0.014 0.003,-0.031 0.003,-0.05 0,-0.021 -0.003,-0.038 -0.007,-0.051 C 0.832,-0.637 0.824,-0.647 0.813,-0.654 0.801,-0.661 0.785,-0.666 0.765,-0.668 0.745,-0.671 0.719,-0.672 0.688,-0.672 h -0.5 v 0.234 z" />
                    </g>
                    <g
   id="g3846"
   transform="matrix(93.54,0,0,93.54,4841.79,1240.66)">
                        <path
   inkscape:connector-curvature="0"
   id="path3844"
   style="fill:#e2e2e2;fill-rule:nonzero"
   d="m 0.094,0 v -0.75 h 0.75 v 0.078 H 0.188 v 0.25 h 0.625 v 0.078 H 0.188 v 0.266 H 0.844 V 0 Z" />
                    </g>
                    <g
   id="g3850"
   transform="matrix(93.54,0,0,93.54,4923.64,1240.66)">
                        <path
   inkscape:connector-curvature="0"
   id="path3848"
   style="fill:#e2e2e2;fill-rule:nonzero"
   d="M 0.188,0 H 0.094 v -0.75 h 0.164 l 0.688,0.656 V -0.75 H 1.04 V 0 H 0.915 L 0.188,-0.672 Z" />
                    </g>
                    <g
   id="g3854"
   transform="matrix(93.54,0,0,93.54,5029.64,1240.66)">
                        <path
   inkscape:connector-curvature="0"
   id="path3852"
   style="fill:#e2e2e2;fill-rule:nonzero"
   d="m 0.094,0 v -0.75 h 0.75 v 0.078 H 0.188 v 0.25 h 0.625 v 0.078 H 0.188 v 0.266 H 0.844 V 0 Z" />
                    </g>
                    <g
   id="g3858"
   transform="matrix(93.54,0,0,93.54,5111.49,1240.66)">
                        <path
   inkscape:connector-curvature="0"
   id="path3856"
   style="fill:#e2e2e2;fill-rule:nonzero"
   d="M 0.953,0 H 0.859 v -0.141 c 0,-0.022 0,-0.042 -0.001,-0.058 C 0.857,-0.216 0.855,-0.23 0.85,-0.242 0.845,-0.253 0.838,-0.263 0.828,-0.27 0.818,-0.277 0.803,-0.283 0.785,-0.287 0.766,-0.291 0.743,-0.293 0.714,-0.295 0.686,-0.296 0.651,-0.297 0.609,-0.297 H 0.188 V 0 H 0.094 v -0.75 h 0.531 c 0.057,0 0.105,0.002 0.144,0.006 0.04,0.004 0.072,0.01 0.097,0.018 0.026,0.009 0.046,0.019 0.06,0.031 0.013,0.012 0.023,0.026 0.03,0.042 0.006,0.016 0.01,0.035 0.011,0.055 0.001,0.02 0.002,0.042 0.002,0.067 0,0.031 -0.002,0.058 -0.007,0.082 -0.004,0.024 -0.012,0.044 -0.022,0.06 -0.01,0.017 -0.024,0.03 -0.042,0.04 -0.017,0.01 -0.038,0.017 -0.065,0.021 0.027,0.004 0.047,0.011 0.063,0.02 0.016,0.01 0.028,0.023 0.036,0.038 0.009,0.016 0.014,0.035 0.017,0.056 0.003,0.022 0.004,0.046 0.004,0.073 z M 0.188,-0.375 h 0.437 c 0.041,0 0.076,-0.001 0.105,-0.002 0.028,-0.002 0.052,-0.004 0.07,-0.008 0.019,-0.004 0.033,-0.01 0.043,-0.017 0.01,-0.007 0.018,-0.016 0.022,-0.028 0.005,-0.012 0.008,-0.026 0.009,-0.042 0.001,-0.017 0.001,-0.036 0.001,-0.059 0,-0.021 0,-0.04 -0.001,-0.055 C 0.873,-0.601 0.87,-0.614 0.865,-0.625 0.861,-0.635 0.853,-0.643 0.843,-0.649 0.833,-0.656 0.819,-0.66 0.8,-0.664 0.782,-0.667 0.758,-0.669 0.73,-0.67 0.701,-0.671 0.666,-0.672 0.625,-0.672 H 0.188 Z" />
                    </g>
                    <g
   id="g3862"
   transform="matrix(93.54,0,0,93.54,5207.95,1240.66)">
                        <path
   inkscape:connector-curvature="0"
   id="path3860"
   style="fill:#e2e2e2;fill-rule:nonzero"
   d="m 0.907,-0.516 c 0,-0.039 -0.004,-0.07 -0.013,-0.092 C 0.886,-0.631 0.872,-0.648 0.852,-0.66 0.833,-0.672 0.807,-0.679 0.775,-0.683 0.743,-0.686 0.704,-0.688 0.657,-0.688 H 0.406 c -0.042,0 -0.077,0.002 -0.105,0.004 -0.029,0.003 -0.052,0.008 -0.071,0.015 -0.019,0.008 -0.033,0.018 -0.043,0.032 -0.01,0.014 -0.017,0.033 -0.022,0.056 -0.005,0.023 -0.007,0.051 -0.008,0.085 0,0.034 -0.001,0.074 -0.001,0.121 0,0.047 0.001,0.087 0.001,0.121 0.001,0.034 0.004,0.062 0.009,0.085 0.004,0.023 0.011,0.042 0.021,0.056 0.01,0.014 0.024,0.024 0.043,0.032 0.019,0.007 0.042,0.012 0.071,0.015 0.028,0.002 0.063,0.003 0.105,0.003 h 0.251 c 0.037,0 0.068,0 0.094,-0.002 0.027,-0.002 0.049,-0.006 0.068,-0.011 0.018,-0.005 0.033,-0.013 0.045,-0.022 0.011,-0.009 0.02,-0.02 0.026,-0.034 0.007,-0.014 0.011,-0.031 0.013,-0.05 0.003,-0.019 0.004,-0.042 0.004,-0.068 V -0.297 H 0.531 V -0.375 H 1 v 0.125 c 0,0.031 -0.001,0.059 -0.005,0.085 -0.004,0.025 -0.011,0.047 -0.021,0.067 -0.01,0.02 -0.023,0.037 -0.04,0.051 C 0.917,-0.033 0.896,-0.021 0.871,-0.011 0.846,-0.002 0.815,0.005 0.78,0.009 0.745,0.013 0.704,0.016 0.657,0.016 H 0.406 C 0.348,0.016 0.3,0.012 0.261,0.005 0.222,-0.002 0.189,-0.012 0.164,-0.027 0.139,-0.041 0.119,-0.059 0.105,-0.08 0.091,-0.102 0.081,-0.127 0.075,-0.156 0.069,-0.185 0.065,-0.217 0.064,-0.254 0.063,-0.29 0.063,-0.331 0.063,-0.375 c 0,-0.044 0,-0.085 0.001,-0.121 0.001,-0.037 0.005,-0.069 0.011,-0.098 0.006,-0.029 0.016,-0.054 0.03,-0.076 0.014,-0.021 0.034,-0.039 0.059,-0.053 0.025,-0.015 0.058,-0.025 0.097,-0.032 0.039,-0.007 0.087,-0.011 0.145,-0.011 h 0.251 c 0.047,0 0.088,0.003 0.123,0.007 0.035,0.004 0.065,0.011 0.091,0.02 0.025,0.009 0.046,0.02 0.063,0.034 0.017,0.014 0.03,0.03 0.04,0.048 0.01,0.019 0.017,0.04 0.021,0.063 C 0.999,-0.57 1,-0.544 1,-0.516 Z" />
                    </g>
                    <g
   id="g3866"
   transform="matrix(93.54,0,0,93.54,5307.39,1240.66)">
                        <path
   inkscape:connector-curvature="0"
   id="path3864"
   style="fill:#e2e2e2;fill-rule:nonzero"
   d="M 0.063,-0.75 H 0.188 L 0.531,-0.383 0.875,-0.75 H 1 L 0.578,-0.313 V 0 H 0.484 v -0.313 z" />
                    </g>
                    <g
   id="g3870"
   transform="matrix(93.54,0,0,93.54,4841.79,1334.2)">
                        <path
   inkscape:connector-curvature="0"
   id="path3868"
   style="fill:#e2e2e2;fill-rule:nonzero"
   d="m 0.566,-0.422 c 0.052,0 0.096,0.002 0.133,0.006 0.037,0.005 0.068,0.011 0.093,0.019 0.025,0.009 0.045,0.019 0.06,0.031 0.015,0.013 0.027,0.027 0.035,0.043 0.008,0.015 0.013,0.033 0.016,0.052 0.002,0.02 0.003,0.041 0.003,0.064 0,0.023 -0.002,0.044 -0.006,0.064 -0.004,0.02 -0.011,0.039 -0.022,0.055 -0.01,0.017 -0.024,0.032 -0.042,0.045 C 0.818,-0.03 0.795,-0.019 0.768,-0.01 0.74,-0.001 0.707,0.006 0.668,0.01 0.629,0.015 0.583,0.018 0.531,0.018 H 0.406 C 0.359,0.018 0.318,0.016 0.283,0.012 0.248,0.009 0.218,0.003 0.192,-0.004 0.167,-0.011 0.146,-0.021 0.129,-0.032 0.113,-0.043 0.1,-0.056 0.09,-0.072 0.08,-0.087 0.073,-0.104 0.069,-0.123 0.065,-0.143 0.063,-0.164 0.063,-0.188 h 0.094 c 0,0.03 0.004,0.053 0.012,0.069 0.009,0.017 0.023,0.029 0.042,0.038 0.02,0.008 0.046,0.013 0.077,0.015 0.032,0.002 0.071,0.003 0.118,0.003 h 0.125 c 0.055,0 0.1,-0.002 0.136,-0.007 0.037,-0.006 0.065,-0.014 0.087,-0.025 0.021,-0.012 0.037,-0.027 0.045,-0.045 0.009,-0.018 0.014,-0.041 0.014,-0.067 0,-0.026 -0.004,-0.048 -0.01,-0.066 C 0.797,-0.291 0.786,-0.305 0.768,-0.315 0.75,-0.325 0.725,-0.333 0.693,-0.337 0.661,-0.342 0.618,-0.344 0.566,-0.344 H 0.438 C 0.38,-0.344 0.331,-0.346 0.29,-0.35 0.249,-0.354 0.215,-0.36 0.188,-0.368 0.16,-0.376 0.138,-0.386 0.121,-0.398 0.104,-0.41 0.092,-0.424 0.083,-0.439 0.075,-0.454 0.069,-0.471 0.066,-0.49 0.064,-0.509 0.063,-0.529 0.063,-0.551 c 0,-0.023 0.002,-0.044 0.006,-0.063 0.004,-0.02 0.011,-0.037 0.022,-0.053 0.011,-0.016 0.027,-0.03 0.046,-0.042 0.019,-0.013 0.044,-0.023 0.074,-0.031 0.03,-0.009 0.066,-0.015 0.108,-0.019 0.043,-0.005 0.092,-0.007 0.15,-0.007 h 0.094 c 0.046,0 0.087,0.002 0.123,0.006 0.035,0.003 0.065,0.008 0.09,0.016 0.026,0.007 0.047,0.016 0.064,0.027 0.016,0.011 0.03,0.024 0.04,0.039 0.01,0.015 0.016,0.032 0.02,0.052 0.004,0.019 0.006,0.04 0.006,0.063 H 0.813 C 0.813,-0.592 0.808,-0.615 0.8,-0.631 0.791,-0.648 0.777,-0.66 0.758,-0.669 0.738,-0.677 0.713,-0.682 0.681,-0.684 0.649,-0.686 0.609,-0.688 0.563,-0.688 H 0.469 c -0.063,0 -0.114,0.003 -0.155,0.007 -0.04,0.004 -0.072,0.012 -0.095,0.022 -0.024,0.011 -0.04,0.025 -0.049,0.042 -0.009,0.018 -0.014,0.04 -0.014,0.066 0,0.016 0.001,0.031 0.004,0.044 0.002,0.012 0.007,0.024 0.014,0.033 0.007,0.01 0.016,0.018 0.029,0.024 0.013,0.007 0.03,0.012 0.05,0.016 0.021,0.005 0.047,0.008 0.077,0.009 0.03,0.002 0.066,0.003 0.108,0.003 z" />
                    </g>
                    <g
   id="g3874"
   transform="matrix(93.54,0,0,93.54,4932.4,1334.2)">
                        <path
   inkscape:connector-curvature="0"
   id="path3872"
   style="fill:#e2e2e2;fill-rule:nonzero"
   d="m 0.688,-0.766 c 0.057,0 0.106,0.004 0.145,0.011 0.039,0.007 0.071,0.017 0.097,0.032 0.025,0.014 0.045,0.032 0.058,0.053 0.014,0.022 0.024,0.047 0.03,0.076 0.007,0.029 0.01,0.061 0.012,0.098 10e-4,0.036 10e-4,0.077 10e-4,0.121 0,0.044 0,0.085 -10e-4,0.121 C 1.028,-0.217 1.025,-0.185 1.018,-0.156 1.012,-0.127 1.002,-0.102 0.988,-0.08 0.975,-0.059 0.955,-0.041 0.93,-0.027 0.904,-0.012 0.872,-0.002 0.833,0.005 0.794,0.012 0.745,0.016 0.688,0.016 H 0.406 C 0.348,0.016 0.3,0.012 0.261,0.005 0.222,-0.002 0.189,-0.012 0.164,-0.027 0.139,-0.041 0.119,-0.059 0.105,-0.08 0.091,-0.102 0.081,-0.127 0.075,-0.156 0.069,-0.185 0.065,-0.217 0.064,-0.254 0.063,-0.29 0.063,-0.331 0.063,-0.375 c 0,-0.044 0,-0.085 0.001,-0.121 0.001,-0.037 0.005,-0.069 0.011,-0.098 0.006,-0.029 0.016,-0.054 0.03,-0.076 0.014,-0.021 0.034,-0.039 0.059,-0.053 0.025,-0.015 0.058,-0.025 0.097,-0.032 0.039,-0.007 0.087,-0.011 0.145,-0.011 z m 0,0.703 c 0.041,0 0.076,-0.001 0.105,-0.003 0.028,-0.003 0.052,-0.008 0.07,-0.015 0.019,-0.008 0.033,-0.018 0.043,-0.032 0.01,-0.014 0.018,-0.033 0.022,-0.056 0.005,-0.023 0.007,-0.051 0.008,-0.085 0.001,-0.034 0.002,-0.074 0.002,-0.121 0,-0.047 -10e-4,-0.087 -0.002,-0.121 C 0.935,-0.53 0.933,-0.558 0.928,-0.581 0.924,-0.604 0.916,-0.623 0.906,-0.637 0.896,-0.651 0.882,-0.661 0.864,-0.669 0.845,-0.676 0.822,-0.681 0.793,-0.684 0.765,-0.686 0.73,-0.688 0.688,-0.688 H 0.406 c -0.042,0 -0.077,0.002 -0.105,0.004 -0.029,0.003 -0.052,0.008 -0.071,0.015 -0.019,0.008 -0.033,0.018 -0.043,0.032 -0.01,0.014 -0.017,0.033 -0.022,0.056 -0.005,0.023 -0.007,0.051 -0.008,0.085 0,0.034 -0.001,0.074 -0.001,0.121 0,0.047 0.001,0.087 0.001,0.121 0.001,0.034 0.004,0.062 0.009,0.085 0.004,0.023 0.011,0.042 0.021,0.056 0.01,0.014 0.024,0.024 0.043,0.032 0.019,0.007 0.042,0.012 0.071,0.015 0.028,0.002 0.063,0.003 0.105,0.003 z" />
                    </g>
                    <g
   id="g3878"
   transform="matrix(93.54,0,0,93.54,5034.71,1334.2)">
                        <path
   inkscape:connector-curvature="0"
   id="path3876"
   style="fill:#e2e2e2;fill-rule:nonzero"
   d="m 0.094,0 v -0.75 h 0.094 v 0.672 H 0.781 V 0 Z" />
                    </g>
                    <g
   id="g3882"
   transform="matrix(93.54,0,0,93.54,5110.72,1334.2)">
                        <path
   inkscape:connector-curvature="0"
   id="path3880"
   style="fill:#e2e2e2;fill-rule:nonzero"
   d="m 0.969,-0.75 v 0.375 c 0,0.044 0,0.085 -0.001,0.121 C 0.966,-0.217 0.963,-0.185 0.956,-0.156 0.95,-0.127 0.94,-0.102 0.926,-0.08 0.913,-0.059 0.893,-0.041 0.868,-0.027 0.842,-0.012 0.81,-0.002 0.771,0.005 0.732,0.012 0.683,0.016 0.626,0.016 H 0.406 C 0.349,0.016 0.301,0.012 0.261,0.005 0.222,-0.002 0.19,-0.012 0.165,-0.027 0.139,-0.041 0.12,-0.059 0.106,-0.08 0.092,-0.102 0.082,-0.127 0.075,-0.156 0.069,-0.185 0.065,-0.217 0.064,-0.254 0.063,-0.29 0.063,-0.331 0.063,-0.375 V -0.75 h 0.094 v 0.375 c 0,0.047 0,0.087 0.001,0.121 0.001,0.034 0.003,0.062 0.008,0.085 0.005,0.023 0.012,0.042 0.022,0.056 0.01,0.014 0.024,0.024 0.042,0.032 0.019,0.007 0.043,0.012 0.071,0.015 0.029,0.002 0.064,0.003 0.105,0.003 h 0.22 c 0.041,0 0.076,-0.001 0.105,-0.003 0.029,-0.003 0.052,-0.008 0.071,-0.015 0.018,-0.008 0.032,-0.018 0.042,-0.032 0.01,-0.014 0.018,-0.033 0.022,-0.056 0.005,-0.023 0.008,-0.051 0.009,-0.085 0,-0.034 0,-0.074 0,-0.121 V -0.75 Z" />
                    </g>
                    <g
   id="g3886"
   transform="matrix(93.54,0,0,93.54,5207.22,1334.2)">
                        <path
   inkscape:connector-curvature="0"
   id="path3884"
   style="fill:#e2e2e2;fill-rule:nonzero"
   d="m 0.906,-0.75 v 0.078 H 0.531 V 0 H 0.438 V -0.672 H 0.063 V -0.75 Z" />
                    </g>
                    <g
   id="g3890"
   transform="matrix(93.54,0,0,93.54,5297.84,1334.2)">
                        <rect
   id="rect3888"
   style="fill:#e2e2e2;fill-rule:nonzero"
   height="0.75"
   width="0.093999997"
   y="-0.75"
   x="0.093999997" />
                    </g>
                    <g
   id="g3894"
   transform="matrix(93.54,0,0,93.54,5324.15,1334.2)">
                        <path
   inkscape:connector-curvature="0"
   id="path3892"
   style="fill:#e2e2e2;fill-rule:nonzero"
   d="m 0.688,-0.766 c 0.057,0 0.106,0.004 0.145,0.011 0.039,0.007 0.071,0.017 0.097,0.032 0.025,0.014 0.045,0.032 0.058,0.053 0.014,0.022 0.024,0.047 0.03,0.076 0.007,0.029 0.01,0.061 0.012,0.098 10e-4,0.036 10e-4,0.077 10e-4,0.121 0,0.044 0,0.085 -10e-4,0.121 C 1.028,-0.217 1.025,-0.185 1.018,-0.156 1.012,-0.127 1.002,-0.102 0.988,-0.08 0.975,-0.059 0.955,-0.041 0.93,-0.027 0.904,-0.012 0.872,-0.002 0.833,0.005 0.794,0.012 0.745,0.016 0.688,0.016 H 0.406 C 0.348,0.016 0.3,0.012 0.261,0.005 0.222,-0.002 0.189,-0.012 0.164,-0.027 0.139,-0.041 0.119,-0.059 0.105,-0.08 0.091,-0.102 0.081,-0.127 0.075,-0.156 0.069,-0.185 0.065,-0.217 0.064,-0.254 0.063,-0.29 0.063,-0.331 0.063,-0.375 c 0,-0.044 0,-0.085 0.001,-0.121 0.001,-0.037 0.005,-0.069 0.011,-0.098 0.006,-0.029 0.016,-0.054 0.03,-0.076 0.014,-0.021 0.034,-0.039 0.059,-0.053 0.025,-0.015 0.058,-0.025 0.097,-0.032 0.039,-0.007 0.087,-0.011 0.145,-0.011 z m 0,0.703 c 0.041,0 0.076,-0.001 0.105,-0.003 0.028,-0.003 0.052,-0.008 0.07,-0.015 0.019,-0.008 0.033,-0.018 0.043,-0.032 0.01,-0.014 0.018,-0.033 0.022,-0.056 0.005,-0.023 0.007,-0.051 0.008,-0.085 0.001,-0.034 0.002,-0.074 0.002,-0.121 0,-0.047 -10e-4,-0.087 -0.002,-0.121 C 0.935,-0.53 0.933,-0.558 0.928,-0.581 0.924,-0.604 0.916,-0.623 0.906,-0.637 0.896,-0.651 0.882,-0.661 0.864,-0.669 0.845,-0.676 0.822,-0.681 0.793,-0.684 0.765,-0.686 0.73,-0.688 0.688,-0.688 H 0.406 c -0.042,0 -0.077,0.002 -0.105,0.004 -0.029,0.003 -0.052,0.008 -0.071,0.015 -0.019,0.008 -0.033,0.018 -0.043,0.032 -0.01,0.014 -0.017,0.033 -0.022,0.056 -0.005,0.023 -0.007,0.051 -0.008,0.085 0,0.034 -0.001,0.074 -0.001,0.121 0,0.047 0.001,0.087 0.001,0.121 0.001,0.034 0.004,0.062 0.009,0.085 0.004,0.023 0.011,0.042 0.021,0.056 0.01,0.014 0.024,0.024 0.043,0.032 0.019,0.007 0.042,0.012 0.071,0.015 0.028,0.002 0.063,0.003 0.105,0.003 z" />
                    </g>
                    <g
   id="g3898"
   transform="matrix(93.54,0,0,93.54,5426.46,1334.2)">
                        <path
   inkscape:connector-curvature="0"
   id="path3896"
   style="fill:#e2e2e2;fill-rule:nonzero"
   d="M 0.188,0 H 0.094 v -0.75 h 0.164 l 0.688,0.656 V -0.75 H 1.04 V 0 H 0.915 L 0.188,-0.672 Z" />
                    </g>
                    <g
   id="g3902"
   transform="matrix(93.54,0,0,93.54,5532.47,1334.2)">
                        <path
   inkscape:connector-curvature="0"
   id="path3900"
   style="fill:#e2e2e2;fill-rule:nonzero"
   d="m 0.566,-0.422 c 0.052,0 0.096,0.002 0.133,0.006 0.037,0.005 0.068,0.011 0.093,0.019 0.025,0.009 0.045,0.019 0.06,0.031 0.015,0.013 0.027,0.027 0.035,0.043 0.008,0.015 0.013,0.033 0.016,0.052 0.002,0.02 0.003,0.041 0.003,0.064 0,0.023 -0.002,0.044 -0.006,0.064 -0.004,0.02 -0.011,0.039 -0.022,0.055 -0.01,0.017 -0.024,0.032 -0.042,0.045 C 0.818,-0.03 0.795,-0.019 0.768,-0.01 0.74,-0.001 0.707,0.006 0.668,0.01 0.629,0.015 0.583,0.018 0.531,0.018 H 0.406 C 0.359,0.018 0.318,0.016 0.283,0.012 0.248,0.009 0.218,0.003 0.192,-0.004 0.167,-0.011 0.146,-0.021 0.129,-0.032 0.113,-0.043 0.1,-0.056 0.09,-0.072 0.08,-0.087 0.073,-0.104 0.069,-0.123 0.065,-0.143 0.063,-0.164 0.063,-0.188 h 0.094 c 0,0.03 0.004,0.053 0.012,0.069 0.009,0.017 0.023,0.029 0.042,0.038 0.02,0.008 0.046,0.013 0.077,0.015 0.032,0.002 0.071,0.003 0.118,0.003 h 0.125 c 0.055,0 0.1,-0.002 0.136,-0.007 0.037,-0.006 0.065,-0.014 0.087,-0.025 0.021,-0.012 0.037,-0.027 0.045,-0.045 0.009,-0.018 0.014,-0.041 0.014,-0.067 0,-0.026 -0.004,-0.048 -0.01,-0.066 C 0.797,-0.291 0.786,-0.305 0.768,-0.315 0.75,-0.325 0.725,-0.333 0.693,-0.337 0.661,-0.342 0.618,-0.344 0.566,-0.344 H 0.438 C 0.38,-0.344 0.331,-0.346 0.29,-0.35 0.249,-0.354 0.215,-0.36 0.188,-0.368 0.16,-0.376 0.138,-0.386 0.121,-0.398 0.104,-0.41 0.092,-0.424 0.083,-0.439 0.075,-0.454 0.069,-0.471 0.066,-0.49 0.064,-0.509 0.063,-0.529 0.063,-0.551 c 0,-0.023 0.002,-0.044 0.006,-0.063 0.004,-0.02 0.011,-0.037 0.022,-0.053 0.011,-0.016 0.027,-0.03 0.046,-0.042 0.019,-0.013 0.044,-0.023 0.074,-0.031 0.03,-0.009 0.066,-0.015 0.108,-0.019 0.043,-0.005 0.092,-0.007 0.15,-0.007 h 0.094 c 0.046,0 0.087,0.002 0.123,0.006 0.035,0.003 0.065,0.008 0.09,0.016 0.026,0.007 0.047,0.016 0.064,0.027 0.016,0.011 0.03,0.024 0.04,0.039 0.01,0.015 0.016,0.032 0.02,0.052 0.004,0.019 0.006,0.04 0.006,0.063 H 0.813 C 0.813,-0.592 0.808,-0.615 0.8,-0.631 0.791,-0.648 0.777,-0.66 0.758,-0.669 0.738,-0.677 0.713,-0.682 0.681,-0.684 0.649,-0.686 0.609,-0.688 0.563,-0.688 H 0.469 c -0.063,0 -0.114,0.003 -0.155,0.007 -0.04,0.004 -0.072,0.012 -0.095,0.022 -0.024,0.011 -0.04,0.025 -0.049,0.042 -0.009,0.018 -0.014,0.04 -0.014,0.066 0,0.016 0.001,0.031 0.004,0.044 0.002,0.012 0.007,0.024 0.014,0.033 0.007,0.01 0.016,0.018 0.029,0.024 0.013,0.007 0.03,0.012 0.05,0.016 0.021,0.005 0.047,0.008 0.077,0.009 0.03,0.002 0.066,0.003 0.108,0.003 z" />
                    </g>
                </g></g>
            </g>
</svg>