<?xml version="1.0" encoding="UTF-8" standalone="no"?>
<!DOCTYPE svg PUBLIC "-//W3C//DTD SVG 1.1//EN" "http://www.w3.org/Graphics/SVG/1.1/DTD/svg11.dtd">
<svg width="100%" height="100%" viewBox="0 0 1485 591" version="1.1" xmlns="http://www.w3.org/2000/svg" xmlns:xlink="http://www.w3.org/1999/xlink" xml:space="preserve" xmlns:serif="http://www.serif.com/" style="fill-rule:evenodd;clip-rule:evenodd;stroke-linejoin:round;stroke-miterlimit:2;">
    <g transform="matrix(1,0,0,1,-4388.68,-1451.22)">
        <g id="Logo-Colorida-3" serif:id="Logo Colorida 3" transform="matrix(0.724616,0,0,0.384274,1275.73,1451.22)">
            <rect x="4296" y="0" width="2048" height="1536" style="fill:none;"/>
            <g transform="matrix(1.33743,0,0,1.05922,-1795.14,-205.24)">
                <g transform="matrix(-5.54874,4.85377e-15,2.03857e-15,13.2113,9411.28,-4388.56)">
                    <path d="M869.956,359.881C869.956,358.728 869.498,357.622 868.682,356.807C867.867,355.992 866.762,355.534 865.609,355.534L804.725,355.534C803.577,355.534 802.476,355.989 801.665,356.801C800.853,357.613 800.397,358.713 800.397,359.861L800.397,420.764C800.397,421.912 800.853,423.013 801.665,423.824C802.476,424.636 803.577,425.092 804.725,425.092L865.628,425.092C866.776,425.092 867.877,424.636 868.688,423.824C869.5,423.013 869.956,421.912 869.956,420.764L869.956,359.881Z" style="fill:rgb(66,162,103);"/>
                </g>
                <g transform="matrix(-5.54874,4.85377e-15,2.03857e-15,13.2113,9411.28,-4388.56)">
                    <path d="M804.553,425.092L865.8,425.092C868.23,424.851 869.715,423.366 869.956,420.936L869.956,372.064C856.311,397.892 830.64,416.373 800.397,420.042L800.397,420.936C800.397,422.039 800.835,423.095 801.615,423.875C802.394,424.654 803.451,425.092 804.553,425.092Z" style="fill:rgb(60,143,92);"/>
                </g>
                <g transform="matrix(-5.54874,4.85377e-15,2.03857e-15,13.2113,9411.28,-4388.56)">
                    <path d="M809.066,425.092L865.8,425.092C868.23,424.851 869.715,423.366 869.956,420.936L869.956,364.227C861.141,393.334 838.181,416.29 809.066,425.092Z" style="fill:rgb(232,117,85);"/>
                </g>
                <g transform="matrix(0,5.48996,2.30577,0,2467.27,-13399.2)">
                    <g transform="matrix(-0.132879,-0.132879,-0.63739,0.63739,2906.74,888.074)">
                        <path d="M869.956,355.534L800.397,364.219L800.397,425.092L869.956,355.534Z" style="fill:rgb(240,234,74);"/>
                    </g>
                    <g transform="matrix(0.132879,0.132879,0.63739,-0.63739,2224.15,1145.23)">
                        <path d="M869.956,355.534L800.397,364.219L800.397,425.092L869.956,355.534Z" style="fill:rgb(240,234,74);"/>
                    </g>
                </g>
                <g transform="matrix(1.6708,0,0,1.6708,-3067.61,-515.176)">
                    <g transform="matrix(1.05796,0,0,2.51897,1560.89,-421.463)">
                        <g transform="matrix(69.7925,0,0,69.7925,3108.84,416.585)">
                            <path d="M0.907,-0.516C0.907,-0.555 0.903,-0.586 0.894,-0.608C0.886,-0.631 0.872,-0.648 0.852,-0.66C0.833,-0.672 0.807,-0.679 0.775,-0.683C0.743,-0.686 0.704,-0.688 0.657,-0.688L0.406,-0.688C0.364,-0.688 0.329,-0.686 0.301,-0.684C0.272,-0.681 0.249,-0.676 0.23,-0.669C0.211,-0.661 0.197,-0.651 0.187,-0.637C0.177,-0.623 0.17,-0.604 0.165,-0.581C0.16,-0.558 0.158,-0.53 0.157,-0.496C0.157,-0.462 0.156,-0.422 0.156,-0.375C0.156,-0.328 0.157,-0.288 0.157,-0.254C0.158,-0.22 0.161,-0.192 0.166,-0.169C0.17,-0.146 0.177,-0.127 0.187,-0.113C0.197,-0.099 0.211,-0.089 0.23,-0.081C0.249,-0.074 0.272,-0.069 0.301,-0.066C0.329,-0.064 0.364,-0.063 0.406,-0.063L0.657,-0.063C0.694,-0.063 0.725,-0.063 0.751,-0.065C0.778,-0.067 0.8,-0.071 0.819,-0.076C0.837,-0.081 0.852,-0.089 0.864,-0.098C0.875,-0.107 0.884,-0.118 0.89,-0.132C0.897,-0.146 0.901,-0.163 0.903,-0.182C0.906,-0.201 0.907,-0.224 0.907,-0.25L0.907,-0.297L0.531,-0.297L0.531,-0.375L1,-0.375L1,-0.25C1,-0.219 0.999,-0.191 0.995,-0.165C0.991,-0.14 0.984,-0.118 0.974,-0.098C0.964,-0.078 0.951,-0.061 0.934,-0.047C0.917,-0.033 0.896,-0.021 0.871,-0.011C0.846,-0.002 0.815,0.005 0.78,0.009C0.745,0.013 0.704,0.016 0.657,0.016L0.406,0.016C0.348,0.016 0.3,0.012 0.261,0.005C0.222,-0.002 0.189,-0.012 0.164,-0.027C0.139,-0.041 0.119,-0.059 0.105,-0.08C0.091,-0.102 0.081,-0.127 0.075,-0.156C0.069,-0.185 0.065,-0.217 0.064,-0.254C0.063,-0.29 0.063,-0.331 0.063,-0.375C0.063,-0.419 0.063,-0.46 0.064,-0.496C0.065,-0.533 0.069,-0.565 0.075,-0.594C0.081,-0.623 0.091,-0.648 0.105,-0.67C0.119,-0.691 0.139,-0.709 0.164,-0.723C0.189,-0.738 0.222,-0.748 0.261,-0.755C0.3,-0.762 0.348,-0.766 0.406,-0.766L0.657,-0.766C0.704,-0.766 0.745,-0.763 0.78,-0.759C0.815,-0.755 0.845,-0.748 0.871,-0.739C0.896,-0.73 0.917,-0.719 0.934,-0.705C0.951,-0.691 0.964,-0.675 0.974,-0.657C0.984,-0.638 0.991,-0.617 0.995,-0.594C0.999,-0.57 1,-0.544 1,-0.516L0.907,-0.516Z" style="fill:rgb(60,143,92);fill-rule:nonzero;"/>
                        </g>
                        <g transform="matrix(69.7925,0,0,69.7925,3183.03,416.585)">
                            <path d="M0.094,0L0.094,-0.75L0.719,-0.75C0.766,-0.75 0.804,-0.746 0.833,-0.739C0.861,-0.731 0.883,-0.72 0.899,-0.705C0.914,-0.69 0.924,-0.672 0.93,-0.649C0.935,-0.627 0.938,-0.602 0.938,-0.573C0.938,-0.552 0.936,-0.534 0.932,-0.518C0.929,-0.502 0.924,-0.488 0.918,-0.477C0.912,-0.465 0.905,-0.455 0.898,-0.447C0.89,-0.439 0.883,-0.432 0.875,-0.427C0.857,-0.415 0.836,-0.408 0.813,-0.406C0.842,-0.405 0.868,-0.397 0.891,-0.385C0.9,-0.379 0.91,-0.372 0.919,-0.364C0.928,-0.356 0.937,-0.345 0.944,-0.333C0.951,-0.321 0.957,-0.307 0.962,-0.29C0.966,-0.274 0.969,-0.255 0.969,-0.233C0.969,-0.207 0.968,-0.184 0.965,-0.162C0.963,-0.14 0.958,-0.121 0.95,-0.104C0.943,-0.086 0.932,-0.071 0.918,-0.058C0.904,-0.045 0.885,-0.034 0.862,-0.026C0.839,-0.017 0.81,-0.011 0.777,-0.006C0.743,-0.002 0.703,0 0.656,0L0.094,0ZM0.625,-0.078C0.661,-0.078 0.693,-0.079 0.719,-0.08C0.746,-0.081 0.769,-0.083 0.787,-0.087C0.806,-0.091 0.821,-0.096 0.832,-0.103C0.843,-0.11 0.852,-0.12 0.859,-0.131C0.865,-0.143 0.869,-0.157 0.872,-0.173C0.874,-0.19 0.875,-0.21 0.875,-0.233C0.875,-0.252 0.874,-0.267 0.872,-0.281C0.869,-0.295 0.865,-0.306 0.859,-0.315C0.852,-0.324 0.843,-0.332 0.832,-0.338C0.821,-0.343 0.806,-0.348 0.787,-0.351C0.769,-0.354 0.746,-0.357 0.719,-0.358C0.693,-0.359 0.661,-0.359 0.625,-0.359L0.188,-0.359L0.188,-0.078L0.625,-0.078ZM0.625,-0.438C0.656,-0.438 0.684,-0.438 0.707,-0.439C0.73,-0.441 0.75,-0.443 0.766,-0.447C0.782,-0.45 0.796,-0.455 0.806,-0.462C0.816,-0.468 0.824,-0.476 0.829,-0.486C0.835,-0.496 0.839,-0.509 0.841,-0.523C0.843,-0.537 0.844,-0.554 0.844,-0.573C0.844,-0.594 0.841,-0.611 0.837,-0.624C0.832,-0.637 0.824,-0.647 0.813,-0.654C0.801,-0.661 0.785,-0.666 0.765,-0.668C0.745,-0.671 0.719,-0.672 0.688,-0.672L0.188,-0.672L0.188,-0.438L0.625,-0.438Z" style="fill:rgb(60,143,92);fill-rule:nonzero;"/>
                        </g>
                    </g>
                    <g transform="matrix(1.05796,0,0,2.51897,1558.58,-391.246)">
                        <g transform="matrix(69.7925,0,0,69.7925,3108.84,486.378)">
                            <path d="M0.094,0L0.094,-0.75L0.844,-0.75L0.844,-0.672L0.188,-0.672L0.188,-0.422L0.813,-0.422L0.813,-0.344L0.188,-0.344L0.188,-0.078L0.844,-0.078L0.844,0L0.094,0Z" style="fill:rgb(60,143,92);fill-rule:nonzero;"/>
                        </g>
                        <g transform="matrix(69.7925,0,0,69.7925,3169.91,486.378)">
                            <path d="M0.188,0L0.094,0L0.094,-0.75L0.258,-0.75L0.946,-0.094L0.946,-0.75L1.04,-0.75L1.04,0L0.915,0L0.188,-0.672L0.188,0Z" style="fill:rgb(60,143,92);fill-rule:nonzero;"/>
                        </g>
                        <g transform="matrix(69.7925,0,0,69.7925,3249.01,486.378)">
                            <path d="M0.094,0L0.094,-0.75L0.844,-0.75L0.844,-0.672L0.188,-0.672L0.188,-0.422L0.813,-0.422L0.813,-0.344L0.188,-0.344L0.188,-0.078L0.844,-0.078L0.844,0L0.094,0Z" style="fill:rgb(60,143,92);fill-rule:nonzero;"/>
                        </g>
                        <g transform="matrix(69.7925,0,0,69.7925,3310.08,486.378)">
                            <path d="M0.953,0L0.859,0L0.859,-0.141C0.859,-0.163 0.859,-0.183 0.858,-0.199C0.857,-0.216 0.855,-0.23 0.85,-0.242C0.845,-0.253 0.838,-0.263 0.828,-0.27C0.818,-0.277 0.803,-0.283 0.785,-0.287C0.766,-0.291 0.743,-0.293 0.714,-0.295C0.686,-0.296 0.651,-0.297 0.609,-0.297L0.188,-0.297L0.188,0L0.094,0L0.094,-0.75L0.625,-0.75C0.682,-0.75 0.73,-0.748 0.769,-0.744C0.809,-0.74 0.841,-0.734 0.866,-0.726C0.892,-0.717 0.912,-0.707 0.926,-0.695C0.939,-0.683 0.949,-0.669 0.956,-0.653C0.962,-0.637 0.966,-0.618 0.967,-0.598C0.968,-0.578 0.969,-0.556 0.969,-0.531C0.969,-0.5 0.967,-0.473 0.962,-0.449C0.958,-0.425 0.95,-0.405 0.94,-0.389C0.93,-0.372 0.916,-0.359 0.898,-0.349C0.881,-0.339 0.86,-0.332 0.833,-0.328C0.86,-0.324 0.88,-0.317 0.896,-0.308C0.912,-0.298 0.924,-0.285 0.932,-0.27C0.941,-0.254 0.946,-0.235 0.949,-0.214C0.952,-0.192 0.953,-0.168 0.953,-0.141L0.953,0ZM0.188,-0.375L0.625,-0.375C0.666,-0.375 0.701,-0.376 0.73,-0.377C0.758,-0.379 0.782,-0.381 0.8,-0.385C0.819,-0.389 0.833,-0.395 0.843,-0.402C0.853,-0.409 0.861,-0.418 0.865,-0.43C0.87,-0.442 0.873,-0.456 0.874,-0.472C0.875,-0.489 0.875,-0.508 0.875,-0.531C0.875,-0.552 0.875,-0.571 0.874,-0.586C0.873,-0.601 0.87,-0.614 0.865,-0.625C0.861,-0.635 0.853,-0.643 0.843,-0.649C0.833,-0.656 0.819,-0.66 0.8,-0.664C0.782,-0.667 0.758,-0.669 0.73,-0.67C0.701,-0.671 0.666,-0.672 0.625,-0.672L0.188,-0.672L0.188,-0.375Z" style="fill:rgb(60,143,92);fill-rule:nonzero;"/>
                        </g>
                        <g transform="matrix(69.7925,0,0,69.7925,3382.05,486.378)">
                            <path d="M0.907,-0.516C0.907,-0.555 0.903,-0.586 0.894,-0.608C0.886,-0.631 0.872,-0.648 0.852,-0.66C0.833,-0.672 0.807,-0.679 0.775,-0.683C0.743,-0.686 0.704,-0.688 0.657,-0.688L0.406,-0.688C0.364,-0.688 0.329,-0.686 0.301,-0.684C0.272,-0.681 0.249,-0.676 0.23,-0.669C0.211,-0.661 0.197,-0.651 0.187,-0.637C0.177,-0.623 0.17,-0.604 0.165,-0.581C0.16,-0.558 0.158,-0.53 0.157,-0.496C0.157,-0.462 0.156,-0.422 0.156,-0.375C0.156,-0.328 0.157,-0.288 0.157,-0.254C0.158,-0.22 0.161,-0.192 0.166,-0.169C0.17,-0.146 0.177,-0.127 0.187,-0.113C0.197,-0.099 0.211,-0.089 0.23,-0.081C0.249,-0.074 0.272,-0.069 0.301,-0.066C0.329,-0.064 0.364,-0.063 0.406,-0.063L0.657,-0.063C0.694,-0.063 0.725,-0.063 0.751,-0.065C0.778,-0.067 0.8,-0.071 0.819,-0.076C0.837,-0.081 0.852,-0.089 0.864,-0.098C0.875,-0.107 0.884,-0.118 0.89,-0.132C0.897,-0.146 0.901,-0.163 0.903,-0.182C0.906,-0.201 0.907,-0.224 0.907,-0.25L0.907,-0.297L0.531,-0.297L0.531,-0.375L1,-0.375L1,-0.25C1,-0.219 0.999,-0.191 0.995,-0.165C0.991,-0.14 0.984,-0.118 0.974,-0.098C0.964,-0.078 0.951,-0.061 0.934,-0.047C0.917,-0.033 0.896,-0.021 0.871,-0.011C0.846,-0.002 0.815,0.005 0.78,0.009C0.745,0.013 0.704,0.016 0.657,0.016L0.406,0.016C0.348,0.016 0.3,0.012 0.261,0.005C0.222,-0.002 0.189,-0.012 0.164,-0.027C0.139,-0.041 0.119,-0.059 0.105,-0.08C0.091,-0.102 0.081,-0.127 0.075,-0.156C0.069,-0.185 0.065,-0.217 0.064,-0.254C0.063,-0.29 0.063,-0.331 0.063,-0.375C0.063,-0.419 0.063,-0.46 0.064,-0.496C0.065,-0.533 0.069,-0.565 0.075,-0.594C0.081,-0.623 0.091,-0.648 0.105,-0.67C0.119,-0.691 0.139,-0.709 0.164,-0.723C0.189,-0.738 0.222,-0.748 0.261,-0.755C0.3,-0.762 0.348,-0.766 0.406,-0.766L0.657,-0.766C0.704,-0.766 0.745,-0.763 0.78,-0.759C0.815,-0.755 0.845,-0.748 0.871,-0.739C0.896,-0.73 0.917,-0.719 0.934,-0.705C0.951,-0.691 0.964,-0.675 0.974,-0.657C0.984,-0.638 0.991,-0.617 0.995,-0.594C0.999,-0.57 1,-0.544 1,-0.516L0.907,-0.516Z" style="fill:rgb(60,143,92);fill-rule:nonzero;"/>
                        </g>
                        <g transform="matrix(69.7925,0,0,69.7925,3456.24,486.378)">
                            <path d="M0.063,-0.75L0.188,-0.75L0.531,-0.383L0.875,-0.75L1,-0.75L0.578,-0.313L0.578,0L0.484,0L0.484,-0.313L0.063,-0.75Z" style="fill:rgb(60,143,92);fill-rule:nonzero;"/>
                        </g>
                    </g>
                    <g transform="matrix(1.05533,0,0,2.51269,1569.11,-182.504)">
                        <g transform="matrix(69.7925,0,0,69.7925,3108.84,486.378)">
                            <path d="M0.566,-0.422C0.618,-0.422 0.662,-0.42 0.699,-0.416C0.736,-0.411 0.767,-0.405 0.792,-0.397C0.817,-0.388 0.837,-0.378 0.852,-0.365C0.867,-0.353 0.879,-0.339 0.887,-0.323C0.895,-0.307 0.9,-0.289 0.903,-0.27C0.905,-0.25 0.906,-0.229 0.906,-0.206C0.906,-0.183 0.904,-0.162 0.9,-0.142C0.896,-0.122 0.889,-0.104 0.878,-0.087C0.868,-0.071 0.854,-0.056 0.836,-0.043C0.818,-0.03 0.795,-0.019 0.768,-0.01C0.74,-0.001 0.707,0.006 0.668,0.011C0.629,0.015 0.583,0.018 0.531,0.018L0.406,0.018C0.359,0.018 0.318,0.016 0.283,0.012C0.248,0.009 0.218,0.003 0.192,-0.004C0.167,-0.011 0.146,-0.021 0.129,-0.032C0.113,-0.043 0.1,-0.056 0.09,-0.072C0.08,-0.087 0.073,-0.104 0.069,-0.123C0.065,-0.143 0.063,-0.164 0.063,-0.188L0.157,-0.188C0.157,-0.158 0.161,-0.134 0.169,-0.118C0.178,-0.101 0.192,-0.088 0.211,-0.08C0.231,-0.071 0.257,-0.066 0.288,-0.064C0.32,-0.062 0.359,-0.061 0.406,-0.061L0.531,-0.061C0.586,-0.061 0.631,-0.063 0.667,-0.068C0.704,-0.074 0.732,-0.082 0.754,-0.093C0.775,-0.105 0.791,-0.12 0.799,-0.138C0.808,-0.157 0.813,-0.18 0.813,-0.206C0.813,-0.233 0.809,-0.255 0.803,-0.272C0.797,-0.29 0.786,-0.304 0.768,-0.315C0.75,-0.325 0.725,-0.333 0.693,-0.337C0.661,-0.342 0.618,-0.344 0.566,-0.344L0.438,-0.344C0.38,-0.344 0.331,-0.346 0.29,-0.35C0.249,-0.354 0.215,-0.36 0.188,-0.368C0.16,-0.376 0.138,-0.386 0.121,-0.398C0.104,-0.41 0.092,-0.424 0.083,-0.439C0.075,-0.454 0.069,-0.471 0.066,-0.49C0.064,-0.509 0.063,-0.529 0.063,-0.551C0.063,-0.574 0.065,-0.595 0.069,-0.614C0.073,-0.634 0.08,-0.651 0.091,-0.667C0.102,-0.683 0.118,-0.697 0.137,-0.709C0.156,-0.722 0.181,-0.732 0.211,-0.74C0.241,-0.749 0.277,-0.755 0.319,-0.759C0.362,-0.764 0.411,-0.766 0.469,-0.766L0.563,-0.766C0.609,-0.766 0.65,-0.764 0.686,-0.76C0.721,-0.757 0.751,-0.752 0.776,-0.744C0.802,-0.737 0.823,-0.728 0.84,-0.717C0.856,-0.706 0.87,-0.693 0.88,-0.678C0.89,-0.663 0.896,-0.646 0.9,-0.626C0.904,-0.607 0.906,-0.586 0.906,-0.563L0.813,-0.563C0.813,-0.592 0.808,-0.615 0.8,-0.631C0.791,-0.648 0.777,-0.66 0.758,-0.669C0.738,-0.677 0.713,-0.682 0.681,-0.684C0.649,-0.686 0.609,-0.688 0.563,-0.688L0.469,-0.688C0.406,-0.688 0.355,-0.685 0.314,-0.681C0.274,-0.677 0.242,-0.669 0.219,-0.659C0.195,-0.648 0.179,-0.634 0.17,-0.617C0.161,-0.599 0.156,-0.577 0.156,-0.551C0.156,-0.535 0.157,-0.52 0.16,-0.507C0.162,-0.495 0.167,-0.483 0.174,-0.474C0.181,-0.464 0.19,-0.456 0.203,-0.45C0.216,-0.443 0.233,-0.438 0.253,-0.434C0.274,-0.429 0.3,-0.426 0.33,-0.425C0.36,-0.423 0.396,-0.422 0.438,-0.422L0.566,-0.422Z" style="fill:rgb(60,143,92);fill-rule:nonzero;"/>
                        </g>
                        <g transform="matrix(69.7925,0,0,69.7925,3176.46,486.378)">
                            <path d="M0.688,-0.766C0.745,-0.766 0.794,-0.762 0.833,-0.755C0.872,-0.748 0.904,-0.738 0.93,-0.723C0.955,-0.709 0.975,-0.691 0.988,-0.67C1.002,-0.648 1.012,-0.623 1.018,-0.594C1.025,-0.565 1.028,-0.533 1.03,-0.496C1.031,-0.46 1.031,-0.419 1.031,-0.375C1.031,-0.331 1.031,-0.29 1.03,-0.254C1.028,-0.217 1.025,-0.185 1.018,-0.156C1.012,-0.127 1.002,-0.102 0.988,-0.08C0.975,-0.059 0.955,-0.041 0.93,-0.027C0.904,-0.012 0.872,-0.002 0.833,0.005C0.794,0.012 0.745,0.016 0.688,0.016L0.406,0.016C0.348,0.016 0.3,0.012 0.261,0.005C0.222,-0.002 0.189,-0.012 0.164,-0.027C0.139,-0.041 0.119,-0.059 0.105,-0.08C0.091,-0.102 0.081,-0.127 0.075,-0.156C0.069,-0.185 0.065,-0.217 0.064,-0.254C0.063,-0.29 0.063,-0.331 0.063,-0.375C0.063,-0.419 0.063,-0.46 0.064,-0.496C0.065,-0.533 0.069,-0.565 0.075,-0.594C0.081,-0.623 0.091,-0.648 0.105,-0.67C0.119,-0.691 0.139,-0.709 0.164,-0.723C0.189,-0.738 0.222,-0.748 0.261,-0.755C0.3,-0.762 0.348,-0.766 0.406,-0.766L0.688,-0.766ZM0.688,-0.063C0.729,-0.063 0.764,-0.064 0.793,-0.066C0.821,-0.069 0.845,-0.074 0.863,-0.081C0.882,-0.089 0.896,-0.099 0.906,-0.113C0.916,-0.127 0.924,-0.146 0.928,-0.169C0.933,-0.192 0.935,-0.22 0.936,-0.254C0.937,-0.288 0.938,-0.328 0.938,-0.375C0.938,-0.422 0.937,-0.462 0.936,-0.496C0.935,-0.53 0.933,-0.558 0.928,-0.581C0.924,-0.604 0.916,-0.623 0.906,-0.637C0.896,-0.651 0.882,-0.661 0.864,-0.669C0.845,-0.676 0.822,-0.681 0.793,-0.684C0.765,-0.686 0.73,-0.688 0.688,-0.688L0.406,-0.688C0.364,-0.688 0.329,-0.686 0.301,-0.684C0.272,-0.681 0.249,-0.676 0.23,-0.669C0.211,-0.661 0.197,-0.651 0.187,-0.637C0.177,-0.623 0.17,-0.604 0.165,-0.581C0.16,-0.558 0.158,-0.53 0.157,-0.496C0.157,-0.462 0.156,-0.422 0.156,-0.375C0.156,-0.328 0.157,-0.288 0.157,-0.254C0.158,-0.22 0.161,-0.192 0.166,-0.169C0.17,-0.146 0.177,-0.127 0.187,-0.113C0.197,-0.099 0.211,-0.089 0.23,-0.081C0.249,-0.074 0.272,-0.069 0.301,-0.066C0.329,-0.064 0.364,-0.063 0.406,-0.063L0.688,-0.063Z" style="fill:rgb(60,143,92);fill-rule:nonzero;"/>
                        </g>
                        <g transform="matrix(69.7925,0,0,69.7925,3252.79,486.378)">
                            <path d="M0.094,0L0.094,-0.75L0.188,-0.75L0.188,-0.078L0.781,-0.078L0.781,0L0.094,0Z" style="fill:rgb(60,143,92);fill-rule:nonzero;"/>
                        </g>
                        <g transform="matrix(69.7925,0,0,69.7925,3309.5,486.378)">
                            <path d="M0.969,-0.75L0.969,-0.375C0.969,-0.331 0.969,-0.29 0.968,-0.254C0.966,-0.217 0.963,-0.185 0.956,-0.156C0.95,-0.127 0.94,-0.102 0.926,-0.08C0.913,-0.059 0.893,-0.041 0.868,-0.027C0.842,-0.012 0.81,-0.002 0.771,0.005C0.732,0.012 0.683,0.016 0.626,0.016L0.406,0.016C0.349,0.016 0.301,0.012 0.261,0.005C0.222,-0.002 0.19,-0.012 0.165,-0.027C0.139,-0.041 0.12,-0.059 0.106,-0.08C0.092,-0.102 0.082,-0.127 0.075,-0.156C0.069,-0.185 0.065,-0.217 0.064,-0.254C0.063,-0.29 0.063,-0.331 0.063,-0.375L0.063,-0.75L0.157,-0.75L0.157,-0.375C0.157,-0.328 0.157,-0.288 0.158,-0.254C0.159,-0.22 0.161,-0.192 0.166,-0.169C0.171,-0.146 0.178,-0.127 0.188,-0.113C0.198,-0.099 0.212,-0.089 0.23,-0.081C0.249,-0.074 0.273,-0.069 0.301,-0.066C0.33,-0.064 0.365,-0.063 0.406,-0.063L0.626,-0.063C0.667,-0.063 0.702,-0.064 0.731,-0.066C0.76,-0.069 0.783,-0.074 0.802,-0.081C0.82,-0.089 0.834,-0.099 0.844,-0.113C0.854,-0.127 0.862,-0.146 0.866,-0.169C0.871,-0.192 0.874,-0.22 0.875,-0.254C0.875,-0.288 0.875,-0.328 0.875,-0.375L0.875,-0.75L0.969,-0.75Z" style="fill:rgb(60,143,92);fill-rule:nonzero;"/>
                        </g>
                        <g transform="matrix(69.7925,0,0,69.7925,3381.51,486.378)">
                            <path d="M0.906,-0.75L0.906,-0.672L0.531,-0.672L0.531,0L0.438,0L0.438,-0.672L0.063,-0.672L0.063,-0.75L0.906,-0.75Z" style="fill:rgb(60,143,92);fill-rule:nonzero;"/>
                        </g>
                        <g transform="matrix(69.7925,0,0,69.7925,3449.12,486.378)">
                            <rect x="0.094" y="-0.75" width="0.094" height="0.75" style="fill:rgb(60,143,92);fill-rule:nonzero;"/>
                        </g>
                        <g transform="matrix(69.7925,0,0,69.7925,3468.75,486.378)">
                            <path d="M0.688,-0.766C0.745,-0.766 0.794,-0.762 0.833,-0.755C0.872,-0.748 0.904,-0.738 0.93,-0.723C0.955,-0.709 0.975,-0.691 0.988,-0.67C1.002,-0.648 1.012,-0.623 1.018,-0.594C1.025,-0.565 1.028,-0.533 1.03,-0.496C1.031,-0.46 1.031,-0.419 1.031,-0.375C1.031,-0.331 1.031,-0.29 1.03,-0.254C1.028,-0.217 1.025,-0.185 1.018,-0.156C1.012,-0.127 1.002,-0.102 0.988,-0.08C0.975,-0.059 0.955,-0.041 0.93,-0.027C0.904,-0.012 0.872,-0.002 0.833,0.005C0.794,0.012 0.745,0.016 0.688,0.016L0.406,0.016C0.348,0.016 0.3,0.012 0.261,0.005C0.222,-0.002 0.189,-0.012 0.164,-0.027C0.139,-0.041 0.119,-0.059 0.105,-0.08C0.091,-0.102 0.081,-0.127 0.075,-0.156C0.069,-0.185 0.065,-0.217 0.064,-0.254C0.063,-0.29 0.063,-0.331 0.063,-0.375C0.063,-0.419 0.063,-0.46 0.064,-0.496C0.065,-0.533 0.069,-0.565 0.075,-0.594C0.081,-0.623 0.091,-0.648 0.105,-0.67C0.119,-0.691 0.139,-0.709 0.164,-0.723C0.189,-0.738 0.222,-0.748 0.261,-0.755C0.3,-0.762 0.348,-0.766 0.406,-0.766L0.688,-0.766ZM0.688,-0.063C0.729,-0.063 0.764,-0.064 0.793,-0.066C0.821,-0.069 0.845,-0.074 0.863,-0.081C0.882,-0.089 0.896,-0.099 0.906,-0.113C0.916,-0.127 0.924,-0.146 0.928,-0.169C0.933,-0.192 0.935,-0.22 0.936,-0.254C0.937,-0.288 0.938,-0.328 0.938,-0.375C0.938,-0.422 0.937,-0.462 0.936,-0.496C0.935,-0.53 0.933,-0.558 0.928,-0.581C0.924,-0.604 0.916,-0.623 0.906,-0.637C0.896,-0.651 0.882,-0.661 0.864,-0.669C0.845,-0.676 0.822,-0.681 0.793,-0.684C0.765,-0.686 0.73,-0.688 0.688,-0.688L0.406,-0.688C0.364,-0.688 0.329,-0.686 0.301,-0.684C0.272,-0.681 0.249,-0.676 0.23,-0.669C0.211,-0.661 0.197,-0.651 0.187,-0.637C0.177,-0.623 0.17,-0.604 0.165,-0.581C0.16,-0.558 0.158,-0.53 0.157,-0.496C0.157,-0.462 0.156,-0.422 0.156,-0.375C0.156,-0.328 0.157,-0.288 0.157,-0.254C0.158,-0.22 0.161,-0.192 0.166,-0.169C0.17,-0.146 0.177,-0.127 0.187,-0.113C0.197,-0.099 0.211,-0.089 0.23,-0.081C0.249,-0.074 0.272,-0.069 0.301,-0.066C0.329,-0.064 0.364,-0.063 0.406,-0.063L0.688,-0.063Z" style="fill:rgb(60,143,92);fill-rule:nonzero;"/>
                        </g>
                        <g transform="matrix(69.7925,0,0,69.7925,3545.08,486.378)">
                            <path d="M0.188,0L0.094,0L0.094,-0.75L0.258,-0.75L0.946,-0.094L0.946,-0.75L1.04,-0.75L1.04,0L0.915,0L0.188,-0.672L0.188,0Z" style="fill:rgb(60,143,92);fill-rule:nonzero;"/>
                        </g>
                        <g transform="matrix(69.7925,0,0,69.7925,3624.18,486.378)">
                            <path d="M0.566,-0.422C0.618,-0.422 0.662,-0.42 0.699,-0.416C0.736,-0.411 0.767,-0.405 0.792,-0.397C0.817,-0.388 0.837,-0.378 0.852,-0.365C0.867,-0.353 0.879,-0.339 0.887,-0.323C0.895,-0.307 0.9,-0.289 0.903,-0.27C0.905,-0.25 0.906,-0.229 0.906,-0.206C0.906,-0.183 0.904,-0.162 0.9,-0.142C0.896,-0.122 0.889,-0.104 0.878,-0.087C0.868,-0.071 0.854,-0.056 0.836,-0.043C0.818,-0.03 0.795,-0.019 0.768,-0.01C0.74,-0.001 0.707,0.006 0.668,0.011C0.629,0.015 0.583,0.018 0.531,0.018L0.406,0.018C0.359,0.018 0.318,0.016 0.283,0.012C0.248,0.009 0.218,0.003 0.192,-0.004C0.167,-0.011 0.146,-0.021 0.129,-0.032C0.113,-0.043 0.1,-0.056 0.09,-0.072C0.08,-0.087 0.073,-0.104 0.069,-0.123C0.065,-0.143 0.063,-0.164 0.063,-0.188L0.157,-0.188C0.157,-0.158 0.161,-0.134 0.169,-0.118C0.178,-0.101 0.192,-0.088 0.211,-0.08C0.231,-0.071 0.257,-0.066 0.288,-0.064C0.32,-0.062 0.359,-0.061 0.406,-0.061L0.531,-0.061C0.586,-0.061 0.631,-0.063 0.667,-0.068C0.704,-0.074 0.732,-0.082 0.754,-0.093C0.775,-0.105 0.791,-0.12 0.799,-0.138C0.808,-0.157 0.813,-0.18 0.813,-0.206C0.813,-0.233 0.809,-0.255 0.803,-0.272C0.797,-0.29 0.786,-0.304 0.768,-0.315C0.75,-0.325 0.725,-0.333 0.693,-0.337C0.661,-0.342 0.618,-0.344 0.566,-0.344L0.438,-0.344C0.38,-0.344 0.331,-0.346 0.29,-0.35C0.249,-0.354 0.215,-0.36 0.188,-0.368C0.16,-0.376 0.138,-0.386 0.121,-0.398C0.104,-0.41 0.092,-0.424 0.083,-0.439C0.075,-0.454 0.069,-0.471 0.066,-0.49C0.064,-0.509 0.063,-0.529 0.063,-0.551C0.063,-0.574 0.065,-0.595 0.069,-0.614C0.073,-0.634 0.08,-0.651 0.091,-0.667C0.102,-0.683 0.118,-0.697 0.137,-0.709C0.156,-0.722 0.181,-0.732 0.211,-0.74C0.241,-0.749 0.277,-0.755 0.319,-0.759C0.362,-0.764 0.411,-0.766 0.469,-0.766L0.563,-0.766C0.609,-0.766 0.65,-0.764 0.686,-0.76C0.721,-0.757 0.751,-0.752 0.776,-0.744C0.802,-0.737 0.823,-0.728 0.84,-0.717C0.856,-0.706 0.87,-0.693 0.88,-0.678C0.89,-0.663 0.896,-0.646 0.9,-0.626C0.904,-0.607 0.906,-0.586 0.906,-0.563L0.813,-0.563C0.813,-0.592 0.808,-0.615 0.8,-0.631C0.791,-0.648 0.777,-0.66 0.758,-0.669C0.738,-0.677 0.713,-0.682 0.681,-0.684C0.649,-0.686 0.609,-0.688 0.563,-0.688L0.469,-0.688C0.406,-0.688 0.355,-0.685 0.314,-0.681C0.274,-0.677 0.242,-0.669 0.219,-0.659C0.195,-0.648 0.179,-0.634 0.17,-0.617C0.161,-0.599 0.156,-0.577 0.156,-0.551C0.156,-0.535 0.157,-0.52 0.16,-0.507C0.162,-0.495 0.167,-0.483 0.174,-0.474C0.181,-0.464 0.19,-0.456 0.203,-0.45C0.216,-0.443 0.233,-0.438 0.253,-0.434C0.274,-0.429 0.3,-0.426 0.33,-0.425C0.36,-0.423 0.396,-0.422 0.438,-0.422L0.566,-0.422Z" style="fill:rgb(60,143,92);fill-rule:nonzero;"/>
                        </g>
                    </g>
                </g>
            </g>
            <g transform="matrix(4.48296,0,0,3.95926,-9748.73,-4264.77)">
                <g transform="matrix(0.761694,3.14418e-34,-1.47262e-34,1.62629,942.71,-3130.69)">
                    <g transform="matrix(30,0,0,30,2884.59,2797.25)">
                        <path d="M0.436,-0.035C0.436,-0.029 0.435,-0.024 0.435,-0.019C0.434,-0.015 0.433,-0.011 0.431,-0.008C0.43,-0.005 0.428,-0.003 0.426,-0.002C0.423,-0.001 0.421,0 0.418,0L0.115,0C0.108,0 0.101,-0.003 0.094,-0.008C0.087,-0.013 0.084,-0.021 0.084,-0.034L0.084,-0.598C0.084,-0.61 0.087,-0.619 0.094,-0.624C0.101,-0.629 0.108,-0.632 0.115,-0.632L0.415,-0.632C0.418,-0.632 0.42,-0.631 0.422,-0.63C0.424,-0.629 0.426,-0.626 0.427,-0.624C0.429,-0.621 0.43,-0.617 0.43,-0.613C0.431,-0.608 0.432,-0.603 0.432,-0.596C0.432,-0.59 0.431,-0.585 0.43,-0.581C0.43,-0.576 0.429,-0.573 0.427,-0.57C0.426,-0.567 0.424,-0.565 0.422,-0.564C0.42,-0.563 0.418,-0.562 0.415,-0.562L0.168,-0.562L0.168,-0.364L0.38,-0.364C0.382,-0.364 0.385,-0.363 0.387,-0.362C0.389,-0.36 0.391,-0.358 0.392,-0.355C0.394,-0.353 0.395,-0.349 0.396,-0.345C0.396,-0.34 0.396,-0.335 0.396,-0.329C0.396,-0.323 0.396,-0.318 0.396,-0.313C0.395,-0.309 0.394,-0.306 0.392,-0.303C0.391,-0.301 0.389,-0.299 0.387,-0.298C0.385,-0.296 0.382,-0.296 0.38,-0.296L0.168,-0.296L0.168,-0.07L0.418,-0.07C0.421,-0.07 0.423,-0.069 0.426,-0.068C0.428,-0.067 0.43,-0.065 0.431,-0.062C0.433,-0.059 0.434,-0.055 0.435,-0.051C0.435,-0.047 0.436,-0.041 0.436,-0.035Z" style="fill:rgb(232,117,85);fill-rule:nonzero;"/>
                    </g>
                    <g transform="matrix(30,0,0,30,2899.23,2797.25)">
                        <path d="M0.453,-0.012C0.453,-0.01 0.452,-0.007 0.451,-0.006C0.45,-0.004 0.448,-0.002 0.445,-0.001C0.442,0 0.438,0.001 0.433,0.002C0.427,0.003 0.421,0.003 0.413,0.003C0.405,0.003 0.398,0.003 0.393,0.002C0.388,0.001 0.384,0 0.381,-0.001C0.378,-0.002 0.376,-0.004 0.375,-0.006C0.373,-0.007 0.373,-0.01 0.373,-0.012L0.373,-0.27C0.373,-0.295 0.371,-0.315 0.367,-0.33C0.363,-0.345 0.357,-0.359 0.35,-0.37C0.342,-0.381 0.332,-0.389 0.321,-0.395C0.309,-0.401 0.295,-0.404 0.279,-0.404C0.259,-0.404 0.239,-0.397 0.219,-0.382C0.199,-0.368 0.177,-0.347 0.155,-0.319L0.155,-0.012C0.155,-0.01 0.155,-0.007 0.153,-0.006C0.152,-0.004 0.15,-0.002 0.147,-0.001C0.144,0 0.14,0.001 0.135,0.002C0.13,0.003 0.123,0.003 0.115,0.003C0.107,0.003 0.1,0.003 0.095,0.002C0.09,0.001 0.086,0 0.083,-0.001C0.08,-0.002 0.078,-0.004 0.076,-0.006C0.075,-0.007 0.075,-0.01 0.075,-0.012L0.075,-0.452C0.075,-0.454 0.075,-0.456 0.076,-0.458C0.077,-0.46 0.079,-0.462 0.082,-0.463C0.085,-0.465 0.089,-0.466 0.093,-0.466C0.098,-0.467 0.104,-0.467 0.111,-0.467C0.118,-0.467 0.124,-0.467 0.129,-0.466C0.134,-0.466 0.138,-0.465 0.14,-0.463C0.143,-0.462 0.145,-0.46 0.146,-0.458C0.147,-0.456 0.147,-0.454 0.147,-0.452L0.147,-0.394C0.172,-0.421 0.197,-0.441 0.221,-0.454C0.246,-0.467 0.271,-0.474 0.296,-0.474C0.325,-0.474 0.35,-0.469 0.37,-0.459C0.39,-0.449 0.406,-0.436 0.418,-0.419C0.431,-0.402 0.44,-0.383 0.445,-0.361C0.45,-0.338 0.453,-0.312 0.453,-0.28L0.453,-0.012Z" style="fill:rgb(232,117,85);fill-rule:nonzero;"/>
                    </g>
                    <g transform="matrix(30,0,0,30,2915,2797.25)">
                        <path d="M0.45,-0.251C0.45,-0.238 0.447,-0.229 0.44,-0.224C0.434,-0.219 0.426,-0.216 0.418,-0.216L0.129,-0.216C0.129,-0.191 0.131,-0.169 0.136,-0.15C0.141,-0.13 0.149,-0.114 0.161,-0.1C0.172,-0.086 0.187,-0.075 0.205,-0.067C0.224,-0.06 0.246,-0.056 0.273,-0.056C0.294,-0.056 0.312,-0.058 0.329,-0.061C0.345,-0.065 0.359,-0.069 0.371,-0.073C0.383,-0.077 0.393,-0.081 0.4,-0.084C0.408,-0.088 0.414,-0.089 0.418,-0.089C0.42,-0.089 0.422,-0.089 0.424,-0.088C0.426,-0.087 0.427,-0.085 0.428,-0.083C0.429,-0.08 0.43,-0.077 0.43,-0.073C0.431,-0.069 0.431,-0.064 0.431,-0.058C0.431,-0.054 0.431,-0.05 0.431,-0.047C0.43,-0.044 0.43,-0.041 0.429,-0.039C0.429,-0.036 0.428,-0.034 0.427,-0.032C0.426,-0.03 0.424,-0.028 0.423,-0.027C0.421,-0.025 0.416,-0.022 0.407,-0.018C0.398,-0.014 0.387,-0.01 0.373,-0.006C0.359,-0.002 0.342,0.002 0.324,0.005C0.306,0.008 0.286,0.009 0.265,0.009C0.229,0.009 0.197,0.004 0.17,-0.006C0.143,-0.016 0.12,-0.031 0.102,-0.051C0.083,-0.071 0.069,-0.096 0.06,-0.125C0.05,-0.155 0.045,-0.19 0.045,-0.23C0.045,-0.268 0.05,-0.302 0.06,-0.332C0.07,-0.362 0.084,-0.387 0.102,-0.408C0.121,-0.429 0.143,-0.446 0.169,-0.457C0.195,-0.468 0.224,-0.474 0.256,-0.474C0.291,-0.474 0.32,-0.468 0.344,-0.457C0.369,-0.446 0.389,-0.431 0.404,-0.412C0.42,-0.394 0.431,-0.372 0.439,-0.346C0.446,-0.321 0.45,-0.294 0.45,-0.266L0.45,-0.251ZM0.369,-0.275C0.37,-0.317 0.36,-0.35 0.34,-0.375C0.321,-0.399 0.291,-0.411 0.252,-0.411C0.232,-0.411 0.215,-0.407 0.2,-0.399C0.185,-0.392 0.172,-0.382 0.162,-0.37C0.152,-0.357 0.144,-0.343 0.138,-0.326C0.133,-0.31 0.13,-0.293 0.129,-0.275L0.369,-0.275Z" style="fill:rgb(232,117,85);fill-rule:nonzero;"/>
                    </g>
                    <g transform="matrix(30,0,0,30,2929.92,2797.25)">
                        <path d="M0.332,-0.423C0.332,-0.416 0.331,-0.41 0.331,-0.405C0.331,-0.4 0.33,-0.396 0.329,-0.393C0.328,-0.391 0.327,-0.388 0.325,-0.387C0.324,-0.385 0.322,-0.385 0.319,-0.385C0.317,-0.385 0.314,-0.385 0.31,-0.387C0.306,-0.388 0.302,-0.39 0.297,-0.391C0.292,-0.393 0.287,-0.394 0.281,-0.396C0.275,-0.397 0.269,-0.397 0.262,-0.397C0.254,-0.397 0.246,-0.396 0.238,-0.393C0.23,-0.389 0.222,-0.384 0.214,-0.376C0.205,-0.369 0.196,-0.359 0.187,-0.347C0.177,-0.334 0.167,-0.319 0.155,-0.301L0.155,-0.012C0.155,-0.01 0.155,-0.007 0.153,-0.006C0.152,-0.004 0.15,-0.002 0.147,-0.001C0.144,0 0.14,0.001 0.135,0.002C0.13,0.003 0.123,0.003 0.115,0.003C0.107,0.003 0.1,0.003 0.095,0.002C0.09,0.001 0.086,0 0.083,-0.001C0.08,-0.002 0.078,-0.004 0.076,-0.006C0.075,-0.007 0.075,-0.01 0.075,-0.012L0.075,-0.452C0.075,-0.454 0.075,-0.456 0.076,-0.458C0.077,-0.46 0.079,-0.462 0.082,-0.463C0.085,-0.465 0.089,-0.466 0.093,-0.466C0.098,-0.467 0.104,-0.467 0.111,-0.467C0.118,-0.467 0.124,-0.467 0.129,-0.466C0.134,-0.466 0.138,-0.465 0.14,-0.463C0.143,-0.462 0.145,-0.46 0.146,-0.458C0.147,-0.456 0.147,-0.454 0.147,-0.452L0.147,-0.388C0.16,-0.405 0.171,-0.42 0.181,-0.431C0.192,-0.442 0.202,-0.45 0.211,-0.457C0.221,-0.463 0.23,-0.468 0.24,-0.47C0.249,-0.472 0.258,-0.474 0.268,-0.474C0.272,-0.474 0.277,-0.473 0.282,-0.473C0.287,-0.472 0.293,-0.472 0.299,-0.47C0.305,-0.469 0.31,-0.467 0.315,-0.466C0.319,-0.464 0.323,-0.463 0.325,-0.461C0.327,-0.459 0.328,-0.458 0.329,-0.456C0.329,-0.455 0.33,-0.453 0.33,-0.451C0.331,-0.448 0.331,-0.445 0.331,-0.441C0.331,-0.436 0.332,-0.43 0.332,-0.423Z" style="fill:rgb(232,117,85);fill-rule:nonzero;"/>
                    </g>
                    <g transform="matrix(30,0,0,30,2939.97,2797.25)">
                        <path d="M0.442,-0.432C0.442,-0.42 0.44,-0.412 0.437,-0.407C0.434,-0.402 0.43,-0.399 0.425,-0.399L0.362,-0.399C0.374,-0.388 0.382,-0.375 0.386,-0.361C0.391,-0.346 0.393,-0.332 0.393,-0.316C0.393,-0.291 0.389,-0.269 0.381,-0.249C0.373,-0.229 0.361,-0.213 0.346,-0.199C0.331,-0.186 0.313,-0.176 0.292,-0.168C0.271,-0.161 0.248,-0.158 0.223,-0.158C0.205,-0.158 0.188,-0.16 0.172,-0.165C0.156,-0.17 0.143,-0.175 0.134,-0.183C0.128,-0.177 0.124,-0.17 0.12,-0.163C0.116,-0.155 0.114,-0.146 0.114,-0.137C0.114,-0.125 0.12,-0.116 0.13,-0.108C0.141,-0.101 0.155,-0.097 0.172,-0.096L0.287,-0.091C0.309,-0.091 0.329,-0.088 0.347,-0.082C0.365,-0.077 0.381,-0.069 0.395,-0.059C0.408,-0.049 0.418,-0.037 0.426,-0.023C0.433,-0.008 0.437,0.009 0.437,0.028C0.437,0.048 0.433,0.067 0.424,0.085C0.416,0.104 0.403,0.12 0.385,0.134C0.368,0.147 0.346,0.158 0.319,0.166C0.292,0.174 0.26,0.178 0.223,0.178C0.188,0.178 0.157,0.175 0.133,0.169C0.108,0.163 0.087,0.155 0.071,0.145C0.055,0.134 0.044,0.122 0.037,0.107C0.029,0.093 0.026,0.077 0.026,0.06C0.026,0.049 0.027,0.039 0.03,0.029C0.032,0.019 0.036,0.009 0.042,0C0.047,-0.009 0.054,-0.018 0.062,-0.026C0.07,-0.034 0.079,-0.043 0.089,-0.051C0.073,-0.059 0.062,-0.069 0.054,-0.082C0.046,-0.094 0.042,-0.107 0.042,-0.122C0.042,-0.141 0.047,-0.159 0.055,-0.175C0.063,-0.19 0.073,-0.204 0.085,-0.217C0.075,-0.229 0.067,-0.242 0.061,-0.258C0.055,-0.273 0.052,-0.291 0.052,-0.313C0.052,-0.338 0.056,-0.36 0.065,-0.38C0.073,-0.4 0.085,-0.417 0.1,-0.43C0.115,-0.444 0.133,-0.454 0.154,-0.462C0.175,-0.469 0.198,-0.473 0.223,-0.473C0.236,-0.473 0.248,-0.472 0.26,-0.47C0.272,-0.469 0.282,-0.467 0.292,-0.464L0.425,-0.464C0.431,-0.464 0.435,-0.462 0.438,-0.456C0.441,-0.451 0.442,-0.443 0.442,-0.432ZM0.316,-0.316C0.316,-0.346 0.308,-0.369 0.291,-0.386C0.275,-0.403 0.251,-0.411 0.221,-0.411C0.206,-0.411 0.192,-0.409 0.18,-0.403C0.169,-0.398 0.159,-0.391 0.152,-0.382C0.144,-0.373 0.138,-0.362 0.135,-0.35C0.131,-0.338 0.129,-0.326 0.129,-0.313C0.129,-0.284 0.137,-0.261 0.154,-0.245C0.17,-0.228 0.193,-0.22 0.223,-0.22C0.239,-0.22 0.252,-0.222 0.264,-0.227C0.276,-0.232 0.286,-0.239 0.293,-0.248C0.301,-0.257 0.307,-0.268 0.31,-0.279C0.314,-0.291 0.316,-0.303 0.316,-0.316ZM0.356,0.032C0.356,0.013 0.349,-0.001 0.333,-0.011C0.318,-0.022 0.297,-0.027 0.271,-0.028L0.157,-0.032C0.146,-0.024 0.138,-0.016 0.131,-0.009C0.124,-0.001 0.119,0.006 0.115,0.012C0.111,0.019 0.109,0.026 0.107,0.032C0.106,0.039 0.105,0.045 0.105,0.052C0.105,0.073 0.116,0.089 0.137,0.1C0.159,0.111 0.189,0.117 0.227,0.117C0.251,0.117 0.272,0.114 0.288,0.11C0.305,0.105 0.318,0.099 0.328,0.091C0.338,0.083 0.345,0.074 0.35,0.064C0.354,0.054 0.356,0.043 0.356,0.032Z" style="fill:rgb(232,117,85);fill-rule:nonzero;"/>
                    </g>
                    <g transform="matrix(30,0,0,30,2954.09,2797.25)">
                        <path d="M0.155,-0.012C0.155,-0.01 0.155,-0.007 0.153,-0.006C0.152,-0.004 0.15,-0.002 0.147,-0.001C0.144,0 0.14,0.001 0.135,0.002C0.13,0.003 0.123,0.003 0.115,0.003C0.107,0.003 0.1,0.003 0.095,0.002C0.09,0.001 0.086,0 0.083,-0.001C0.08,-0.002 0.078,-0.004 0.076,-0.006C0.075,-0.007 0.075,-0.01 0.075,-0.012L0.075,-0.452C0.075,-0.454 0.075,-0.456 0.076,-0.458C0.078,-0.46 0.08,-0.462 0.083,-0.463C0.086,-0.464 0.09,-0.465 0.095,-0.466C0.1,-0.466 0.107,-0.467 0.115,-0.467C0.123,-0.467 0.13,-0.466 0.135,-0.466C0.14,-0.465 0.144,-0.464 0.147,-0.463C0.15,-0.462 0.152,-0.46 0.153,-0.458C0.155,-0.456 0.155,-0.454 0.155,-0.452L0.155,-0.012ZM0.165,-0.6C0.165,-0.581 0.161,-0.568 0.154,-0.562C0.147,-0.555 0.133,-0.551 0.114,-0.551C0.095,-0.551 0.082,-0.555 0.075,-0.561C0.068,-0.568 0.065,-0.581 0.065,-0.599C0.065,-0.618 0.069,-0.631 0.076,-0.638C0.083,-0.645 0.096,-0.648 0.115,-0.648C0.134,-0.648 0.147,-0.645 0.154,-0.638C0.161,-0.631 0.165,-0.619 0.165,-0.6Z" style="fill:rgb(232,117,85);fill-rule:nonzero;"/>
                    </g>
                    <g transform="matrix(30,0,0,30,2960.98,2797.25)">
                        <path d="M0.406,-0.012C0.406,-0.008 0.404,-0.005 0.402,-0.003C0.399,-0.001 0.396,0 0.391,0.001C0.387,0.002 0.38,0.003 0.371,0.003C0.363,0.003 0.356,0.002 0.351,0.001C0.346,0 0.342,-0.001 0.34,-0.003C0.338,-0.005 0.336,-0.008 0.336,-0.012L0.336,-0.056C0.317,-0.035 0.296,-0.019 0.272,-0.008C0.249,0.004 0.224,0.009 0.197,0.009C0.174,0.009 0.153,0.006 0.135,0C0.116,-0.006 0.1,-0.014 0.087,-0.026C0.073,-0.037 0.063,-0.051 0.056,-0.068C0.049,-0.084 0.045,-0.103 0.045,-0.125C0.045,-0.149 0.05,-0.171 0.06,-0.189C0.07,-0.207 0.085,-0.222 0.104,-0.234C0.122,-0.246 0.146,-0.255 0.173,-0.261C0.2,-0.267 0.231,-0.271 0.265,-0.271L0.326,-0.271L0.326,-0.305C0.326,-0.322 0.324,-0.337 0.32,-0.35C0.317,-0.363 0.311,-0.373 0.303,-0.382C0.295,-0.391 0.285,-0.397 0.272,-0.402C0.259,-0.406 0.244,-0.408 0.225,-0.408C0.205,-0.408 0.187,-0.406 0.172,-0.401C0.156,-0.396 0.142,-0.391 0.13,-0.385C0.118,-0.38 0.108,-0.375 0.1,-0.37C0.092,-0.365 0.086,-0.363 0.083,-0.363C0.08,-0.363 0.078,-0.363 0.076,-0.365C0.074,-0.366 0.072,-0.368 0.071,-0.371C0.069,-0.373 0.068,-0.377 0.067,-0.381C0.067,-0.385 0.066,-0.389 0.066,-0.394C0.066,-0.402 0.067,-0.409 0.068,-0.413C0.069,-0.418 0.072,-0.423 0.076,-0.427C0.081,-0.431 0.088,-0.436 0.099,-0.442C0.11,-0.447 0.122,-0.453 0.136,-0.457C0.15,-0.462 0.166,-0.466 0.182,-0.469C0.199,-0.472 0.215,-0.474 0.232,-0.474C0.264,-0.474 0.291,-0.47 0.313,-0.463C0.335,-0.456 0.353,-0.445 0.367,-0.431C0.38,-0.418 0.39,-0.4 0.396,-0.38C0.403,-0.359 0.406,-0.335 0.406,-0.308L0.406,-0.012ZM0.326,-0.212L0.257,-0.212C0.235,-0.212 0.215,-0.211 0.199,-0.207C0.183,-0.203 0.169,-0.198 0.159,-0.19C0.148,-0.183 0.14,-0.174 0.135,-0.164C0.13,-0.154 0.127,-0.142 0.127,-0.128C0.127,-0.106 0.135,-0.087 0.149,-0.074C0.164,-0.06 0.184,-0.054 0.21,-0.054C0.231,-0.054 0.251,-0.059 0.269,-0.07C0.287,-0.081 0.306,-0.097 0.326,-0.119L0.326,-0.212Z" style="fill:rgb(232,117,85);fill-rule:nonzero;"/>
                    </g>
                </g>
                <g transform="matrix(0.761694,3.14418e-34,-1.47262e-34,1.62629,1058.7,-3130.25)">
                    <g transform="matrix(30,0,0,30,2884.59,2797.25)">
                        <path d="M0.168,-0.013C0.168,-0.01 0.167,-0.008 0.166,-0.006C0.165,-0.004 0.162,-0.002 0.159,-0.001C0.156,0 0.152,0.001 0.146,0.002C0.141,0.003 0.134,0.003 0.126,0.003C0.118,0.003 0.111,0.003 0.106,0.002C0.1,0.001 0.096,0 0.093,-0.001C0.09,-0.002 0.087,-0.004 0.086,-0.006C0.085,-0.008 0.084,-0.01 0.084,-0.013L0.084,-0.619C0.084,-0.622 0.085,-0.624 0.086,-0.626C0.088,-0.628 0.09,-0.629 0.094,-0.631C0.097,-0.632 0.101,-0.633 0.107,-0.634C0.112,-0.634 0.118,-0.635 0.126,-0.635C0.134,-0.635 0.141,-0.634 0.146,-0.634C0.152,-0.633 0.156,-0.632 0.159,-0.631C0.162,-0.629 0.165,-0.628 0.166,-0.626C0.167,-0.624 0.168,-0.622 0.168,-0.619L0.168,-0.013Z" style="fill:rgb(232,117,85);fill-rule:nonzero;"/>
                    </g>
                    <g transform="matrix(30,0,0,30,2892.14,2797.25)">
                        <path d="M0.453,-0.012C0.453,-0.01 0.452,-0.007 0.451,-0.006C0.45,-0.004 0.448,-0.002 0.445,-0.001C0.442,0 0.438,0.001 0.433,0.002C0.427,0.003 0.421,0.003 0.413,0.003C0.405,0.003 0.398,0.003 0.393,0.002C0.388,0.001 0.384,0 0.381,-0.001C0.378,-0.002 0.376,-0.004 0.375,-0.006C0.373,-0.007 0.373,-0.01 0.373,-0.012L0.373,-0.27C0.373,-0.295 0.371,-0.315 0.367,-0.33C0.363,-0.345 0.357,-0.359 0.35,-0.37C0.342,-0.381 0.332,-0.389 0.321,-0.395C0.309,-0.401 0.295,-0.404 0.279,-0.404C0.259,-0.404 0.239,-0.397 0.219,-0.382C0.199,-0.368 0.177,-0.347 0.155,-0.319L0.155,-0.012C0.155,-0.01 0.155,-0.007 0.153,-0.006C0.152,-0.004 0.15,-0.002 0.147,-0.001C0.144,0 0.14,0.001 0.135,0.002C0.13,0.003 0.123,0.003 0.115,0.003C0.107,0.003 0.1,0.003 0.095,0.002C0.09,0.001 0.086,0 0.083,-0.001C0.08,-0.002 0.078,-0.004 0.076,-0.006C0.075,-0.007 0.075,-0.01 0.075,-0.012L0.075,-0.452C0.075,-0.454 0.075,-0.456 0.076,-0.458C0.077,-0.46 0.079,-0.462 0.082,-0.463C0.085,-0.465 0.089,-0.466 0.093,-0.466C0.098,-0.467 0.104,-0.467 0.111,-0.467C0.118,-0.467 0.124,-0.467 0.129,-0.466C0.134,-0.466 0.138,-0.465 0.14,-0.463C0.143,-0.462 0.145,-0.46 0.146,-0.458C0.147,-0.456 0.147,-0.454 0.147,-0.452L0.147,-0.394C0.172,-0.421 0.197,-0.441 0.221,-0.454C0.246,-0.467 0.271,-0.474 0.296,-0.474C0.325,-0.474 0.35,-0.469 0.37,-0.459C0.39,-0.449 0.406,-0.436 0.418,-0.419C0.431,-0.402 0.44,-0.383 0.445,-0.361C0.45,-0.338 0.453,-0.312 0.453,-0.28L0.453,-0.012Z" style="fill:rgb(232,117,85);fill-rule:nonzero;"/>
                    </g>
                    <g transform="matrix(30,0,0,30,2907.73,2797.25)">
                        <path d="M0.315,-0.632C0.315,-0.626 0.315,-0.621 0.314,-0.617C0.314,-0.614 0.313,-0.611 0.312,-0.608C0.311,-0.606 0.31,-0.605 0.309,-0.604C0.308,-0.603 0.306,-0.603 0.304,-0.603C0.302,-0.603 0.299,-0.603 0.296,-0.605C0.292,-0.606 0.288,-0.608 0.283,-0.61C0.278,-0.611 0.273,-0.613 0.266,-0.615C0.259,-0.616 0.251,-0.617 0.243,-0.617C0.231,-0.617 0.22,-0.615 0.212,-0.611C0.203,-0.607 0.197,-0.601 0.191,-0.593C0.186,-0.584 0.182,-0.573 0.18,-0.56C0.178,-0.547 0.177,-0.531 0.177,-0.512L0.177,-0.464L0.275,-0.464C0.278,-0.464 0.28,-0.464 0.281,-0.463C0.283,-0.462 0.285,-0.46 0.286,-0.457C0.288,-0.454 0.289,-0.451 0.29,-0.446C0.291,-0.442 0.291,-0.437 0.291,-0.431C0.291,-0.419 0.29,-0.41 0.287,-0.405C0.284,-0.4 0.28,-0.397 0.275,-0.397L0.177,-0.397L0.177,-0.012C0.177,-0.01 0.176,-0.007 0.175,-0.006C0.174,-0.004 0.171,-0.002 0.168,-0.001C0.165,0 0.161,0.001 0.156,0.002C0.151,0.003 0.144,0.003 0.136,0.003C0.128,0.003 0.122,0.003 0.117,0.002C0.111,0.001 0.107,0 0.104,-0.001C0.101,-0.002 0.099,-0.004 0.098,-0.006C0.096,-0.007 0.096,-0.01 0.096,-0.012L0.096,-0.397L0.034,-0.397C0.028,-0.397 0.025,-0.4 0.022,-0.405C0.019,-0.41 0.018,-0.419 0.018,-0.431C0.018,-0.437 0.018,-0.442 0.019,-0.446C0.02,-0.451 0.021,-0.454 0.022,-0.457C0.023,-0.46 0.025,-0.462 0.027,-0.463C0.029,-0.464 0.031,-0.464 0.034,-0.464L0.096,-0.464L0.096,-0.51C0.096,-0.54 0.099,-0.567 0.104,-0.589C0.11,-0.611 0.119,-0.629 0.13,-0.643C0.142,-0.657 0.157,-0.667 0.175,-0.674C0.192,-0.68 0.213,-0.684 0.237,-0.684C0.249,-0.684 0.26,-0.683 0.271,-0.68C0.281,-0.678 0.29,-0.676 0.295,-0.674C0.301,-0.671 0.305,-0.669 0.307,-0.667C0.309,-0.665 0.311,-0.663 0.312,-0.659C0.313,-0.656 0.314,-0.653 0.315,-0.648C0.315,-0.644 0.315,-0.639 0.315,-0.632Z" style="fill:rgb(232,117,85);fill-rule:nonzero;"/>
                    </g>
                    <g transform="matrix(30,0,0,30,2916.25,2797.25)">
                        <path d="M0.483,-0.237C0.483,-0.201 0.479,-0.168 0.469,-0.138C0.46,-0.108 0.446,-0.082 0.427,-0.06C0.408,-0.038 0.385,-0.021 0.357,-0.009C0.329,0.003 0.296,0.009 0.259,0.009C0.223,0.009 0.191,0.004 0.164,-0.007C0.137,-0.018 0.115,-0.033 0.097,-0.054C0.079,-0.074 0.066,-0.099 0.057,-0.128C0.048,-0.158 0.044,-0.191 0.044,-0.228C0.044,-0.264 0.049,-0.297 0.058,-0.327C0.067,-0.357 0.081,-0.383 0.1,-0.405C0.119,-0.427 0.142,-0.444 0.17,-0.456C0.198,-0.468 0.231,-0.474 0.268,-0.474C0.304,-0.474 0.336,-0.468 0.363,-0.458C0.389,-0.447 0.412,-0.431 0.43,-0.411C0.448,-0.39 0.461,-0.365 0.47,-0.336C0.479,-0.307 0.483,-0.274 0.483,-0.237ZM0.4,-0.231C0.4,-0.255 0.398,-0.278 0.393,-0.299C0.389,-0.32 0.382,-0.339 0.371,-0.354C0.361,-0.37 0.347,-0.383 0.33,-0.392C0.313,-0.402 0.291,-0.406 0.265,-0.406C0.241,-0.406 0.22,-0.402 0.203,-0.394C0.186,-0.385 0.172,-0.373 0.16,-0.358C0.149,-0.342 0.141,-0.324 0.136,-0.303C0.13,-0.282 0.127,-0.258 0.127,-0.233C0.127,-0.209 0.13,-0.187 0.134,-0.166C0.139,-0.144 0.146,-0.126 0.156,-0.11C0.167,-0.094 0.18,-0.082 0.198,-0.073C0.215,-0.063 0.237,-0.059 0.263,-0.059C0.287,-0.059 0.307,-0.063 0.325,-0.071C0.342,-0.08 0.356,-0.092 0.367,-0.107C0.379,-0.122 0.387,-0.14 0.392,-0.162C0.397,-0.183 0.4,-0.206 0.4,-0.231Z" style="fill:rgb(232,117,85);fill-rule:nonzero;"/>
                    </g>
                    <g transform="matrix(30,0,0,30,2932.08,2797.25)">
                        <path d="M0.332,-0.423C0.332,-0.416 0.331,-0.41 0.331,-0.405C0.331,-0.4 0.33,-0.396 0.329,-0.393C0.328,-0.391 0.327,-0.388 0.325,-0.387C0.324,-0.385 0.322,-0.385 0.319,-0.385C0.317,-0.385 0.314,-0.385 0.31,-0.387C0.306,-0.388 0.302,-0.39 0.297,-0.391C0.292,-0.393 0.287,-0.394 0.281,-0.396C0.275,-0.397 0.269,-0.397 0.262,-0.397C0.254,-0.397 0.246,-0.396 0.238,-0.393C0.23,-0.389 0.222,-0.384 0.214,-0.376C0.205,-0.369 0.196,-0.359 0.187,-0.347C0.177,-0.334 0.167,-0.319 0.155,-0.301L0.155,-0.012C0.155,-0.01 0.155,-0.007 0.153,-0.006C0.152,-0.004 0.15,-0.002 0.147,-0.001C0.144,0 0.14,0.001 0.135,0.002C0.13,0.003 0.123,0.003 0.115,0.003C0.107,0.003 0.1,0.003 0.095,0.002C0.09,0.001 0.086,0 0.083,-0.001C0.08,-0.002 0.078,-0.004 0.076,-0.006C0.075,-0.007 0.075,-0.01 0.075,-0.012L0.075,-0.452C0.075,-0.454 0.075,-0.456 0.076,-0.458C0.077,-0.46 0.079,-0.462 0.082,-0.463C0.085,-0.465 0.089,-0.466 0.093,-0.466C0.098,-0.467 0.104,-0.467 0.111,-0.467C0.118,-0.467 0.124,-0.467 0.129,-0.466C0.134,-0.466 0.138,-0.465 0.14,-0.463C0.143,-0.462 0.145,-0.46 0.146,-0.458C0.147,-0.456 0.147,-0.454 0.147,-0.452L0.147,-0.388C0.16,-0.405 0.171,-0.42 0.181,-0.431C0.192,-0.442 0.202,-0.45 0.211,-0.457C0.221,-0.463 0.23,-0.468 0.24,-0.47C0.249,-0.472 0.258,-0.474 0.268,-0.474C0.272,-0.474 0.277,-0.473 0.282,-0.473C0.287,-0.472 0.293,-0.472 0.299,-0.47C0.305,-0.469 0.31,-0.467 0.315,-0.466C0.319,-0.464 0.323,-0.463 0.325,-0.461C0.327,-0.459 0.328,-0.458 0.329,-0.456C0.329,-0.455 0.33,-0.453 0.33,-0.451C0.331,-0.448 0.331,-0.445 0.331,-0.441C0.331,-0.436 0.332,-0.43 0.332,-0.423Z" style="fill:rgb(232,117,85);fill-rule:nonzero;"/>
                    </g>
                    <g transform="matrix(30,0,0,30,2942.53,2797.25)">
                        <path d="M0.727,-0.012C0.727,-0.01 0.726,-0.007 0.725,-0.006C0.723,-0.004 0.721,-0.002 0.718,-0.001C0.715,0 0.711,0.001 0.706,0.002C0.701,0.003 0.694,0.003 0.687,0.003C0.678,0.003 0.672,0.003 0.667,0.002C0.661,0.001 0.657,0 0.654,-0.001C0.651,-0.002 0.649,-0.004 0.647,-0.006C0.646,-0.007 0.646,-0.01 0.646,-0.012L0.646,-0.279C0.646,-0.298 0.644,-0.315 0.641,-0.33C0.637,-0.345 0.632,-0.359 0.625,-0.37C0.618,-0.381 0.609,-0.389 0.598,-0.395C0.587,-0.401 0.574,-0.404 0.559,-0.404C0.54,-0.404 0.521,-0.397 0.503,-0.382C0.484,-0.368 0.463,-0.347 0.441,-0.319L0.441,-0.012C0.441,-0.01 0.44,-0.007 0.439,-0.006C0.438,-0.004 0.435,-0.002 0.432,-0.001C0.429,0 0.425,0.001 0.42,0.002C0.415,0.003 0.408,0.003 0.4,0.003C0.393,0.003 0.386,0.003 0.381,0.002C0.376,0.001 0.372,0 0.368,-0.001C0.365,-0.002 0.363,-0.004 0.362,-0.006C0.361,-0.007 0.36,-0.01 0.36,-0.012L0.36,-0.279C0.36,-0.298 0.359,-0.315 0.355,-0.33C0.351,-0.345 0.346,-0.359 0.339,-0.37C0.332,-0.381 0.323,-0.389 0.312,-0.395C0.301,-0.401 0.288,-0.404 0.273,-0.404C0.254,-0.404 0.236,-0.397 0.217,-0.382C0.198,-0.368 0.177,-0.347 0.155,-0.319L0.155,-0.012C0.155,-0.01 0.155,-0.007 0.153,-0.006C0.152,-0.004 0.15,-0.002 0.147,-0.001C0.144,0 0.14,0.001 0.135,0.002C0.13,0.003 0.123,0.003 0.115,0.003C0.107,0.003 0.1,0.003 0.095,0.002C0.09,0.001 0.086,0 0.083,-0.001C0.08,-0.002 0.078,-0.004 0.076,-0.006C0.075,-0.007 0.075,-0.01 0.075,-0.012L0.075,-0.452C0.075,-0.454 0.075,-0.456 0.076,-0.458C0.077,-0.46 0.079,-0.462 0.082,-0.463C0.085,-0.465 0.089,-0.466 0.093,-0.466C0.098,-0.467 0.104,-0.467 0.111,-0.467C0.118,-0.467 0.124,-0.467 0.129,-0.466C0.134,-0.466 0.138,-0.465 0.14,-0.463C0.143,-0.462 0.145,-0.46 0.146,-0.458C0.147,-0.456 0.147,-0.454 0.147,-0.452L0.147,-0.394C0.172,-0.421 0.196,-0.441 0.219,-0.454C0.243,-0.467 0.266,-0.474 0.29,-0.474C0.308,-0.474 0.325,-0.472 0.339,-0.467C0.354,-0.463 0.366,-0.457 0.377,-0.449C0.389,-0.442 0.398,-0.433 0.406,-0.422C0.414,-0.412 0.42,-0.4 0.425,-0.387C0.44,-0.403 0.454,-0.416 0.467,-0.427C0.48,-0.438 0.493,-0.447 0.505,-0.454C0.517,-0.461 0.529,-0.466 0.541,-0.469C0.552,-0.472 0.564,-0.474 0.576,-0.474C0.604,-0.474 0.628,-0.469 0.647,-0.459C0.666,-0.449 0.682,-0.436 0.694,-0.419C0.705,-0.402 0.714,-0.383 0.719,-0.361C0.724,-0.338 0.727,-0.315 0.727,-0.29L0.727,-0.012Z" style="fill:rgb(232,117,85);fill-rule:nonzero;"/>
                    </g>
                    <g transform="matrix(30,0,0,30,2966.5,2797.25)">
                        <path d="M0.406,-0.012C0.406,-0.008 0.404,-0.005 0.402,-0.003C0.399,-0.001 0.396,0 0.391,0.001C0.387,0.002 0.38,0.003 0.371,0.003C0.363,0.003 0.356,0.002 0.351,0.001C0.346,0 0.342,-0.001 0.34,-0.003C0.338,-0.005 0.336,-0.008 0.336,-0.012L0.336,-0.056C0.317,-0.035 0.296,-0.019 0.272,-0.008C0.249,0.004 0.224,0.009 0.197,0.009C0.174,0.009 0.153,0.006 0.135,0C0.116,-0.006 0.1,-0.014 0.087,-0.026C0.073,-0.037 0.063,-0.051 0.056,-0.068C0.049,-0.084 0.045,-0.103 0.045,-0.125C0.045,-0.149 0.05,-0.171 0.06,-0.189C0.07,-0.207 0.085,-0.222 0.104,-0.234C0.122,-0.246 0.146,-0.255 0.173,-0.261C0.2,-0.267 0.231,-0.271 0.265,-0.271L0.326,-0.271L0.326,-0.305C0.326,-0.322 0.324,-0.337 0.32,-0.35C0.317,-0.363 0.311,-0.373 0.303,-0.382C0.295,-0.391 0.285,-0.397 0.272,-0.402C0.259,-0.406 0.244,-0.408 0.225,-0.408C0.205,-0.408 0.187,-0.406 0.172,-0.401C0.156,-0.396 0.142,-0.391 0.13,-0.385C0.118,-0.38 0.108,-0.375 0.1,-0.37C0.092,-0.365 0.086,-0.363 0.083,-0.363C0.08,-0.363 0.078,-0.363 0.076,-0.365C0.074,-0.366 0.072,-0.368 0.071,-0.371C0.069,-0.373 0.068,-0.377 0.067,-0.381C0.067,-0.385 0.066,-0.389 0.066,-0.394C0.066,-0.402 0.067,-0.409 0.068,-0.413C0.069,-0.418 0.072,-0.423 0.076,-0.427C0.081,-0.431 0.088,-0.436 0.099,-0.442C0.11,-0.447 0.122,-0.453 0.136,-0.457C0.15,-0.462 0.166,-0.466 0.182,-0.469C0.199,-0.472 0.215,-0.474 0.232,-0.474C0.264,-0.474 0.291,-0.47 0.313,-0.463C0.335,-0.456 0.353,-0.445 0.367,-0.431C0.38,-0.418 0.39,-0.4 0.396,-0.38C0.403,-0.359 0.406,-0.335 0.406,-0.308L0.406,-0.012ZM0.326,-0.212L0.257,-0.212C0.235,-0.212 0.215,-0.211 0.199,-0.207C0.183,-0.203 0.169,-0.198 0.159,-0.19C0.148,-0.183 0.14,-0.174 0.135,-0.164C0.13,-0.154 0.127,-0.142 0.127,-0.128C0.127,-0.106 0.135,-0.087 0.149,-0.074C0.164,-0.06 0.184,-0.054 0.21,-0.054C0.231,-0.054 0.251,-0.059 0.269,-0.07C0.287,-0.081 0.306,-0.097 0.326,-0.119L0.326,-0.212ZM0.277,-0.667C0.279,-0.67 0.282,-0.673 0.284,-0.675C0.287,-0.678 0.29,-0.679 0.294,-0.681C0.297,-0.682 0.302,-0.683 0.308,-0.684C0.313,-0.684 0.32,-0.685 0.328,-0.685C0.337,-0.685 0.344,-0.684 0.35,-0.683C0.356,-0.682 0.36,-0.68 0.362,-0.678C0.364,-0.676 0.365,-0.673 0.365,-0.671C0.364,-0.668 0.363,-0.665 0.36,-0.662L0.272,-0.548C0.269,-0.545 0.267,-0.542 0.265,-0.541C0.263,-0.539 0.26,-0.537 0.258,-0.536C0.255,-0.535 0.251,-0.534 0.247,-0.533C0.242,-0.533 0.237,-0.533 0.23,-0.533C0.223,-0.533 0.218,-0.533 0.213,-0.534C0.209,-0.535 0.206,-0.536 0.204,-0.538C0.203,-0.54 0.202,-0.542 0.202,-0.544C0.203,-0.547 0.204,-0.55 0.207,-0.554L0.277,-0.667Z" style="fill:rgb(232,117,85);fill-rule:nonzero;"/>
                    </g>
                    <g transform="matrix(30,0,0,30,2980.59,2797.25)">
                        <path d="M0.457,-0.464C0.467,-0.464 0.473,-0.462 0.477,-0.458C0.481,-0.453 0.482,-0.447 0.482,-0.438L0.482,-0.012C0.482,-0.01 0.482,-0.007 0.48,-0.006C0.479,-0.004 0.477,-0.002 0.474,-0.001C0.471,0 0.467,0.001 0.461,0.002C0.456,0.003 0.45,0.003 0.442,0.003C0.434,0.003 0.428,0.003 0.422,0.002C0.417,0.001 0.413,0 0.41,-0.001C0.407,-0.002 0.405,-0.004 0.403,-0.006C0.402,-0.007 0.401,-0.01 0.401,-0.012L0.401,-0.397L0.174,-0.397L0.174,-0.152C0.174,-0.122 0.179,-0.099 0.188,-0.084C0.197,-0.068 0.213,-0.061 0.236,-0.061C0.243,-0.061 0.25,-0.061 0.256,-0.063C0.262,-0.064 0.267,-0.066 0.271,-0.067C0.276,-0.069 0.28,-0.071 0.283,-0.072C0.286,-0.073 0.289,-0.074 0.292,-0.074C0.294,-0.074 0.295,-0.074 0.297,-0.073C0.298,-0.072 0.299,-0.071 0.3,-0.068C0.301,-0.066 0.302,-0.063 0.302,-0.059C0.303,-0.055 0.303,-0.05 0.303,-0.044C0.303,-0.035 0.303,-0.028 0.301,-0.022C0.3,-0.017 0.298,-0.013 0.295,-0.01C0.293,-0.007 0.289,-0.005 0.284,-0.002C0.278,0 0.273,0.002 0.266,0.003C0.259,0.005 0.252,0.006 0.245,0.007C0.237,0.008 0.23,0.008 0.222,0.008C0.199,0.008 0.18,0.005 0.164,-0.001C0.147,-0.007 0.134,-0.016 0.124,-0.028C0.113,-0.04 0.106,-0.056 0.101,-0.074C0.096,-0.093 0.094,-0.115 0.094,-0.141L0.094,-0.397L0.032,-0.397C0.027,-0.397 0.023,-0.4 0.021,-0.405C0.018,-0.41 0.016,-0.419 0.016,-0.431C0.016,-0.437 0.017,-0.442 0.017,-0.446C0.018,-0.451 0.019,-0.454 0.021,-0.457C0.022,-0.46 0.024,-0.462 0.026,-0.463C0.028,-0.464 0.03,-0.464 0.033,-0.464L0.094,-0.464L0.094,-0.569C0.094,-0.571 0.094,-0.573 0.095,-0.575C0.097,-0.577 0.099,-0.579 0.102,-0.58C0.105,-0.582 0.109,-0.583 0.114,-0.583C0.119,-0.584 0.126,-0.584 0.134,-0.584C0.142,-0.584 0.149,-0.584 0.154,-0.583C0.159,-0.583 0.163,-0.582 0.166,-0.58C0.169,-0.579 0.171,-0.577 0.172,-0.575C0.174,-0.573 0.174,-0.571 0.174,-0.569L0.174,-0.464L0.457,-0.464ZM0.492,-0.6C0.492,-0.581 0.488,-0.568 0.481,-0.562C0.474,-0.555 0.461,-0.551 0.441,-0.551C0.423,-0.551 0.41,-0.555 0.403,-0.561C0.396,-0.568 0.392,-0.581 0.392,-0.599C0.392,-0.618 0.396,-0.631 0.403,-0.638C0.41,-0.645 0.423,-0.648 0.442,-0.648C0.461,-0.648 0.474,-0.645 0.481,-0.638C0.488,-0.631 0.492,-0.619 0.492,-0.6Z" style="fill:rgb(232,117,85);fill-rule:nonzero;"/>
                    </g>
                    <g transform="matrix(30,0,0,30,2997.3,2797.25)">
                        <path d="M0.391,-0.079C0.391,-0.074 0.39,-0.069 0.39,-0.065C0.39,-0.061 0.389,-0.057 0.388,-0.054C0.388,-0.052 0.387,-0.049 0.385,-0.047C0.384,-0.045 0.382,-0.042 0.378,-0.038C0.374,-0.034 0.367,-0.029 0.357,-0.023C0.347,-0.017 0.336,-0.011 0.324,-0.007C0.312,-0.002 0.299,0.002 0.284,0.005C0.27,0.008 0.255,0.009 0.24,0.009C0.208,0.009 0.18,0.004 0.156,-0.006C0.131,-0.017 0.111,-0.032 0.094,-0.052C0.078,-0.072 0.066,-0.097 0.057,-0.126C0.048,-0.155 0.044,-0.188 0.044,-0.227C0.044,-0.27 0.049,-0.307 0.06,-0.338C0.07,-0.369 0.085,-0.395 0.103,-0.415C0.122,-0.434 0.143,-0.449 0.168,-0.459C0.193,-0.468 0.22,-0.473 0.249,-0.473C0.263,-0.473 0.277,-0.472 0.29,-0.469C0.303,-0.467 0.315,-0.463 0.326,-0.459C0.337,-0.455 0.347,-0.45 0.356,-0.444C0.364,-0.439 0.371,-0.434 0.375,-0.43C0.378,-0.426 0.381,-0.423 0.383,-0.421C0.384,-0.419 0.385,-0.416 0.386,-0.413C0.387,-0.41 0.388,-0.406 0.388,-0.402C0.389,-0.398 0.389,-0.394 0.389,-0.388C0.389,-0.375 0.387,-0.366 0.384,-0.361C0.381,-0.356 0.378,-0.354 0.374,-0.354C0.369,-0.354 0.363,-0.356 0.357,-0.362C0.35,-0.367 0.342,-0.373 0.333,-0.379C0.323,-0.386 0.311,-0.392 0.297,-0.397C0.283,-0.403 0.267,-0.405 0.248,-0.405C0.209,-0.405 0.18,-0.39 0.159,-0.361C0.138,-0.331 0.128,-0.288 0.128,-0.231C0.128,-0.203 0.131,-0.178 0.136,-0.156C0.141,-0.135 0.149,-0.117 0.16,-0.103C0.17,-0.089 0.183,-0.078 0.198,-0.071C0.213,-0.064 0.23,-0.061 0.25,-0.061C0.269,-0.061 0.285,-0.063 0.299,-0.069C0.313,-0.075 0.325,-0.082 0.335,-0.089C0.345,-0.096 0.354,-0.102 0.361,-0.108C0.368,-0.113 0.374,-0.116 0.377,-0.116C0.38,-0.116 0.382,-0.116 0.383,-0.114C0.385,-0.113 0.386,-0.111 0.387,-0.108C0.389,-0.105 0.389,-0.101 0.39,-0.096C0.39,-0.091 0.391,-0.086 0.391,-0.079Z" style="fill:rgb(232,117,85);fill-rule:nonzero;"/>
                    </g>
                    <g transform="matrix(30,0,0,30,3009.74,2797.25)">
                        <path d="M0.406,-0.012C0.406,-0.008 0.404,-0.005 0.402,-0.003C0.399,-0.001 0.396,0 0.391,0.001C0.387,0.002 0.38,0.003 0.371,0.003C0.363,0.003 0.356,0.002 0.351,0.001C0.346,0 0.342,-0.001 0.34,-0.003C0.338,-0.005 0.336,-0.008 0.336,-0.012L0.336,-0.056C0.317,-0.035 0.296,-0.019 0.272,-0.008C0.249,0.004 0.224,0.009 0.197,0.009C0.174,0.009 0.153,0.006 0.135,0C0.116,-0.006 0.1,-0.014 0.087,-0.026C0.073,-0.037 0.063,-0.051 0.056,-0.068C0.049,-0.084 0.045,-0.103 0.045,-0.125C0.045,-0.149 0.05,-0.171 0.06,-0.189C0.07,-0.207 0.085,-0.222 0.104,-0.234C0.122,-0.246 0.146,-0.255 0.173,-0.261C0.2,-0.267 0.231,-0.271 0.265,-0.271L0.326,-0.271L0.326,-0.305C0.326,-0.322 0.324,-0.337 0.32,-0.35C0.317,-0.363 0.311,-0.373 0.303,-0.382C0.295,-0.391 0.285,-0.397 0.272,-0.402C0.259,-0.406 0.244,-0.408 0.225,-0.408C0.205,-0.408 0.187,-0.406 0.172,-0.401C0.156,-0.396 0.142,-0.391 0.13,-0.385C0.118,-0.38 0.108,-0.375 0.1,-0.37C0.092,-0.365 0.086,-0.363 0.083,-0.363C0.08,-0.363 0.078,-0.363 0.076,-0.365C0.074,-0.366 0.072,-0.368 0.071,-0.371C0.069,-0.373 0.068,-0.377 0.067,-0.381C0.067,-0.385 0.066,-0.389 0.066,-0.394C0.066,-0.402 0.067,-0.409 0.068,-0.413C0.069,-0.418 0.072,-0.423 0.076,-0.427C0.081,-0.431 0.088,-0.436 0.099,-0.442C0.11,-0.447 0.122,-0.453 0.136,-0.457C0.15,-0.462 0.166,-0.466 0.182,-0.469C0.199,-0.472 0.215,-0.474 0.232,-0.474C0.264,-0.474 0.291,-0.47 0.313,-0.463C0.335,-0.456 0.353,-0.445 0.367,-0.431C0.38,-0.418 0.39,-0.4 0.396,-0.38C0.403,-0.359 0.406,-0.335 0.406,-0.308L0.406,-0.012ZM0.326,-0.212L0.257,-0.212C0.235,-0.212 0.215,-0.211 0.199,-0.207C0.183,-0.203 0.169,-0.198 0.159,-0.19C0.148,-0.183 0.14,-0.174 0.135,-0.164C0.13,-0.154 0.127,-0.142 0.127,-0.128C0.127,-0.106 0.135,-0.087 0.149,-0.074C0.164,-0.06 0.184,-0.054 0.21,-0.054C0.231,-0.054 0.251,-0.059 0.269,-0.07C0.287,-0.081 0.306,-0.097 0.326,-0.119L0.326,-0.212Z" style="fill:rgb(232,117,85);fill-rule:nonzero;"/>
                    </g>
                </g>
                <g transform="matrix(23,0,0,49.1072,3229.04,1418.19)">
                    <path d="M0.272,-0.247C0.272,-0.234 0.271,-0.225 0.268,-0.22C0.265,-0.215 0.261,-0.213 0.255,-0.213L0.051,-0.213C0.045,-0.213 0.041,-0.215 0.038,-0.22C0.035,-0.226 0.034,-0.234 0.034,-0.247C0.034,-0.259 0.035,-0.268 0.038,-0.272C0.041,-0.277 0.045,-0.28 0.051,-0.28L0.255,-0.28C0.258,-0.28 0.26,-0.279 0.262,-0.278C0.265,-0.277 0.266,-0.275 0.268,-0.273C0.269,-0.27 0.27,-0.266 0.271,-0.262C0.272,-0.258 0.272,-0.253 0.272,-0.247Z" style="fill:rgb(232,117,85);fill-rule:nonzero;"/>
                </g>
                <g transform="matrix(23,0,0,49.1072,3382.17,1418.19)">
                    <path d="M0.272,-0.247C0.272,-0.234 0.271,-0.225 0.268,-0.22C0.265,-0.215 0.261,-0.213 0.255,-0.213L0.051,-0.213C0.045,-0.213 0.041,-0.215 0.038,-0.22C0.035,-0.226 0.034,-0.234 0.034,-0.247C0.034,-0.259 0.035,-0.268 0.038,-0.272C0.041,-0.277 0.045,-0.28 0.051,-0.28L0.255,-0.28C0.258,-0.28 0.26,-0.279 0.262,-0.278C0.265,-0.277 0.266,-0.275 0.268,-0.273C0.269,-0.27 0.27,-0.266 0.271,-0.262C0.272,-0.258 0.272,-0.253 0.272,-0.247Z" style="fill:rgb(232,117,85);fill-rule:nonzero;"/>
                </g>
                <g transform="matrix(1,0,0,2.1351,562.219,88.738)">
                    <g transform="matrix(23.2184,0,0,23.2184,2848.52,623.147)">
                        <path d="M0.48,-0.596C0.48,-0.59 0.48,-0.584 0.479,-0.58C0.478,-0.575 0.477,-0.571 0.476,-0.569C0.474,-0.566 0.473,-0.564 0.47,-0.563C0.468,-0.561 0.466,-0.561 0.463,-0.561L0.286,-0.561L0.286,-0.013C0.286,-0.01 0.285,-0.008 0.284,-0.006C0.282,-0.004 0.28,-0.002 0.277,-0.001C0.274,0 0.269,0.001 0.264,0.002C0.259,0.003 0.252,0.003 0.244,0.003C0.236,0.003 0.229,0.003 0.224,0.002C0.218,0.001 0.214,0 0.21,-0.001C0.207,-0.002 0.205,-0.004 0.204,-0.006C0.202,-0.008 0.202,-0.01 0.202,-0.013L0.202,-0.561L0.024,-0.561C0.021,-0.561 0.019,-0.561 0.017,-0.563C0.015,-0.564 0.013,-0.566 0.012,-0.569C0.01,-0.571 0.009,-0.575 0.009,-0.58C0.008,-0.584 0.007,-0.59 0.007,-0.596C0.007,-0.602 0.008,-0.607 0.009,-0.612C0.009,-0.617 0.01,-0.621 0.012,-0.624C0.013,-0.626 0.015,-0.629 0.017,-0.63C0.019,-0.631 0.021,-0.632 0.024,-0.632L0.463,-0.632C0.466,-0.632 0.468,-0.631 0.47,-0.63C0.473,-0.629 0.474,-0.626 0.476,-0.624C0.477,-0.621 0.478,-0.617 0.479,-0.612C0.48,-0.607 0.48,-0.602 0.48,-0.596Z" style="fill:rgb(232,117,85);fill-rule:nonzero;"/>
                    </g>
                    <g transform="matrix(23.2184,0,0,23.2184,2857.78,623.147)">
                        <path d="M0.45,-0.251C0.45,-0.238 0.447,-0.229 0.44,-0.224C0.434,-0.219 0.426,-0.216 0.418,-0.216L0.129,-0.216C0.129,-0.191 0.131,-0.169 0.136,-0.15C0.141,-0.13 0.149,-0.114 0.161,-0.1C0.172,-0.086 0.187,-0.075 0.205,-0.067C0.224,-0.06 0.246,-0.056 0.273,-0.056C0.294,-0.056 0.312,-0.058 0.329,-0.061C0.345,-0.065 0.359,-0.069 0.371,-0.073C0.383,-0.077 0.393,-0.081 0.4,-0.084C0.408,-0.088 0.414,-0.089 0.418,-0.089C0.42,-0.089 0.422,-0.089 0.424,-0.088C0.426,-0.087 0.427,-0.085 0.428,-0.083C0.429,-0.08 0.43,-0.077 0.43,-0.073C0.431,-0.069 0.431,-0.064 0.431,-0.058C0.431,-0.054 0.431,-0.05 0.431,-0.047C0.43,-0.044 0.43,-0.041 0.429,-0.039C0.429,-0.036 0.428,-0.034 0.427,-0.032C0.426,-0.03 0.424,-0.028 0.423,-0.027C0.421,-0.025 0.416,-0.022 0.407,-0.018C0.398,-0.014 0.387,-0.01 0.373,-0.006C0.359,-0.002 0.342,0.002 0.324,0.005C0.306,0.008 0.286,0.009 0.265,0.009C0.229,0.009 0.197,0.004 0.17,-0.006C0.143,-0.016 0.12,-0.031 0.102,-0.051C0.083,-0.071 0.069,-0.096 0.06,-0.125C0.05,-0.155 0.045,-0.19 0.045,-0.23C0.045,-0.268 0.05,-0.302 0.06,-0.332C0.07,-0.362 0.084,-0.387 0.102,-0.408C0.121,-0.429 0.143,-0.446 0.169,-0.457C0.195,-0.468 0.224,-0.474 0.256,-0.474C0.291,-0.474 0.32,-0.468 0.344,-0.457C0.369,-0.446 0.389,-0.431 0.404,-0.412C0.42,-0.394 0.431,-0.372 0.439,-0.346C0.446,-0.321 0.45,-0.294 0.45,-0.266L0.45,-0.251ZM0.369,-0.275C0.37,-0.317 0.36,-0.35 0.34,-0.375C0.321,-0.399 0.291,-0.411 0.252,-0.411C0.232,-0.411 0.215,-0.407 0.2,-0.399C0.185,-0.392 0.172,-0.382 0.162,-0.37C0.152,-0.357 0.144,-0.343 0.138,-0.326C0.133,-0.31 0.13,-0.293 0.129,-0.275L0.369,-0.275Z" style="fill:rgb(232,117,85);fill-rule:nonzero;"/>
                    </g>
                    <g transform="matrix(23.2184,0,0,23.2184,2869.33,623.147)">
                        <path d="M0.155,-0.012C0.155,-0.01 0.155,-0.007 0.153,-0.006C0.152,-0.004 0.15,-0.002 0.147,-0.001C0.144,0 0.14,0.001 0.135,0.002C0.13,0.003 0.123,0.003 0.115,0.003C0.107,0.003 0.1,0.003 0.095,0.002C0.09,0.001 0.086,0 0.083,-0.001C0.08,-0.002 0.078,-0.004 0.076,-0.006C0.075,-0.007 0.075,-0.01 0.075,-0.012L0.075,-0.665C0.075,-0.667 0.075,-0.669 0.076,-0.671C0.078,-0.673 0.08,-0.675 0.083,-0.676C0.086,-0.678 0.09,-0.679 0.095,-0.679C0.1,-0.68 0.107,-0.68 0.115,-0.68C0.123,-0.68 0.13,-0.68 0.135,-0.679C0.14,-0.679 0.144,-0.678 0.147,-0.676C0.15,-0.675 0.152,-0.673 0.153,-0.671C0.155,-0.669 0.155,-0.667 0.155,-0.665L0.155,-0.012Z" style="fill:rgb(232,117,85);fill-rule:nonzero;"/>
                    </g>
                    <g transform="matrix(23.2184,0,0,23.2184,2874.66,623.147)">
                        <path d="M0.45,-0.251C0.45,-0.238 0.447,-0.229 0.44,-0.224C0.434,-0.219 0.426,-0.216 0.418,-0.216L0.129,-0.216C0.129,-0.191 0.131,-0.169 0.136,-0.15C0.141,-0.13 0.149,-0.114 0.161,-0.1C0.172,-0.086 0.187,-0.075 0.205,-0.067C0.224,-0.06 0.246,-0.056 0.273,-0.056C0.294,-0.056 0.312,-0.058 0.329,-0.061C0.345,-0.065 0.359,-0.069 0.371,-0.073C0.383,-0.077 0.393,-0.081 0.4,-0.084C0.408,-0.088 0.414,-0.089 0.418,-0.089C0.42,-0.089 0.422,-0.089 0.424,-0.088C0.426,-0.087 0.427,-0.085 0.428,-0.083C0.429,-0.08 0.43,-0.077 0.43,-0.073C0.431,-0.069 0.431,-0.064 0.431,-0.058C0.431,-0.054 0.431,-0.05 0.431,-0.047C0.43,-0.044 0.43,-0.041 0.429,-0.039C0.429,-0.036 0.428,-0.034 0.427,-0.032C0.426,-0.03 0.424,-0.028 0.423,-0.027C0.421,-0.025 0.416,-0.022 0.407,-0.018C0.398,-0.014 0.387,-0.01 0.373,-0.006C0.359,-0.002 0.342,0.002 0.324,0.005C0.306,0.008 0.286,0.009 0.265,0.009C0.229,0.009 0.197,0.004 0.17,-0.006C0.143,-0.016 0.12,-0.031 0.102,-0.051C0.083,-0.071 0.069,-0.096 0.06,-0.125C0.05,-0.155 0.045,-0.19 0.045,-0.23C0.045,-0.268 0.05,-0.302 0.06,-0.332C0.07,-0.362 0.084,-0.387 0.102,-0.408C0.121,-0.429 0.143,-0.446 0.169,-0.457C0.195,-0.468 0.224,-0.474 0.256,-0.474C0.291,-0.474 0.32,-0.468 0.344,-0.457C0.369,-0.446 0.389,-0.431 0.404,-0.412C0.42,-0.394 0.431,-0.372 0.439,-0.346C0.446,-0.321 0.45,-0.294 0.45,-0.266L0.45,-0.251ZM0.369,-0.275C0.37,-0.317 0.36,-0.35 0.34,-0.375C0.321,-0.399 0.291,-0.411 0.252,-0.411C0.232,-0.411 0.215,-0.407 0.2,-0.399C0.185,-0.392 0.172,-0.382 0.162,-0.37C0.152,-0.357 0.144,-0.343 0.138,-0.326C0.133,-0.31 0.13,-0.293 0.129,-0.275L0.369,-0.275Z" style="fill:rgb(232,117,85);fill-rule:nonzero;"/>
                    </g>
                    <g transform="matrix(23.2184,0,0,23.2184,2886.21,623.147)">
                        <path d="M0.391,-0.079C0.391,-0.074 0.39,-0.069 0.39,-0.065C0.39,-0.061 0.389,-0.057 0.388,-0.054C0.388,-0.052 0.387,-0.049 0.385,-0.047C0.384,-0.045 0.382,-0.042 0.378,-0.038C0.374,-0.034 0.367,-0.029 0.357,-0.023C0.347,-0.017 0.336,-0.011 0.324,-0.007C0.312,-0.002 0.299,0.002 0.284,0.005C0.27,0.008 0.255,0.009 0.24,0.009C0.208,0.009 0.18,0.004 0.156,-0.006C0.131,-0.017 0.111,-0.032 0.094,-0.052C0.078,-0.072 0.066,-0.097 0.057,-0.126C0.048,-0.155 0.044,-0.188 0.044,-0.227C0.044,-0.27 0.049,-0.307 0.06,-0.338C0.07,-0.369 0.085,-0.395 0.103,-0.415C0.122,-0.434 0.143,-0.449 0.168,-0.459C0.193,-0.468 0.22,-0.473 0.249,-0.473C0.263,-0.473 0.277,-0.472 0.29,-0.469C0.303,-0.467 0.315,-0.463 0.326,-0.459C0.337,-0.455 0.347,-0.45 0.356,-0.444C0.364,-0.439 0.371,-0.434 0.375,-0.43C0.378,-0.426 0.381,-0.423 0.383,-0.421C0.384,-0.419 0.385,-0.416 0.386,-0.413C0.387,-0.41 0.388,-0.406 0.388,-0.402C0.389,-0.398 0.389,-0.394 0.389,-0.388C0.389,-0.375 0.387,-0.366 0.384,-0.361C0.381,-0.356 0.378,-0.354 0.374,-0.354C0.369,-0.354 0.363,-0.356 0.357,-0.362C0.35,-0.367 0.342,-0.373 0.333,-0.379C0.323,-0.386 0.311,-0.392 0.297,-0.397C0.283,-0.403 0.267,-0.405 0.248,-0.405C0.209,-0.405 0.18,-0.39 0.159,-0.361C0.138,-0.331 0.128,-0.288 0.128,-0.231C0.128,-0.203 0.131,-0.178 0.136,-0.156C0.141,-0.135 0.149,-0.117 0.16,-0.103C0.17,-0.089 0.183,-0.078 0.198,-0.071C0.213,-0.064 0.23,-0.061 0.25,-0.061C0.269,-0.061 0.285,-0.063 0.299,-0.069C0.313,-0.075 0.325,-0.082 0.335,-0.089C0.345,-0.096 0.354,-0.102 0.361,-0.108C0.368,-0.113 0.374,-0.116 0.377,-0.116C0.38,-0.116 0.382,-0.116 0.383,-0.114C0.385,-0.113 0.386,-0.111 0.387,-0.108C0.389,-0.105 0.389,-0.101 0.39,-0.096C0.39,-0.091 0.391,-0.086 0.391,-0.079Z" style="fill:rgb(232,117,85);fill-rule:nonzero;"/>
                    </g>
                    <g transform="matrix(23.2184,0,0,23.2184,2895.83,623.147)">
                        <path d="M0.483,-0.237C0.483,-0.201 0.479,-0.168 0.469,-0.138C0.46,-0.108 0.446,-0.082 0.427,-0.06C0.408,-0.038 0.385,-0.021 0.357,-0.009C0.329,0.003 0.296,0.009 0.259,0.009C0.223,0.009 0.191,0.004 0.164,-0.007C0.137,-0.018 0.115,-0.033 0.097,-0.054C0.079,-0.074 0.066,-0.099 0.057,-0.128C0.048,-0.158 0.044,-0.191 0.044,-0.228C0.044,-0.264 0.049,-0.297 0.058,-0.327C0.067,-0.357 0.081,-0.383 0.1,-0.405C0.119,-0.427 0.142,-0.444 0.17,-0.456C0.198,-0.468 0.231,-0.474 0.268,-0.474C0.304,-0.474 0.336,-0.468 0.363,-0.458C0.389,-0.447 0.412,-0.431 0.43,-0.411C0.448,-0.39 0.461,-0.365 0.47,-0.336C0.479,-0.307 0.483,-0.274 0.483,-0.237ZM0.4,-0.231C0.4,-0.255 0.398,-0.278 0.393,-0.299C0.389,-0.32 0.382,-0.339 0.371,-0.354C0.361,-0.37 0.347,-0.383 0.33,-0.392C0.313,-0.402 0.291,-0.406 0.265,-0.406C0.241,-0.406 0.22,-0.402 0.203,-0.394C0.186,-0.385 0.172,-0.373 0.16,-0.358C0.149,-0.342 0.141,-0.324 0.136,-0.303C0.13,-0.282 0.127,-0.258 0.127,-0.233C0.127,-0.209 0.13,-0.187 0.134,-0.166C0.139,-0.144 0.146,-0.126 0.156,-0.11C0.167,-0.094 0.18,-0.082 0.198,-0.073C0.215,-0.063 0.237,-0.059 0.263,-0.059C0.287,-0.059 0.307,-0.063 0.325,-0.071C0.342,-0.08 0.356,-0.092 0.367,-0.107C0.379,-0.122 0.387,-0.14 0.392,-0.162C0.397,-0.183 0.4,-0.206 0.4,-0.231Z" style="fill:rgb(232,117,85);fill-rule:nonzero;"/>
                    </g>
                    <g transform="matrix(23.2184,0,0,23.2184,2908.08,623.147)">
                        <path d="M0.727,-0.012C0.727,-0.01 0.726,-0.007 0.725,-0.006C0.723,-0.004 0.721,-0.002 0.718,-0.001C0.715,0 0.711,0.001 0.706,0.002C0.701,0.003 0.694,0.003 0.687,0.003C0.678,0.003 0.672,0.003 0.667,0.002C0.661,0.001 0.657,0 0.654,-0.001C0.651,-0.002 0.649,-0.004 0.647,-0.006C0.646,-0.007 0.646,-0.01 0.646,-0.012L0.646,-0.279C0.646,-0.298 0.644,-0.315 0.641,-0.33C0.637,-0.345 0.632,-0.359 0.625,-0.37C0.618,-0.381 0.609,-0.389 0.598,-0.395C0.587,-0.401 0.574,-0.404 0.559,-0.404C0.54,-0.404 0.521,-0.397 0.503,-0.382C0.484,-0.368 0.463,-0.347 0.441,-0.319L0.441,-0.012C0.441,-0.01 0.44,-0.007 0.439,-0.006C0.438,-0.004 0.435,-0.002 0.432,-0.001C0.429,0 0.425,0.001 0.42,0.002C0.415,0.003 0.408,0.003 0.4,0.003C0.393,0.003 0.386,0.003 0.381,0.002C0.376,0.001 0.372,0 0.368,-0.001C0.365,-0.002 0.363,-0.004 0.362,-0.006C0.361,-0.007 0.36,-0.01 0.36,-0.012L0.36,-0.279C0.36,-0.298 0.359,-0.315 0.355,-0.33C0.351,-0.345 0.346,-0.359 0.339,-0.37C0.332,-0.381 0.323,-0.389 0.312,-0.395C0.301,-0.401 0.288,-0.404 0.273,-0.404C0.254,-0.404 0.236,-0.397 0.217,-0.382C0.198,-0.368 0.177,-0.347 0.155,-0.319L0.155,-0.012C0.155,-0.01 0.155,-0.007 0.153,-0.006C0.152,-0.004 0.15,-0.002 0.147,-0.001C0.144,0 0.14,0.001 0.135,0.002C0.13,0.003 0.123,0.003 0.115,0.003C0.107,0.003 0.1,0.003 0.095,0.002C0.09,0.001 0.086,0 0.083,-0.001C0.08,-0.002 0.078,-0.004 0.076,-0.006C0.075,-0.007 0.075,-0.01 0.075,-0.012L0.075,-0.452C0.075,-0.454 0.075,-0.456 0.076,-0.458C0.077,-0.46 0.079,-0.462 0.082,-0.463C0.085,-0.465 0.089,-0.466 0.093,-0.466C0.098,-0.467 0.104,-0.467 0.111,-0.467C0.118,-0.467 0.124,-0.467 0.129,-0.466C0.134,-0.466 0.138,-0.465 0.14,-0.463C0.143,-0.462 0.145,-0.46 0.146,-0.458C0.147,-0.456 0.147,-0.454 0.147,-0.452L0.147,-0.394C0.172,-0.421 0.196,-0.441 0.219,-0.454C0.243,-0.467 0.266,-0.474 0.29,-0.474C0.308,-0.474 0.325,-0.472 0.339,-0.467C0.354,-0.463 0.366,-0.457 0.377,-0.449C0.389,-0.442 0.398,-0.433 0.406,-0.422C0.414,-0.412 0.42,-0.4 0.425,-0.387C0.44,-0.403 0.454,-0.416 0.467,-0.427C0.48,-0.438 0.493,-0.447 0.505,-0.454C0.517,-0.461 0.529,-0.466 0.541,-0.469C0.552,-0.472 0.564,-0.474 0.576,-0.474C0.604,-0.474 0.628,-0.469 0.647,-0.459C0.666,-0.449 0.682,-0.436 0.694,-0.419C0.705,-0.402 0.714,-0.383 0.719,-0.361C0.724,-0.338 0.727,-0.315 0.727,-0.29L0.727,-0.012Z" style="fill:rgb(232,117,85);fill-rule:nonzero;"/>
                    </g>
                    <g transform="matrix(23.2184,0,0,23.2184,2926.63,623.147)">
                        <path d="M0.451,-0.012C0.451,-0.01 0.451,-0.007 0.449,-0.006C0.448,-0.004 0.446,-0.002 0.443,-0.001C0.44,0 0.437,0.001 0.432,0.002C0.427,0.003 0.421,0.003 0.415,0.003C0.407,0.003 0.401,0.003 0.396,0.002C0.392,0.001 0.388,0 0.385,-0.001C0.382,-0.002 0.38,-0.004 0.379,-0.006C0.378,-0.007 0.378,-0.01 0.378,-0.012L0.378,-0.07C0.353,-0.043 0.328,-0.022 0.304,-0.01C0.279,0.003 0.255,0.009 0.229,0.009C0.2,0.009 0.176,0.004 0.156,-0.005C0.135,-0.015 0.119,-0.028 0.107,-0.045C0.095,-0.062 0.086,-0.081 0.08,-0.104C0.075,-0.126 0.072,-0.153 0.072,-0.185L0.072,-0.452C0.072,-0.454 0.073,-0.456 0.074,-0.458C0.075,-0.46 0.077,-0.462 0.081,-0.463C0.084,-0.465 0.088,-0.466 0.093,-0.466C0.098,-0.467 0.105,-0.467 0.113,-0.467C0.121,-0.467 0.127,-0.467 0.132,-0.466C0.138,-0.466 0.142,-0.465 0.145,-0.463C0.148,-0.462 0.15,-0.46 0.151,-0.458C0.153,-0.456 0.153,-0.454 0.153,-0.452L0.153,-0.196C0.153,-0.17 0.155,-0.149 0.159,-0.134C0.163,-0.119 0.168,-0.105 0.176,-0.094C0.184,-0.084 0.193,-0.075 0.205,-0.069C0.217,-0.063 0.23,-0.06 0.246,-0.06C0.266,-0.06 0.286,-0.067 0.306,-0.082C0.326,-0.096 0.348,-0.117 0.37,-0.145L0.37,-0.452C0.37,-0.454 0.371,-0.456 0.372,-0.458C0.373,-0.46 0.375,-0.462 0.378,-0.463C0.382,-0.465 0.386,-0.466 0.391,-0.466C0.396,-0.467 0.403,-0.467 0.411,-0.467C0.418,-0.467 0.425,-0.467 0.43,-0.466C0.435,-0.466 0.439,-0.465 0.442,-0.463C0.445,-0.462 0.448,-0.46 0.449,-0.458C0.45,-0.456 0.451,-0.454 0.451,-0.452L0.451,-0.012Z" style="fill:rgb(232,117,85);fill-rule:nonzero;"/>
                    </g>
                    <g transform="matrix(23.2184,0,0,23.2184,2938.82,623.147)">
                        <path d="M0.453,-0.012C0.453,-0.01 0.452,-0.007 0.451,-0.006C0.45,-0.004 0.448,-0.002 0.445,-0.001C0.442,0 0.438,0.001 0.433,0.002C0.427,0.003 0.421,0.003 0.413,0.003C0.405,0.003 0.398,0.003 0.393,0.002C0.388,0.001 0.384,0 0.381,-0.001C0.378,-0.002 0.376,-0.004 0.375,-0.006C0.373,-0.007 0.373,-0.01 0.373,-0.012L0.373,-0.27C0.373,-0.295 0.371,-0.315 0.367,-0.33C0.363,-0.345 0.357,-0.359 0.35,-0.37C0.342,-0.381 0.332,-0.389 0.321,-0.395C0.309,-0.401 0.295,-0.404 0.279,-0.404C0.259,-0.404 0.239,-0.397 0.219,-0.382C0.199,-0.368 0.177,-0.347 0.155,-0.319L0.155,-0.012C0.155,-0.01 0.155,-0.007 0.153,-0.006C0.152,-0.004 0.15,-0.002 0.147,-0.001C0.144,0 0.14,0.001 0.135,0.002C0.13,0.003 0.123,0.003 0.115,0.003C0.107,0.003 0.1,0.003 0.095,0.002C0.09,0.001 0.086,0 0.083,-0.001C0.08,-0.002 0.078,-0.004 0.076,-0.006C0.075,-0.007 0.075,-0.01 0.075,-0.012L0.075,-0.452C0.075,-0.454 0.075,-0.456 0.076,-0.458C0.077,-0.46 0.079,-0.462 0.082,-0.463C0.085,-0.465 0.089,-0.466 0.093,-0.466C0.098,-0.467 0.104,-0.467 0.111,-0.467C0.118,-0.467 0.124,-0.467 0.129,-0.466C0.134,-0.466 0.138,-0.465 0.14,-0.463C0.143,-0.462 0.145,-0.46 0.146,-0.458C0.147,-0.456 0.147,-0.454 0.147,-0.452L0.147,-0.394C0.172,-0.421 0.197,-0.441 0.221,-0.454C0.246,-0.467 0.271,-0.474 0.296,-0.474C0.325,-0.474 0.35,-0.469 0.37,-0.459C0.39,-0.449 0.406,-0.436 0.418,-0.419C0.431,-0.402 0.44,-0.383 0.445,-0.361C0.45,-0.338 0.453,-0.312 0.453,-0.28L0.453,-0.012Z" style="fill:rgb(232,117,85);fill-rule:nonzero;"/>
                    </g>
                    <g transform="matrix(23.2184,0,0,23.2184,2951.02,623.147)">
                        <path d="M0.155,-0.012C0.155,-0.01 0.155,-0.007 0.153,-0.006C0.152,-0.004 0.15,-0.002 0.147,-0.001C0.144,0 0.14,0.001 0.135,0.002C0.13,0.003 0.123,0.003 0.115,0.003C0.107,0.003 0.1,0.003 0.095,0.002C0.09,0.001 0.086,0 0.083,-0.001C0.08,-0.002 0.078,-0.004 0.076,-0.006C0.075,-0.007 0.075,-0.01 0.075,-0.012L0.075,-0.452C0.075,-0.454 0.075,-0.456 0.076,-0.458C0.078,-0.46 0.08,-0.462 0.083,-0.463C0.086,-0.464 0.09,-0.465 0.095,-0.466C0.1,-0.466 0.107,-0.467 0.115,-0.467C0.123,-0.467 0.13,-0.466 0.135,-0.466C0.14,-0.465 0.144,-0.464 0.147,-0.463C0.15,-0.462 0.152,-0.46 0.153,-0.458C0.155,-0.456 0.155,-0.454 0.155,-0.452L0.155,-0.012ZM0.165,-0.6C0.165,-0.581 0.161,-0.568 0.154,-0.562C0.147,-0.555 0.133,-0.551 0.114,-0.551C0.095,-0.551 0.082,-0.555 0.075,-0.561C0.068,-0.568 0.065,-0.581 0.065,-0.599C0.065,-0.618 0.069,-0.631 0.076,-0.638C0.083,-0.645 0.096,-0.648 0.115,-0.648C0.134,-0.648 0.147,-0.645 0.154,-0.638C0.161,-0.631 0.165,-0.619 0.165,-0.6Z" style="fill:rgb(232,117,85);fill-rule:nonzero;"/>
                    </g>
                    <g transform="matrix(23.2184,0,0,23.2184,2956.35,623.147)">
                        <path d="M0.391,-0.079C0.391,-0.074 0.39,-0.069 0.39,-0.065C0.39,-0.061 0.389,-0.057 0.388,-0.054C0.388,-0.052 0.387,-0.049 0.385,-0.047C0.384,-0.045 0.382,-0.042 0.378,-0.038C0.374,-0.034 0.367,-0.029 0.357,-0.023C0.347,-0.017 0.336,-0.011 0.324,-0.007C0.312,-0.002 0.299,0.002 0.284,0.005C0.27,0.008 0.255,0.009 0.24,0.009C0.208,0.009 0.18,0.004 0.156,-0.006C0.131,-0.017 0.111,-0.032 0.094,-0.052C0.078,-0.072 0.066,-0.097 0.057,-0.126C0.048,-0.155 0.044,-0.188 0.044,-0.227C0.044,-0.27 0.049,-0.307 0.06,-0.338C0.07,-0.369 0.085,-0.395 0.103,-0.415C0.122,-0.434 0.143,-0.449 0.168,-0.459C0.193,-0.468 0.22,-0.473 0.249,-0.473C0.263,-0.473 0.277,-0.472 0.29,-0.469C0.303,-0.467 0.315,-0.463 0.326,-0.459C0.337,-0.455 0.347,-0.45 0.356,-0.444C0.364,-0.439 0.371,-0.434 0.375,-0.43C0.378,-0.426 0.381,-0.423 0.383,-0.421C0.384,-0.419 0.385,-0.416 0.386,-0.413C0.387,-0.41 0.388,-0.406 0.388,-0.402C0.389,-0.398 0.389,-0.394 0.389,-0.388C0.389,-0.375 0.387,-0.366 0.384,-0.361C0.381,-0.356 0.378,-0.354 0.374,-0.354C0.369,-0.354 0.363,-0.356 0.357,-0.362C0.35,-0.367 0.342,-0.373 0.333,-0.379C0.323,-0.386 0.311,-0.392 0.297,-0.397C0.283,-0.403 0.267,-0.405 0.248,-0.405C0.209,-0.405 0.18,-0.39 0.159,-0.361C0.138,-0.331 0.128,-0.288 0.128,-0.231C0.128,-0.203 0.131,-0.178 0.136,-0.156C0.141,-0.135 0.149,-0.117 0.16,-0.103C0.17,-0.089 0.183,-0.078 0.198,-0.071C0.213,-0.064 0.23,-0.061 0.25,-0.061C0.269,-0.061 0.285,-0.063 0.299,-0.069C0.313,-0.075 0.325,-0.082 0.335,-0.089C0.345,-0.096 0.354,-0.102 0.361,-0.108C0.368,-0.113 0.374,-0.116 0.377,-0.116C0.38,-0.116 0.382,-0.116 0.383,-0.114C0.385,-0.113 0.386,-0.111 0.387,-0.108C0.389,-0.105 0.389,-0.101 0.39,-0.096C0.39,-0.091 0.391,-0.086 0.391,-0.079Z" style="fill:rgb(232,117,85);fill-rule:nonzero;"/>
                    </g>
                    <g transform="matrix(23.2184,0,0,23.2184,2965.98,623.147)">
                        <path d="M0.406,-0.012C0.406,-0.008 0.404,-0.005 0.402,-0.003C0.399,-0.001 0.396,0 0.391,0.001C0.387,0.002 0.38,0.003 0.371,0.003C0.363,0.003 0.356,0.002 0.351,0.001C0.346,0 0.342,-0.001 0.34,-0.003C0.338,-0.005 0.336,-0.008 0.336,-0.012L0.336,-0.056C0.317,-0.035 0.296,-0.019 0.272,-0.008C0.249,0.004 0.224,0.009 0.197,0.009C0.174,0.009 0.153,0.006 0.135,0C0.116,-0.006 0.1,-0.014 0.087,-0.026C0.073,-0.037 0.063,-0.051 0.056,-0.068C0.049,-0.084 0.045,-0.103 0.045,-0.125C0.045,-0.149 0.05,-0.171 0.06,-0.189C0.07,-0.207 0.085,-0.222 0.104,-0.234C0.122,-0.246 0.146,-0.255 0.173,-0.261C0.2,-0.267 0.231,-0.271 0.265,-0.271L0.326,-0.271L0.326,-0.305C0.326,-0.322 0.324,-0.337 0.32,-0.35C0.317,-0.363 0.311,-0.373 0.303,-0.382C0.295,-0.391 0.285,-0.397 0.272,-0.402C0.259,-0.406 0.244,-0.408 0.225,-0.408C0.205,-0.408 0.187,-0.406 0.172,-0.401C0.156,-0.396 0.142,-0.391 0.13,-0.385C0.118,-0.38 0.108,-0.375 0.1,-0.37C0.092,-0.365 0.086,-0.363 0.083,-0.363C0.08,-0.363 0.078,-0.363 0.076,-0.365C0.074,-0.366 0.072,-0.368 0.071,-0.371C0.069,-0.373 0.068,-0.377 0.067,-0.381C0.067,-0.385 0.066,-0.389 0.066,-0.394C0.066,-0.402 0.067,-0.409 0.068,-0.413C0.069,-0.418 0.072,-0.423 0.076,-0.427C0.081,-0.431 0.088,-0.436 0.099,-0.442C0.11,-0.447 0.122,-0.453 0.136,-0.457C0.15,-0.462 0.166,-0.466 0.182,-0.469C0.199,-0.472 0.215,-0.474 0.232,-0.474C0.264,-0.474 0.291,-0.47 0.313,-0.463C0.335,-0.456 0.353,-0.445 0.367,-0.431C0.38,-0.418 0.39,-0.4 0.396,-0.38C0.403,-0.359 0.406,-0.335 0.406,-0.308L0.406,-0.012ZM0.326,-0.212L0.257,-0.212C0.235,-0.212 0.215,-0.211 0.199,-0.207C0.183,-0.203 0.169,-0.198 0.159,-0.19C0.148,-0.183 0.14,-0.174 0.135,-0.164C0.13,-0.154 0.127,-0.142 0.127,-0.128C0.127,-0.106 0.135,-0.087 0.149,-0.074C0.164,-0.06 0.184,-0.054 0.21,-0.054C0.231,-0.054 0.251,-0.059 0.269,-0.07C0.287,-0.081 0.306,-0.097 0.326,-0.119L0.326,-0.212Z" style="fill:rgb(232,117,85);fill-rule:nonzero;"/>
                    </g>
                    <g transform="matrix(23.2184,0,0,23.2184,2977.1,623.147)">
                        <path d="M0.391,-0.079C0.391,-0.074 0.39,-0.069 0.39,-0.065C0.39,-0.061 0.389,-0.057 0.388,-0.054C0.388,-0.052 0.387,-0.049 0.385,-0.047C0.384,-0.045 0.382,-0.042 0.378,-0.038C0.374,-0.034 0.366,-0.029 0.356,-0.022C0.346,-0.016 0.333,-0.01 0.318,-0.004C0.303,0.002 0.285,0.006 0.266,0.008L0.279,0.036C0.286,0.051 0.291,0.063 0.294,0.073C0.297,0.082 0.298,0.091 0.298,0.1C0.298,0.112 0.296,0.123 0.292,0.133C0.287,0.143 0.28,0.151 0.272,0.157C0.264,0.164 0.253,0.169 0.242,0.173C0.23,0.176 0.217,0.178 0.202,0.178C0.191,0.178 0.18,0.177 0.17,0.176C0.16,0.175 0.151,0.173 0.144,0.171C0.136,0.17 0.131,0.168 0.129,0.167C0.126,0.166 0.124,0.164 0.123,0.162C0.122,0.16 0.121,0.158 0.12,0.155C0.12,0.152 0.12,0.148 0.12,0.143C0.12,0.133 0.121,0.126 0.123,0.123C0.125,0.119 0.128,0.118 0.133,0.118L0.194,0.118C0.204,0.118 0.212,0.115 0.218,0.111C0.224,0.107 0.227,0.1 0.227,0.091C0.227,0.087 0.226,0.082 0.224,0.075C0.222,0.069 0.22,0.062 0.216,0.055L0.193,0.004C0.16,-0.002 0.132,-0.015 0.11,-0.035C0.088,-0.055 0.072,-0.081 0.061,-0.113C0.049,-0.146 0.044,-0.183 0.044,-0.227C0.044,-0.27 0.049,-0.307 0.06,-0.338C0.07,-0.369 0.085,-0.395 0.103,-0.415C0.122,-0.434 0.143,-0.449 0.168,-0.459C0.193,-0.468 0.22,-0.473 0.249,-0.473C0.263,-0.473 0.277,-0.472 0.29,-0.469C0.303,-0.467 0.315,-0.463 0.326,-0.459C0.337,-0.455 0.347,-0.45 0.356,-0.444C0.364,-0.439 0.371,-0.434 0.375,-0.43C0.378,-0.426 0.381,-0.423 0.383,-0.421C0.384,-0.419 0.385,-0.416 0.386,-0.413C0.387,-0.41 0.388,-0.406 0.388,-0.402C0.389,-0.398 0.389,-0.394 0.389,-0.388C0.389,-0.375 0.387,-0.366 0.384,-0.361C0.381,-0.356 0.378,-0.354 0.374,-0.354C0.369,-0.354 0.363,-0.356 0.357,-0.362C0.35,-0.367 0.342,-0.373 0.333,-0.379C0.323,-0.386 0.311,-0.392 0.297,-0.397C0.283,-0.403 0.267,-0.405 0.248,-0.405C0.209,-0.405 0.18,-0.39 0.159,-0.361C0.138,-0.331 0.128,-0.288 0.128,-0.231C0.128,-0.203 0.131,-0.178 0.136,-0.156C0.141,-0.135 0.149,-0.117 0.16,-0.103C0.17,-0.089 0.183,-0.078 0.198,-0.071C0.213,-0.064 0.23,-0.061 0.25,-0.061C0.269,-0.061 0.285,-0.063 0.299,-0.069C0.313,-0.075 0.325,-0.082 0.335,-0.089C0.345,-0.096 0.354,-0.102 0.361,-0.108C0.368,-0.113 0.374,-0.116 0.377,-0.116C0.38,-0.116 0.382,-0.116 0.383,-0.114C0.385,-0.113 0.386,-0.111 0.387,-0.108C0.389,-0.105 0.389,-0.101 0.39,-0.096C0.39,-0.091 0.391,-0.086 0.391,-0.079Z" style="fill:rgb(232,117,85);fill-rule:nonzero;"/>
                    </g>
                    <g transform="matrix(23.2184,0,0,23.2184,2986.72,623.147)">
                        <path d="M0.483,-0.237C0.483,-0.201 0.479,-0.168 0.469,-0.138C0.46,-0.108 0.446,-0.082 0.427,-0.06C0.408,-0.038 0.385,-0.021 0.357,-0.009C0.329,0.003 0.296,0.009 0.259,0.009C0.223,0.009 0.191,0.004 0.164,-0.007C0.137,-0.018 0.115,-0.033 0.097,-0.054C0.079,-0.074 0.066,-0.099 0.057,-0.128C0.048,-0.158 0.044,-0.191 0.044,-0.228C0.044,-0.264 0.049,-0.297 0.058,-0.327C0.067,-0.357 0.081,-0.383 0.1,-0.405C0.119,-0.427 0.142,-0.444 0.17,-0.456C0.198,-0.468 0.231,-0.474 0.268,-0.474C0.304,-0.474 0.336,-0.468 0.363,-0.458C0.389,-0.447 0.412,-0.431 0.43,-0.411C0.448,-0.39 0.461,-0.365 0.47,-0.336C0.479,-0.307 0.483,-0.274 0.483,-0.237ZM0.4,-0.231C0.4,-0.255 0.398,-0.278 0.393,-0.299C0.389,-0.32 0.382,-0.339 0.371,-0.354C0.361,-0.37 0.347,-0.383 0.33,-0.392C0.313,-0.402 0.291,-0.406 0.265,-0.406C0.241,-0.406 0.22,-0.402 0.203,-0.394C0.186,-0.385 0.172,-0.373 0.16,-0.358C0.149,-0.342 0.141,-0.324 0.136,-0.303C0.13,-0.282 0.127,-0.258 0.127,-0.233C0.127,-0.209 0.13,-0.187 0.134,-0.166C0.139,-0.144 0.146,-0.126 0.156,-0.11C0.167,-0.094 0.18,-0.082 0.198,-0.073C0.215,-0.063 0.237,-0.059 0.263,-0.059C0.287,-0.059 0.307,-0.063 0.325,-0.071C0.342,-0.08 0.356,-0.092 0.367,-0.107C0.379,-0.122 0.387,-0.14 0.392,-0.162C0.397,-0.183 0.4,-0.206 0.4,-0.231ZM0.426,-0.642C0.426,-0.607 0.418,-0.581 0.401,-0.563C0.384,-0.544 0.361,-0.535 0.332,-0.535C0.32,-0.535 0.309,-0.537 0.3,-0.54C0.29,-0.543 0.282,-0.547 0.274,-0.552C0.266,-0.557 0.259,-0.562 0.252,-0.567C0.246,-0.573 0.24,-0.578 0.233,-0.583C0.227,-0.588 0.221,-0.592 0.214,-0.595C0.208,-0.598 0.201,-0.6 0.194,-0.6C0.181,-0.6 0.172,-0.595 0.167,-0.585C0.162,-0.576 0.159,-0.563 0.159,-0.548C0.159,-0.546 0.159,-0.544 0.158,-0.542C0.158,-0.54 0.156,-0.539 0.154,-0.538C0.152,-0.537 0.149,-0.536 0.145,-0.536C0.141,-0.535 0.136,-0.535 0.129,-0.535C0.124,-0.535 0.12,-0.535 0.116,-0.536C0.113,-0.536 0.11,-0.537 0.108,-0.539C0.106,-0.54 0.104,-0.542 0.103,-0.545C0.102,-0.548 0.102,-0.551 0.102,-0.556C0.102,-0.588 0.11,-0.614 0.126,-0.633C0.142,-0.652 0.166,-0.662 0.196,-0.662C0.213,-0.662 0.229,-0.658 0.241,-0.652C0.254,-0.645 0.265,-0.638 0.276,-0.63C0.286,-0.622 0.295,-0.614 0.304,-0.607C0.313,-0.601 0.323,-0.597 0.333,-0.597C0.345,-0.597 0.354,-0.601 0.36,-0.61C0.366,-0.619 0.369,-0.632 0.369,-0.648C0.369,-0.654 0.371,-0.657 0.374,-0.659C0.378,-0.661 0.385,-0.662 0.396,-0.662C0.409,-0.662 0.417,-0.66 0.42,-0.658C0.424,-0.656 0.426,-0.65 0.426,-0.642Z" style="fill:rgb(232,117,85);fill-rule:nonzero;"/>
                    </g>
                    <g transform="matrix(23.2184,0,0,23.2184,2998.97,623.147)">
                        <path d="M0.45,-0.251C0.45,-0.238 0.447,-0.229 0.44,-0.224C0.434,-0.219 0.426,-0.216 0.418,-0.216L0.129,-0.216C0.129,-0.191 0.131,-0.169 0.136,-0.15C0.141,-0.13 0.149,-0.114 0.161,-0.1C0.172,-0.086 0.187,-0.075 0.205,-0.067C0.224,-0.06 0.246,-0.056 0.273,-0.056C0.294,-0.056 0.312,-0.058 0.329,-0.061C0.345,-0.065 0.359,-0.069 0.371,-0.073C0.383,-0.077 0.393,-0.081 0.4,-0.084C0.408,-0.088 0.414,-0.089 0.418,-0.089C0.42,-0.089 0.422,-0.089 0.424,-0.088C0.426,-0.087 0.427,-0.085 0.428,-0.083C0.429,-0.08 0.43,-0.077 0.43,-0.073C0.431,-0.069 0.431,-0.064 0.431,-0.058C0.431,-0.054 0.431,-0.05 0.431,-0.047C0.43,-0.044 0.43,-0.041 0.429,-0.039C0.429,-0.036 0.428,-0.034 0.427,-0.032C0.426,-0.03 0.424,-0.028 0.423,-0.027C0.421,-0.025 0.416,-0.022 0.407,-0.018C0.398,-0.014 0.387,-0.01 0.373,-0.006C0.359,-0.002 0.342,0.002 0.324,0.005C0.306,0.008 0.286,0.009 0.265,0.009C0.229,0.009 0.197,0.004 0.17,-0.006C0.143,-0.016 0.12,-0.031 0.102,-0.051C0.083,-0.071 0.069,-0.096 0.06,-0.125C0.05,-0.155 0.045,-0.19 0.045,-0.23C0.045,-0.268 0.05,-0.302 0.06,-0.332C0.07,-0.362 0.084,-0.387 0.102,-0.408C0.121,-0.429 0.143,-0.446 0.169,-0.457C0.195,-0.468 0.224,-0.474 0.256,-0.474C0.291,-0.474 0.32,-0.468 0.344,-0.457C0.369,-0.446 0.389,-0.431 0.404,-0.412C0.42,-0.394 0.431,-0.372 0.439,-0.346C0.446,-0.321 0.45,-0.294 0.45,-0.266L0.45,-0.251ZM0.369,-0.275C0.37,-0.317 0.36,-0.35 0.34,-0.375C0.321,-0.399 0.291,-0.411 0.252,-0.411C0.232,-0.411 0.215,-0.407 0.2,-0.399C0.185,-0.392 0.172,-0.382 0.162,-0.37C0.152,-0.357 0.144,-0.343 0.138,-0.326C0.133,-0.31 0.13,-0.293 0.129,-0.275L0.369,-0.275Z" style="fill:rgb(232,117,85);fill-rule:nonzero;"/>
                    </g>
                    <g transform="matrix(23.2184,0,0,23.2184,3010.52,623.147)">
                        <path d="M0.351,-0.132C0.351,-0.109 0.346,-0.089 0.338,-0.072C0.33,-0.054 0.318,-0.039 0.303,-0.027C0.287,-0.015 0.269,-0.006 0.248,0C0.227,0.006 0.204,0.009 0.178,0.009C0.163,0.009 0.148,0.008 0.134,0.006C0.119,0.003 0.107,0 0.095,-0.004C0.084,-0.007 0.075,-0.011 0.067,-0.015C0.059,-0.019 0.053,-0.023 0.05,-0.026C0.046,-0.03 0.044,-0.034 0.042,-0.04C0.04,-0.046 0.04,-0.054 0.04,-0.064C0.04,-0.07 0.04,-0.075 0.041,-0.08C0.041,-0.084 0.042,-0.087 0.043,-0.09C0.044,-0.092 0.045,-0.094 0.047,-0.095C0.049,-0.097 0.051,-0.097 0.053,-0.097C0.057,-0.097 0.062,-0.095 0.069,-0.091C0.076,-0.086 0.085,-0.081 0.095,-0.076C0.105,-0.071 0.117,-0.066 0.131,-0.062C0.145,-0.057 0.161,-0.055 0.18,-0.055C0.193,-0.055 0.206,-0.057 0.217,-0.06C0.228,-0.063 0.237,-0.067 0.246,-0.073C0.254,-0.078 0.26,-0.085 0.264,-0.094C0.269,-0.103 0.271,-0.113 0.271,-0.125C0.271,-0.138 0.268,-0.148 0.261,-0.157C0.255,-0.165 0.247,-0.173 0.236,-0.179C0.226,-0.186 0.214,-0.191 0.201,-0.197C0.188,-0.202 0.175,-0.207 0.161,-0.212C0.147,-0.218 0.134,-0.224 0.12,-0.231C0.107,-0.238 0.095,-0.247 0.085,-0.257C0.075,-0.267 0.066,-0.279 0.06,-0.293C0.053,-0.307 0.05,-0.324 0.05,-0.343C0.05,-0.361 0.054,-0.377 0.06,-0.393C0.067,-0.409 0.077,-0.422 0.09,-0.434C0.104,-0.446 0.12,-0.456 0.14,-0.463C0.16,-0.47 0.184,-0.474 0.21,-0.474C0.222,-0.474 0.234,-0.473 0.246,-0.471C0.257,-0.469 0.268,-0.466 0.277,-0.463C0.287,-0.46 0.295,-0.457 0.302,-0.454C0.308,-0.45 0.313,-0.447 0.317,-0.445C0.32,-0.442 0.322,-0.44 0.323,-0.438C0.325,-0.436 0.325,-0.434 0.326,-0.431C0.326,-0.429 0.327,-0.426 0.327,-0.422C0.328,-0.419 0.328,-0.414 0.328,-0.409C0.328,-0.404 0.328,-0.399 0.327,-0.395C0.327,-0.391 0.326,-0.387 0.325,-0.385C0.324,-0.382 0.322,-0.38 0.321,-0.379C0.319,-0.378 0.317,-0.377 0.315,-0.377C0.313,-0.377 0.308,-0.379 0.303,-0.383C0.297,-0.386 0.29,-0.39 0.281,-0.394C0.272,-0.398 0.262,-0.402 0.25,-0.406C0.238,-0.409 0.225,-0.411 0.209,-0.411C0.196,-0.411 0.184,-0.41 0.173,-0.406C0.163,-0.403 0.154,-0.399 0.148,-0.393C0.141,-0.388 0.136,-0.381 0.133,-0.373C0.129,-0.365 0.127,-0.357 0.127,-0.348C0.127,-0.335 0.131,-0.324 0.137,-0.316C0.144,-0.307 0.152,-0.299 0.163,-0.293C0.173,-0.286 0.185,-0.281 0.198,-0.275C0.212,-0.27 0.225,-0.265 0.239,-0.259C0.253,-0.254 0.267,-0.248 0.28,-0.241C0.294,-0.234 0.306,-0.226 0.316,-0.216C0.326,-0.206 0.335,-0.194 0.341,-0.181C0.347,-0.167 0.351,-0.151 0.351,-0.132Z" style="fill:rgb(232,117,85);fill-rule:nonzero;"/>
                    </g>
                </g>
            </g>
        </g>
    </g>
</svg>
