<?xml version="1.0" encoding="UTF-8" standalone="no"?>
<!DOCTYPE svg PUBLIC "-//W3C//DTD SVG 1.1//EN" "http://www.w3.org/Graphics/SVG/1.1/DTD/svg11.dtd">
<svg width="100%" height="100%" viewBox="0 0 2048 468" version="1.1" xmlns="http://www.w3.org/2000/svg" xmlns:xlink="http://www.w3.org/1999/xlink" xml:space="preserve" xmlns:serif="http://www.serif.com/" style="fill-rule:evenodd;clip-rule:evenodd;stroke-linejoin:round;stroke-miterlimit:2;">
    <g transform="matrix(1,0,0,1,-4311.75,-1070.37)">
        <g id="Logo-Branca" serif:id="Logo Branca" transform="matrix(1,0,0,0.304338,15.7548,1070.37)">
            <rect x="4296" y="0" width="2048" height="1536" style="fill:none;"/>
            <g transform="matrix(1,0,0,3.28583,0,-2964.35)">
                <g transform="matrix(-3.33061,1.22365e-15,1.22365e-15,3.33061,7736.91,-166.378)">
                    <path d="M869.956,364.227C861.141,393.334 838.181,416.29 809.066,425.092L865.8,425.092C866.902,425.092 867.959,424.654 868.739,423.875C869.518,423.095 869.956,422.039 869.956,420.936L869.956,364.227Z" style="fill:rgb(226,226,226);"/>
                </g>
                <g transform="matrix(-8.74426,3.21259e-15,3.21259e-15,8.74426,12433.5,-2454.63)">
                    <path d="M843.548,397.106C843.129,397.106 842.726,397.272 842.429,397.569C842.132,397.866 841.966,398.269 841.966,398.688L841.966,422.017C841.966,422.437 842.132,422.839 842.429,423.136C842.726,423.433 843.129,423.6 843.548,423.6L845.267,423.6C856.356,420.248 865.103,411.505 868.46,400.417L868.46,398.688C868.46,398.269 868.293,397.866 867.996,397.569C867.699,397.272 867.297,397.106 866.877,397.106L843.548,397.106ZM843.548,397.914L866.877,397.914C867.306,397.925 867.64,398.259 867.651,398.688L867.651,400.296C864.359,411.034 855.885,419.504 845.146,422.791L843.548,422.791C843.343,422.791 843.146,422.709 843.001,422.564C842.856,422.419 842.775,422.222 842.775,422.017L842.775,398.688C842.775,398.483 842.856,398.286 843.001,398.141C843.146,397.996 843.343,397.914 843.548,397.914Z" style="fill:rgb(226,226,226);"/>
                </g>
                <g transform="matrix(0,1.38403,1.38403,0,3569.1,-2436.76)">
                    <g transform="matrix(-0.132879,-0.132879,-0.63739,0.63739,2906.74,888.074)">
                        <path d="M869.956,355.534L800.397,364.219L800.397,425.092L869.956,355.534Z" style="fill:rgb(226,226,226);"/>
                    </g>
                    <g transform="matrix(0.132879,0.132879,0.63739,-0.63739,2224.15,1145.23)">
                        <path d="M869.956,355.534L800.397,364.219L800.397,425.092L869.956,355.534Z" style="fill:rgb(226,226,226);"/>
                    </g>
                </g>
                <g transform="matrix(0.889879,0,0,0.889879,801.917,60.6982)">
                    <g transform="matrix(93.54,0,0,93.54,4841.79,1147.12)">
                        <path d="M0.907,-0.516C0.907,-0.555 0.903,-0.586 0.894,-0.608C0.886,-0.631 0.872,-0.648 0.852,-0.66C0.833,-0.672 0.807,-0.679 0.775,-0.683C0.743,-0.686 0.704,-0.688 0.657,-0.688L0.406,-0.688C0.364,-0.688 0.329,-0.686 0.301,-0.684C0.272,-0.681 0.249,-0.676 0.23,-0.669C0.211,-0.661 0.197,-0.651 0.187,-0.637C0.177,-0.623 0.17,-0.604 0.165,-0.581C0.16,-0.558 0.158,-0.53 0.157,-0.496C0.157,-0.462 0.156,-0.422 0.156,-0.375C0.156,-0.328 0.157,-0.288 0.157,-0.254C0.158,-0.22 0.161,-0.192 0.166,-0.169C0.17,-0.146 0.177,-0.127 0.187,-0.113C0.197,-0.099 0.211,-0.089 0.23,-0.081C0.249,-0.074 0.272,-0.069 0.301,-0.066C0.329,-0.064 0.364,-0.063 0.406,-0.063L0.657,-0.063C0.694,-0.063 0.725,-0.063 0.751,-0.065C0.778,-0.067 0.8,-0.071 0.819,-0.076C0.837,-0.081 0.852,-0.089 0.864,-0.098C0.875,-0.107 0.884,-0.118 0.89,-0.132C0.897,-0.146 0.901,-0.163 0.903,-0.182C0.906,-0.201 0.907,-0.224 0.907,-0.25L0.907,-0.297L0.531,-0.297L0.531,-0.375L1,-0.375L1,-0.25C1,-0.219 0.999,-0.191 0.995,-0.165C0.991,-0.14 0.984,-0.118 0.974,-0.098C0.964,-0.078 0.951,-0.061 0.934,-0.047C0.917,-0.033 0.896,-0.021 0.871,-0.011C0.846,-0.002 0.815,0.005 0.78,0.009C0.745,0.013 0.704,0.016 0.657,0.016L0.406,0.016C0.348,0.016 0.3,0.012 0.261,0.005C0.222,-0.002 0.189,-0.012 0.164,-0.027C0.139,-0.041 0.119,-0.059 0.105,-0.08C0.091,-0.102 0.081,-0.127 0.075,-0.156C0.069,-0.185 0.065,-0.217 0.064,-0.254C0.063,-0.29 0.063,-0.331 0.063,-0.375C0.063,-0.419 0.063,-0.46 0.064,-0.496C0.065,-0.533 0.069,-0.565 0.075,-0.594C0.081,-0.623 0.091,-0.648 0.105,-0.67C0.119,-0.691 0.139,-0.709 0.164,-0.723C0.189,-0.738 0.222,-0.748 0.261,-0.755C0.3,-0.762 0.348,-0.766 0.406,-0.766L0.657,-0.766C0.704,-0.766 0.745,-0.763 0.78,-0.759C0.815,-0.755 0.845,-0.748 0.871,-0.739C0.896,-0.73 0.917,-0.719 0.934,-0.705C0.951,-0.691 0.964,-0.675 0.974,-0.657C0.984,-0.638 0.991,-0.617 0.995,-0.594C0.999,-0.57 1,-0.544 1,-0.516L0.907,-0.516Z" style="fill:rgb(226,226,226);fill-rule:nonzero;"/>
                    </g>
                    <g transform="matrix(93.54,0,0,93.54,4941.22,1147.12)">
                        <path d="M0.094,0L0.094,-0.75L0.719,-0.75C0.766,-0.75 0.804,-0.746 0.833,-0.739C0.861,-0.731 0.883,-0.72 0.899,-0.705C0.914,-0.69 0.924,-0.672 0.93,-0.649C0.935,-0.627 0.938,-0.602 0.938,-0.573C0.938,-0.552 0.936,-0.534 0.932,-0.518C0.929,-0.502 0.924,-0.488 0.918,-0.477C0.912,-0.465 0.905,-0.455 0.898,-0.447C0.89,-0.439 0.883,-0.432 0.875,-0.427C0.857,-0.415 0.836,-0.408 0.813,-0.406C0.842,-0.405 0.868,-0.397 0.891,-0.385C0.9,-0.379 0.91,-0.372 0.919,-0.364C0.928,-0.356 0.937,-0.345 0.944,-0.333C0.951,-0.321 0.957,-0.307 0.962,-0.29C0.966,-0.274 0.969,-0.255 0.969,-0.233C0.969,-0.207 0.968,-0.184 0.965,-0.162C0.963,-0.14 0.958,-0.121 0.95,-0.104C0.943,-0.086 0.932,-0.071 0.918,-0.058C0.904,-0.045 0.885,-0.034 0.862,-0.026C0.839,-0.017 0.81,-0.011 0.777,-0.006C0.743,-0.002 0.703,0 0.656,0L0.094,0ZM0.625,-0.078C0.661,-0.078 0.693,-0.079 0.719,-0.08C0.746,-0.081 0.769,-0.083 0.787,-0.087C0.806,-0.091 0.821,-0.096 0.832,-0.103C0.843,-0.11 0.852,-0.12 0.859,-0.131C0.865,-0.143 0.869,-0.157 0.872,-0.173C0.874,-0.19 0.875,-0.21 0.875,-0.233C0.875,-0.252 0.874,-0.267 0.872,-0.281C0.869,-0.295 0.865,-0.306 0.859,-0.315C0.852,-0.324 0.843,-0.332 0.832,-0.338C0.821,-0.343 0.806,-0.348 0.787,-0.351C0.769,-0.354 0.746,-0.357 0.719,-0.358C0.693,-0.359 0.661,-0.359 0.625,-0.359L0.188,-0.359L0.188,-0.078L0.625,-0.078ZM0.625,-0.438C0.656,-0.438 0.684,-0.438 0.707,-0.439C0.73,-0.441 0.75,-0.443 0.766,-0.447C0.782,-0.45 0.796,-0.455 0.806,-0.462C0.816,-0.468 0.824,-0.476 0.829,-0.486C0.835,-0.496 0.839,-0.509 0.841,-0.523C0.843,-0.537 0.844,-0.554 0.844,-0.573C0.844,-0.594 0.841,-0.611 0.837,-0.624C0.832,-0.637 0.824,-0.647 0.813,-0.654C0.801,-0.661 0.785,-0.666 0.765,-0.668C0.745,-0.671 0.719,-0.672 0.688,-0.672L0.188,-0.672L0.188,-0.438L0.625,-0.438Z" style="fill:rgb(226,226,226);fill-rule:nonzero;"/>
                    </g>
                    <g transform="matrix(93.54,0,0,93.54,4841.79,1240.66)">
                        <path d="M0.094,0L0.094,-0.75L0.844,-0.75L0.844,-0.672L0.188,-0.672L0.188,-0.422L0.813,-0.422L0.813,-0.344L0.188,-0.344L0.188,-0.078L0.844,-0.078L0.844,0L0.094,0Z" style="fill:rgb(226,226,226);fill-rule:nonzero;"/>
                    </g>
                    <g transform="matrix(93.54,0,0,93.54,4923.64,1240.66)">
                        <path d="M0.188,0L0.094,0L0.094,-0.75L0.258,-0.75L0.946,-0.094L0.946,-0.75L1.04,-0.75L1.04,0L0.915,0L0.188,-0.672L0.188,0Z" style="fill:rgb(226,226,226);fill-rule:nonzero;"/>
                    </g>
                    <g transform="matrix(93.54,0,0,93.54,5029.64,1240.66)">
                        <path d="M0.094,0L0.094,-0.75L0.844,-0.75L0.844,-0.672L0.188,-0.672L0.188,-0.422L0.813,-0.422L0.813,-0.344L0.188,-0.344L0.188,-0.078L0.844,-0.078L0.844,0L0.094,0Z" style="fill:rgb(226,226,226);fill-rule:nonzero;"/>
                    </g>
                    <g transform="matrix(93.54,0,0,93.54,5111.49,1240.66)">
                        <path d="M0.953,0L0.859,0L0.859,-0.141C0.859,-0.163 0.859,-0.183 0.858,-0.199C0.857,-0.216 0.855,-0.23 0.85,-0.242C0.845,-0.253 0.838,-0.263 0.828,-0.27C0.818,-0.277 0.803,-0.283 0.785,-0.287C0.766,-0.291 0.743,-0.293 0.714,-0.295C0.686,-0.296 0.651,-0.297 0.609,-0.297L0.188,-0.297L0.188,0L0.094,0L0.094,-0.75L0.625,-0.75C0.682,-0.75 0.73,-0.748 0.769,-0.744C0.809,-0.74 0.841,-0.734 0.866,-0.726C0.892,-0.717 0.912,-0.707 0.926,-0.695C0.939,-0.683 0.949,-0.669 0.956,-0.653C0.962,-0.637 0.966,-0.618 0.967,-0.598C0.968,-0.578 0.969,-0.556 0.969,-0.531C0.969,-0.5 0.967,-0.473 0.962,-0.449C0.958,-0.425 0.95,-0.405 0.94,-0.389C0.93,-0.372 0.916,-0.359 0.898,-0.349C0.881,-0.339 0.86,-0.332 0.833,-0.328C0.86,-0.324 0.88,-0.317 0.896,-0.308C0.912,-0.298 0.924,-0.285 0.932,-0.27C0.941,-0.254 0.946,-0.235 0.949,-0.214C0.952,-0.192 0.953,-0.168 0.953,-0.141L0.953,0ZM0.188,-0.375L0.625,-0.375C0.666,-0.375 0.701,-0.376 0.73,-0.377C0.758,-0.379 0.782,-0.381 0.8,-0.385C0.819,-0.389 0.833,-0.395 0.843,-0.402C0.853,-0.409 0.861,-0.418 0.865,-0.43C0.87,-0.442 0.873,-0.456 0.874,-0.472C0.875,-0.489 0.875,-0.508 0.875,-0.531C0.875,-0.552 0.875,-0.571 0.874,-0.586C0.873,-0.601 0.87,-0.614 0.865,-0.625C0.861,-0.635 0.853,-0.643 0.843,-0.649C0.833,-0.656 0.819,-0.66 0.8,-0.664C0.782,-0.667 0.758,-0.669 0.73,-0.67C0.701,-0.671 0.666,-0.672 0.625,-0.672L0.188,-0.672L0.188,-0.375Z" style="fill:rgb(226,226,226);fill-rule:nonzero;"/>
                    </g>
                    <g transform="matrix(93.54,0,0,93.54,5207.95,1240.66)">
                        <path d="M0.907,-0.516C0.907,-0.555 0.903,-0.586 0.894,-0.608C0.886,-0.631 0.872,-0.648 0.852,-0.66C0.833,-0.672 0.807,-0.679 0.775,-0.683C0.743,-0.686 0.704,-0.688 0.657,-0.688L0.406,-0.688C0.364,-0.688 0.329,-0.686 0.301,-0.684C0.272,-0.681 0.249,-0.676 0.23,-0.669C0.211,-0.661 0.197,-0.651 0.187,-0.637C0.177,-0.623 0.17,-0.604 0.165,-0.581C0.16,-0.558 0.158,-0.53 0.157,-0.496C0.157,-0.462 0.156,-0.422 0.156,-0.375C0.156,-0.328 0.157,-0.288 0.157,-0.254C0.158,-0.22 0.161,-0.192 0.166,-0.169C0.17,-0.146 0.177,-0.127 0.187,-0.113C0.197,-0.099 0.211,-0.089 0.23,-0.081C0.249,-0.074 0.272,-0.069 0.301,-0.066C0.329,-0.064 0.364,-0.063 0.406,-0.063L0.657,-0.063C0.694,-0.063 0.725,-0.063 0.751,-0.065C0.778,-0.067 0.8,-0.071 0.819,-0.076C0.837,-0.081 0.852,-0.089 0.864,-0.098C0.875,-0.107 0.884,-0.118 0.89,-0.132C0.897,-0.146 0.901,-0.163 0.903,-0.182C0.906,-0.201 0.907,-0.224 0.907,-0.25L0.907,-0.297L0.531,-0.297L0.531,-0.375L1,-0.375L1,-0.25C1,-0.219 0.999,-0.191 0.995,-0.165C0.991,-0.14 0.984,-0.118 0.974,-0.098C0.964,-0.078 0.951,-0.061 0.934,-0.047C0.917,-0.033 0.896,-0.021 0.871,-0.011C0.846,-0.002 0.815,0.005 0.78,0.009C0.745,0.013 0.704,0.016 0.657,0.016L0.406,0.016C0.348,0.016 0.3,0.012 0.261,0.005C0.222,-0.002 0.189,-0.012 0.164,-0.027C0.139,-0.041 0.119,-0.059 0.105,-0.08C0.091,-0.102 0.081,-0.127 0.075,-0.156C0.069,-0.185 0.065,-0.217 0.064,-0.254C0.063,-0.29 0.063,-0.331 0.063,-0.375C0.063,-0.419 0.063,-0.46 0.064,-0.496C0.065,-0.533 0.069,-0.565 0.075,-0.594C0.081,-0.623 0.091,-0.648 0.105,-0.67C0.119,-0.691 0.139,-0.709 0.164,-0.723C0.189,-0.738 0.222,-0.748 0.261,-0.755C0.3,-0.762 0.348,-0.766 0.406,-0.766L0.657,-0.766C0.704,-0.766 0.745,-0.763 0.78,-0.759C0.815,-0.755 0.845,-0.748 0.871,-0.739C0.896,-0.73 0.917,-0.719 0.934,-0.705C0.951,-0.691 0.964,-0.675 0.974,-0.657C0.984,-0.638 0.991,-0.617 0.995,-0.594C0.999,-0.57 1,-0.544 1,-0.516L0.907,-0.516Z" style="fill:rgb(226,226,226);fill-rule:nonzero;"/>
                    </g>
                    <g transform="matrix(93.54,0,0,93.54,5307.39,1240.66)">
                        <path d="M0.063,-0.75L0.188,-0.75L0.531,-0.383L0.875,-0.75L1,-0.75L0.578,-0.313L0.578,0L0.484,0L0.484,-0.313L0.063,-0.75Z" style="fill:rgb(226,226,226);fill-rule:nonzero;"/>
                    </g>
                    <g transform="matrix(93.54,0,0,93.54,4841.79,1334.2)">
                        <path d="M0.566,-0.422C0.618,-0.422 0.662,-0.42 0.699,-0.416C0.736,-0.411 0.767,-0.405 0.792,-0.397C0.817,-0.388 0.837,-0.378 0.852,-0.366C0.867,-0.353 0.879,-0.339 0.887,-0.323C0.895,-0.308 0.9,-0.29 0.903,-0.271C0.905,-0.251 0.906,-0.23 0.906,-0.207C0.906,-0.184 0.904,-0.163 0.9,-0.143C0.896,-0.123 0.889,-0.104 0.878,-0.088C0.868,-0.071 0.854,-0.056 0.836,-0.043C0.818,-0.03 0.795,-0.019 0.768,-0.01C0.74,-0.001 0.707,0.006 0.668,0.01C0.629,0.015 0.583,0.018 0.531,0.018L0.406,0.018C0.359,0.018 0.318,0.016 0.283,0.012C0.248,0.009 0.218,0.003 0.192,-0.004C0.167,-0.011 0.146,-0.021 0.129,-0.032C0.113,-0.043 0.1,-0.056 0.09,-0.072C0.08,-0.087 0.073,-0.104 0.069,-0.123C0.065,-0.143 0.063,-0.164 0.063,-0.188L0.157,-0.188C0.157,-0.158 0.161,-0.135 0.169,-0.119C0.178,-0.102 0.192,-0.09 0.211,-0.081C0.231,-0.073 0.257,-0.068 0.288,-0.066C0.32,-0.064 0.359,-0.063 0.406,-0.063L0.531,-0.063C0.586,-0.063 0.631,-0.065 0.667,-0.07C0.704,-0.076 0.732,-0.084 0.754,-0.095C0.775,-0.107 0.791,-0.122 0.799,-0.14C0.808,-0.158 0.813,-0.181 0.813,-0.207C0.813,-0.233 0.809,-0.255 0.803,-0.273C0.797,-0.291 0.786,-0.305 0.768,-0.315C0.75,-0.325 0.725,-0.333 0.693,-0.337C0.661,-0.342 0.618,-0.344 0.566,-0.344L0.438,-0.344C0.38,-0.344 0.331,-0.346 0.29,-0.35C0.249,-0.354 0.215,-0.36 0.188,-0.368C0.16,-0.376 0.138,-0.386 0.121,-0.398C0.104,-0.41 0.092,-0.424 0.083,-0.439C0.075,-0.454 0.069,-0.471 0.066,-0.49C0.064,-0.509 0.063,-0.529 0.063,-0.551C0.063,-0.574 0.065,-0.595 0.069,-0.614C0.073,-0.634 0.08,-0.651 0.091,-0.667C0.102,-0.683 0.118,-0.697 0.137,-0.709C0.156,-0.722 0.181,-0.732 0.211,-0.74C0.241,-0.749 0.277,-0.755 0.319,-0.759C0.362,-0.764 0.411,-0.766 0.469,-0.766L0.563,-0.766C0.609,-0.766 0.65,-0.764 0.686,-0.76C0.721,-0.757 0.751,-0.752 0.776,-0.744C0.802,-0.737 0.823,-0.728 0.84,-0.717C0.856,-0.706 0.87,-0.693 0.88,-0.678C0.89,-0.663 0.896,-0.646 0.9,-0.626C0.904,-0.607 0.906,-0.586 0.906,-0.563L0.813,-0.563C0.813,-0.592 0.808,-0.615 0.8,-0.631C0.791,-0.648 0.777,-0.66 0.758,-0.669C0.738,-0.677 0.713,-0.682 0.681,-0.684C0.649,-0.686 0.609,-0.688 0.563,-0.688L0.469,-0.688C0.406,-0.688 0.355,-0.685 0.314,-0.681C0.274,-0.677 0.242,-0.669 0.219,-0.659C0.195,-0.648 0.179,-0.634 0.17,-0.617C0.161,-0.599 0.156,-0.577 0.156,-0.551C0.156,-0.535 0.157,-0.52 0.16,-0.507C0.162,-0.495 0.167,-0.483 0.174,-0.474C0.181,-0.464 0.19,-0.456 0.203,-0.45C0.216,-0.443 0.233,-0.438 0.253,-0.434C0.274,-0.429 0.3,-0.426 0.33,-0.425C0.36,-0.423 0.396,-0.422 0.438,-0.422L0.566,-0.422Z" style="fill:rgb(226,226,226);fill-rule:nonzero;"/>
                    </g>
                    <g transform="matrix(93.54,0,0,93.54,4932.4,1334.2)">
                        <path d="M0.688,-0.766C0.745,-0.766 0.794,-0.762 0.833,-0.755C0.872,-0.748 0.904,-0.738 0.93,-0.723C0.955,-0.709 0.975,-0.691 0.988,-0.67C1.002,-0.648 1.012,-0.623 1.018,-0.594C1.025,-0.565 1.028,-0.533 1.03,-0.496C1.031,-0.46 1.031,-0.419 1.031,-0.375C1.031,-0.331 1.031,-0.29 1.03,-0.254C1.028,-0.217 1.025,-0.185 1.018,-0.156C1.012,-0.127 1.002,-0.102 0.988,-0.08C0.975,-0.059 0.955,-0.041 0.93,-0.027C0.904,-0.012 0.872,-0.002 0.833,0.005C0.794,0.012 0.745,0.016 0.688,0.016L0.406,0.016C0.348,0.016 0.3,0.012 0.261,0.005C0.222,-0.002 0.189,-0.012 0.164,-0.027C0.139,-0.041 0.119,-0.059 0.105,-0.08C0.091,-0.102 0.081,-0.127 0.075,-0.156C0.069,-0.185 0.065,-0.217 0.064,-0.254C0.063,-0.29 0.063,-0.331 0.063,-0.375C0.063,-0.419 0.063,-0.46 0.064,-0.496C0.065,-0.533 0.069,-0.565 0.075,-0.594C0.081,-0.623 0.091,-0.648 0.105,-0.67C0.119,-0.691 0.139,-0.709 0.164,-0.723C0.189,-0.738 0.222,-0.748 0.261,-0.755C0.3,-0.762 0.348,-0.766 0.406,-0.766L0.688,-0.766ZM0.688,-0.063C0.729,-0.063 0.764,-0.064 0.793,-0.066C0.821,-0.069 0.845,-0.074 0.863,-0.081C0.882,-0.089 0.896,-0.099 0.906,-0.113C0.916,-0.127 0.924,-0.146 0.928,-0.169C0.933,-0.192 0.935,-0.22 0.936,-0.254C0.937,-0.288 0.938,-0.328 0.938,-0.375C0.938,-0.422 0.937,-0.462 0.936,-0.496C0.935,-0.53 0.933,-0.558 0.928,-0.581C0.924,-0.604 0.916,-0.623 0.906,-0.637C0.896,-0.651 0.882,-0.661 0.864,-0.669C0.845,-0.676 0.822,-0.681 0.793,-0.684C0.765,-0.686 0.73,-0.688 0.688,-0.688L0.406,-0.688C0.364,-0.688 0.329,-0.686 0.301,-0.684C0.272,-0.681 0.249,-0.676 0.23,-0.669C0.211,-0.661 0.197,-0.651 0.187,-0.637C0.177,-0.623 0.17,-0.604 0.165,-0.581C0.16,-0.558 0.158,-0.53 0.157,-0.496C0.157,-0.462 0.156,-0.422 0.156,-0.375C0.156,-0.328 0.157,-0.288 0.157,-0.254C0.158,-0.22 0.161,-0.192 0.166,-0.169C0.17,-0.146 0.177,-0.127 0.187,-0.113C0.197,-0.099 0.211,-0.089 0.23,-0.081C0.249,-0.074 0.272,-0.069 0.301,-0.066C0.329,-0.064 0.364,-0.063 0.406,-0.063L0.688,-0.063Z" style="fill:rgb(226,226,226);fill-rule:nonzero;"/>
                    </g>
                    <g transform="matrix(93.54,0,0,93.54,5034.71,1334.2)">
                        <path d="M0.094,0L0.094,-0.75L0.188,-0.75L0.188,-0.078L0.781,-0.078L0.781,0L0.094,0Z" style="fill:rgb(226,226,226);fill-rule:nonzero;"/>
                    </g>
                    <g transform="matrix(93.54,0,0,93.54,5110.72,1334.2)">
                        <path d="M0.969,-0.75L0.969,-0.375C0.969,-0.331 0.969,-0.29 0.968,-0.254C0.966,-0.217 0.963,-0.185 0.956,-0.156C0.95,-0.127 0.94,-0.102 0.926,-0.08C0.913,-0.059 0.893,-0.041 0.868,-0.027C0.842,-0.012 0.81,-0.002 0.771,0.005C0.732,0.012 0.683,0.016 0.626,0.016L0.406,0.016C0.349,0.016 0.301,0.012 0.261,0.005C0.222,-0.002 0.19,-0.012 0.165,-0.027C0.139,-0.041 0.12,-0.059 0.106,-0.08C0.092,-0.102 0.082,-0.127 0.075,-0.156C0.069,-0.185 0.065,-0.217 0.064,-0.254C0.063,-0.29 0.063,-0.331 0.063,-0.375L0.063,-0.75L0.157,-0.75L0.157,-0.375C0.157,-0.328 0.157,-0.288 0.158,-0.254C0.159,-0.22 0.161,-0.192 0.166,-0.169C0.171,-0.146 0.178,-0.127 0.188,-0.113C0.198,-0.099 0.212,-0.089 0.23,-0.081C0.249,-0.074 0.273,-0.069 0.301,-0.066C0.33,-0.064 0.365,-0.063 0.406,-0.063L0.626,-0.063C0.667,-0.063 0.702,-0.064 0.731,-0.066C0.76,-0.069 0.783,-0.074 0.802,-0.081C0.82,-0.089 0.834,-0.099 0.844,-0.113C0.854,-0.127 0.862,-0.146 0.866,-0.169C0.871,-0.192 0.874,-0.22 0.875,-0.254C0.875,-0.288 0.875,-0.328 0.875,-0.375L0.875,-0.75L0.969,-0.75Z" style="fill:rgb(226,226,226);fill-rule:nonzero;"/>
                    </g>
                    <g transform="matrix(93.54,0,0,93.54,5207.22,1334.2)">
                        <path d="M0.906,-0.75L0.906,-0.672L0.531,-0.672L0.531,0L0.438,0L0.438,-0.672L0.063,-0.672L0.063,-0.75L0.906,-0.75Z" style="fill:rgb(226,226,226);fill-rule:nonzero;"/>
                    </g>
                    <g transform="matrix(93.54,0,0,93.54,5297.84,1334.2)">
                        <rect x="0.094" y="-0.75" width="0.094" height="0.75" style="fill:rgb(226,226,226);fill-rule:nonzero;"/>
                    </g>
                    <g transform="matrix(93.54,0,0,93.54,5324.15,1334.2)">
                        <path d="M0.688,-0.766C0.745,-0.766 0.794,-0.762 0.833,-0.755C0.872,-0.748 0.904,-0.738 0.93,-0.723C0.955,-0.709 0.975,-0.691 0.988,-0.67C1.002,-0.648 1.012,-0.623 1.018,-0.594C1.025,-0.565 1.028,-0.533 1.03,-0.496C1.031,-0.46 1.031,-0.419 1.031,-0.375C1.031,-0.331 1.031,-0.29 1.03,-0.254C1.028,-0.217 1.025,-0.185 1.018,-0.156C1.012,-0.127 1.002,-0.102 0.988,-0.08C0.975,-0.059 0.955,-0.041 0.93,-0.027C0.904,-0.012 0.872,-0.002 0.833,0.005C0.794,0.012 0.745,0.016 0.688,0.016L0.406,0.016C0.348,0.016 0.3,0.012 0.261,0.005C0.222,-0.002 0.189,-0.012 0.164,-0.027C0.139,-0.041 0.119,-0.059 0.105,-0.08C0.091,-0.102 0.081,-0.127 0.075,-0.156C0.069,-0.185 0.065,-0.217 0.064,-0.254C0.063,-0.29 0.063,-0.331 0.063,-0.375C0.063,-0.419 0.063,-0.46 0.064,-0.496C0.065,-0.533 0.069,-0.565 0.075,-0.594C0.081,-0.623 0.091,-0.648 0.105,-0.67C0.119,-0.691 0.139,-0.709 0.164,-0.723C0.189,-0.738 0.222,-0.748 0.261,-0.755C0.3,-0.762 0.348,-0.766 0.406,-0.766L0.688,-0.766ZM0.688,-0.063C0.729,-0.063 0.764,-0.064 0.793,-0.066C0.821,-0.069 0.845,-0.074 0.863,-0.081C0.882,-0.089 0.896,-0.099 0.906,-0.113C0.916,-0.127 0.924,-0.146 0.928,-0.169C0.933,-0.192 0.935,-0.22 0.936,-0.254C0.937,-0.288 0.938,-0.328 0.938,-0.375C0.938,-0.422 0.937,-0.462 0.936,-0.496C0.935,-0.53 0.933,-0.558 0.928,-0.581C0.924,-0.604 0.916,-0.623 0.906,-0.637C0.896,-0.651 0.882,-0.661 0.864,-0.669C0.845,-0.676 0.822,-0.681 0.793,-0.684C0.765,-0.686 0.73,-0.688 0.688,-0.688L0.406,-0.688C0.364,-0.688 0.329,-0.686 0.301,-0.684C0.272,-0.681 0.249,-0.676 0.23,-0.669C0.211,-0.661 0.197,-0.651 0.187,-0.637C0.177,-0.623 0.17,-0.604 0.165,-0.581C0.16,-0.558 0.158,-0.53 0.157,-0.496C0.157,-0.462 0.156,-0.422 0.156,-0.375C0.156,-0.328 0.157,-0.288 0.157,-0.254C0.158,-0.22 0.161,-0.192 0.166,-0.169C0.17,-0.146 0.177,-0.127 0.187,-0.113C0.197,-0.099 0.211,-0.089 0.23,-0.081C0.249,-0.074 0.272,-0.069 0.301,-0.066C0.329,-0.064 0.364,-0.063 0.406,-0.063L0.688,-0.063Z" style="fill:rgb(226,226,226);fill-rule:nonzero;"/>
                    </g>
                    <g transform="matrix(93.54,0,0,93.54,5426.46,1334.2)">
                        <path d="M0.188,0L0.094,0L0.094,-0.75L0.258,-0.75L0.946,-0.094L0.946,-0.75L1.04,-0.75L1.04,0L0.915,0L0.188,-0.672L0.188,0Z" style="fill:rgb(226,226,226);fill-rule:nonzero;"/>
                    </g>
                    <g transform="matrix(93.54,0,0,93.54,5532.47,1334.2)">
                        <path d="M0.566,-0.422C0.618,-0.422 0.662,-0.42 0.699,-0.416C0.736,-0.411 0.767,-0.405 0.792,-0.397C0.817,-0.388 0.837,-0.378 0.852,-0.366C0.867,-0.353 0.879,-0.339 0.887,-0.323C0.895,-0.308 0.9,-0.29 0.903,-0.271C0.905,-0.251 0.906,-0.23 0.906,-0.207C0.906,-0.184 0.904,-0.163 0.9,-0.143C0.896,-0.123 0.889,-0.104 0.878,-0.088C0.868,-0.071 0.854,-0.056 0.836,-0.043C0.818,-0.03 0.795,-0.019 0.768,-0.01C0.74,-0.001 0.707,0.006 0.668,0.01C0.629,0.015 0.583,0.018 0.531,0.018L0.406,0.018C0.359,0.018 0.318,0.016 0.283,0.012C0.248,0.009 0.218,0.003 0.192,-0.004C0.167,-0.011 0.146,-0.021 0.129,-0.032C0.113,-0.043 0.1,-0.056 0.09,-0.072C0.08,-0.087 0.073,-0.104 0.069,-0.123C0.065,-0.143 0.063,-0.164 0.063,-0.188L0.157,-0.188C0.157,-0.158 0.161,-0.135 0.169,-0.119C0.178,-0.102 0.192,-0.09 0.211,-0.081C0.231,-0.073 0.257,-0.068 0.288,-0.066C0.32,-0.064 0.359,-0.063 0.406,-0.063L0.531,-0.063C0.586,-0.063 0.631,-0.065 0.667,-0.07C0.704,-0.076 0.732,-0.084 0.754,-0.095C0.775,-0.107 0.791,-0.122 0.799,-0.14C0.808,-0.158 0.813,-0.181 0.813,-0.207C0.813,-0.233 0.809,-0.255 0.803,-0.273C0.797,-0.291 0.786,-0.305 0.768,-0.315C0.75,-0.325 0.725,-0.333 0.693,-0.337C0.661,-0.342 0.618,-0.344 0.566,-0.344L0.438,-0.344C0.38,-0.344 0.331,-0.346 0.29,-0.35C0.249,-0.354 0.215,-0.36 0.188,-0.368C0.16,-0.376 0.138,-0.386 0.121,-0.398C0.104,-0.41 0.092,-0.424 0.083,-0.439C0.075,-0.454 0.069,-0.471 0.066,-0.49C0.064,-0.509 0.063,-0.529 0.063,-0.551C0.063,-0.574 0.065,-0.595 0.069,-0.614C0.073,-0.634 0.08,-0.651 0.091,-0.667C0.102,-0.683 0.118,-0.697 0.137,-0.709C0.156,-0.722 0.181,-0.732 0.211,-0.74C0.241,-0.749 0.277,-0.755 0.319,-0.759C0.362,-0.764 0.411,-0.766 0.469,-0.766L0.563,-0.766C0.609,-0.766 0.65,-0.764 0.686,-0.76C0.721,-0.757 0.751,-0.752 0.776,-0.744C0.802,-0.737 0.823,-0.728 0.84,-0.717C0.856,-0.706 0.87,-0.693 0.88,-0.678C0.89,-0.663 0.896,-0.646 0.9,-0.626C0.904,-0.607 0.906,-0.586 0.906,-0.563L0.813,-0.563C0.813,-0.592 0.808,-0.615 0.8,-0.631C0.791,-0.648 0.777,-0.66 0.758,-0.669C0.738,-0.677 0.713,-0.682 0.681,-0.684C0.649,-0.686 0.609,-0.688 0.563,-0.688L0.469,-0.688C0.406,-0.688 0.355,-0.685 0.314,-0.681C0.274,-0.677 0.242,-0.669 0.219,-0.659C0.195,-0.648 0.179,-0.634 0.17,-0.617C0.161,-0.599 0.156,-0.577 0.156,-0.551C0.156,-0.535 0.157,-0.52 0.16,-0.507C0.162,-0.495 0.167,-0.483 0.174,-0.474C0.181,-0.464 0.19,-0.456 0.203,-0.45C0.216,-0.443 0.233,-0.438 0.253,-0.434C0.274,-0.429 0.3,-0.426 0.33,-0.425C0.36,-0.423 0.396,-0.422 0.438,-0.422L0.566,-0.422Z" style="fill:rgb(226,226,226);fill-rule:nonzero;"/>
                    </g>
                </g>
            </g>
        </g>
    </g>
</svg>
