<?xml version="1.0" encoding="UTF-8" standalone="no"?>
<!DOCTYPE svg PUBLIC "-//W3C//DTD SVG 1.1//EN" "http://www.w3.org/Graphics/SVG/1.1/DTD/svg11.dtd">
<svg width="100%" height="100%" viewBox="0 0 432 471" version="1.1" xmlns="http://www.w3.org/2000/svg" xmlns:xlink="http://www.w3.org/1999/xlink" xml:space="preserve" xmlns:serif="http://www.serif.com/" style="fill-rule:evenodd;clip-rule:evenodd;stroke-linejoin:round;stroke-miterlimit:2;">
    <g transform="matrix(1,0,0,1,-5864.61,0)">
        <g id="Simbolo-Preto" serif:id="Simbolo Preto" transform="matrix(0.210897,0,0,0.306396,4958.6,0)">
            <rect x="4296" y="0" width="2048" height="1536" style="fill:none;"/>
            <g transform="matrix(-15.7926,3.99368e-15,5.80212e-15,10.8703,18509.6,-3474.81)">
                <path d="M869.956,364.227C861.141,393.334 838.181,416.29 809.066,425.092L865.8,425.092C866.902,425.092 867.959,424.654 868.739,423.875C869.518,423.095 869.956,422.039 869.956,420.936L869.956,364.227Z"/>
            </g>
            <g transform="matrix(-41.4623,1.04851e-14,1.5233e-14,28.5391,40779.1,-10943.1)">
                <path d="M843.548,397.106C843.129,397.106 842.726,397.272 842.429,397.569C842.132,397.866 841.966,398.269 841.966,398.688L841.966,422.017C841.966,422.437 842.132,422.839 842.429,423.136C842.726,423.433 843.129,423.6 843.548,423.6L845.267,423.6C856.356,420.248 865.103,411.505 868.46,400.417L868.46,398.688C868.46,398.269 868.293,397.866 867.996,397.569C867.699,397.272 867.297,397.106 866.877,397.106L843.548,397.106ZM843.548,397.914L866.877,397.914C867.306,397.925 867.64,398.259 867.651,398.688L867.651,400.296C864.359,411.034 855.885,419.504 845.146,422.791L843.548,422.791C843.343,422.791 843.146,422.709 843.001,422.564C842.856,422.419 842.775,422.222 842.775,422.017L842.775,398.688C842.775,398.483 842.856,398.286 843.001,398.141C843.146,397.996 843.343,397.914 843.548,397.914Z"/>
            </g>
            <g transform="matrix(0,4.51714,6.56261,0,-1252.72,-10884.8)">
                <g transform="matrix(-0.132879,-0.132879,-0.63739,0.63739,2906.74,888.074)">
                    <path d="M869.956,355.534L800.397,364.219L800.397,425.092L869.956,355.534Z"/>
                </g>
                <g transform="matrix(0.132879,0.132879,0.63739,-0.63739,2224.15,1145.23)">
                    <path d="M869.956,355.534L800.397,364.219L800.397,425.092L869.956,355.534Z"/>
                </g>
            </g>
        </g>
    </g>
</svg>
